<svg id="Capa_1" enable-background="new 0 0 502 502" height="512" viewBox="0 0 502 502" width="512" xmlns="http://www.w3.org/2000/svg" xmlns:xlink="http://www.w3.org/1999/xlink"><linearGradient id="SVGID_1_" gradientTransform="matrix(0 -1 1 0 -250 1152)" gradientUnits="userSpaceOnUse" x1="712.927" x2="1152" y1="501" y2="501"><stop offset="0" stop-color="#465260"/><stop offset="1" stop-color="#5a708d"/></linearGradient><linearGradient id="lg1"><stop offset="0" stop-color="#ec6476"/><stop offset="1" stop-color="#ec909c"/></linearGradient><linearGradient id="SVGID_2_" gradientUnits="userSpaceOnUse" x1="62.47" x2="439.53" xlink:href="#lg1" y1="219.536" y2="219.536"/><linearGradient id="SVGID_3_" gradientUnits="userSpaceOnUse" x1="125.551" x2="376.449" y1="219.536" y2="219.536"><stop offset="0" stop-color="#f9ea9d"/><stop offset="1" stop-color="#fffac7"/></linearGradient><linearGradient id="SVGID_4_" gradientTransform="matrix(0 -1 1 0 -250 1152)" gradientUnits="userSpaceOnUse" x1="869.739" x2="995.188" xlink:href="#lg1" y1="501" y2="501"/><linearGradient id="lg2"><stop offset="0" stop-color="#8fd5e6"/><stop offset="1" stop-color="#b0e4f0"/></linearGradient><linearGradient id="SVGID_5_" gradientUnits="userSpaceOnUse" x1="218.575" x2="108.421" xlink:href="#lg2" y1="421.453" y2="421.453"/><linearGradient id="SVGID_6_" gradientTransform="matrix(-1 0 0 1 902 0)" gradientUnits="userSpaceOnUse" x1="618.575" x2="508.421" xlink:href="#lg2" y1="421.453" y2="421.453"/><linearGradient id="SVGID_7_" gradientUnits="userSpaceOnUse" x1="251" x2="251" y1="492.857" y2="250.569"><stop offset="0" stop-color="#bfdbdb"/><stop offset="1" stop-color="#f3dbdb"/></linearGradient><g><circle cx="251" cy="219.536" fill="url(#SVGID_1_)" r="219.536"/><path d="m123.064 397.95c36.023 25.877 80.197 41.123 127.936 41.123 1.052 0 2.097-.025 3.146-.04v-182.625l-110.902 110.902c-8.886 8.886-15.68 19.301-20.18 30.64z" fill="#3b4a5e"/><path d="m251 31.006c-104.122 0-188.53 84.408-188.53 188.53 0 62.341 30.265 117.605 76.896 151.927 15.398 0 27.529 9.213 30.795 18.426l.001.005c24.5 11.646 51.905 18.172 80.837 18.172 104.122 0 188.53-84.408 188.53-188.53s-84.407-188.53-188.529-188.53z" fill="url(#SVGID_2_)"/><path d="m251 184.536c-36.864 0-66.854 29.991-66.854 66.854v75.018l-40.901 40.902c-1.346 1.346-2.627 2.739-3.878 4.153 9.61 7.073 19.917 13.253 30.796 18.426l48.984-48.984v-89.515c0-17.593 14.262-31.854 31.854-31.854z" fill="#e05467"/><path d="m251 94.087c-69.284 0-125.449 56.166-125.449 125.449 0 44.706 23.389 83.944 58.595 106.161 11.038-1.816 28.616.989 35 15.194l-.006.007c10.174 2.664 20.851 4.087 31.861 4.087 69.284 0 125.449-56.166 125.449-125.449s-56.166-125.449-125.45-125.449z" fill="url(#SVGID_3_)"/><path d="m184.146 291.077v34.621c10.685 6.743 22.462 11.91 35 15.194v-49.815c0-9.665-7.835-17.5-17.5-17.5-9.665 0-17.5 7.835-17.5 17.5z" fill="#f5c37f"/><circle cx="251" cy="219.536" fill="url(#SVGID_4_)" r="62.725"/><path d="m167.993 392.059c-10.441 10.441-16.306 24.601-16.306 39.366v52.955c0 15.666 18.941 23.512 30.018 12.434l37.441-37.441v-118.467z" fill="url(#SVGID_5_)"/><path d="m193.714 441.021c-2.943 0-5.886-1.123-8.132-3.368-4.491-4.491-4.491-11.772 0-16.264l36.925-36.925c4.492-4.492 11.773-4.491 16.264 0s4.491 11.772 0 16.264l-36.925 36.925c-2.245 2.245-5.189 3.368-8.132 3.368z" fill="#66c2d1"/><path d="m334.008 392.059c10.441 10.441 16.306 24.601 16.306 39.366v52.955c0 15.666-18.941 23.512-30.019 12.434l-37.441-37.441v-118.467z" fill="url(#SVGID_6_)"/><path d="m308.286 441.021c-2.943 0-5.886-1.123-8.132-3.368l-36.925-36.925c-4.491-4.491-4.491-11.773 0-16.264s11.772-4.492 16.264 0l36.925 36.925c4.491 4.491 4.491 11.772 0 16.264-2.246 2.245-5.189 3.368-8.132 3.368z" fill="#66c2d1"/><path d="m251 491.228c-17.593 0-31.854-14.262-31.854-31.854v-207.983c0-17.593 14.262-31.854 31.854-31.854 17.593 0 31.854 14.262 31.854 31.854v207.983c0 17.592-14.261 31.854-31.854 31.854z" fill="url(#SVGID_7_)"/><g><ellipse cx="163.114" cy="185.273" fill="#ea9cc5" rx="14.936" ry="12.003"/><ellipse cx="338.886" cy="185.273" fill="#ea9cc5" rx="14.936" ry="12.003"/><circle cx="188.721" cy="155.655" fill="#fff" r="29.618"/><circle cx="313.279" cy="155.655" fill="#fff" r="29.618"/><g fill="#353544"><g><circle cx="188.721" cy="155.655" r="17.652"/><circle cx="313.279" cy="155.655" r="17.652"/></g><path d="m251 186.215c-5.248 0-10.495-1.984-14.776-5.954-2.025-1.877-2.145-5.041-.267-7.066s5.042-2.145 7.066-.267c4.697 4.355 11.257 4.355 15.954 0 2.025-1.876 5.188-1.758 7.066.267 1.877 2.025 1.758 5.188-.267 7.066-4.281 3.97-9.528 5.954-14.776 5.954z"/></g></g><g fill="#ffb8c1"><path d="m370.609 119.097c-2.693 0-5.376-1.081-7.348-3.214-1.992-2.157-4.073-4.283-6.184-6.319-3.975-3.835-4.088-10.166-.253-14.14 3.835-3.975 10.165-4.087 14.14-.253 2.385 2.301 4.736 4.704 6.988 7.142 3.748 4.057 3.497 10.383-.56 14.131-1.923 1.775-4.357 2.653-6.783 2.653z"/><path d="m331.359 87.932c-1.675 0-3.374-.422-4.935-1.31-9.796-5.571-20.215-10.051-30.969-13.316-5.285-1.604-8.269-7.189-6.664-12.474 1.604-5.285 7.188-8.27 12.474-6.664 12.172 3.695 23.963 8.765 35.047 15.069 4.801 2.73 6.479 8.836 3.749 13.636-1.843 3.24-5.223 5.059-8.702 5.059z"/></g></g></svg>