<svg id="Capa_1" enable-background="new 0 0 502 502" height="512" viewBox="0 0 502 502" width="512" xmlns="http://www.w3.org/2000/svg" xmlns:xlink="http://www.w3.org/1999/xlink"><linearGradient id="SVGID_1_" gradientUnits="userSpaceOnUse" x1="235.07" x2="235.07" y1="192.276" y2="455.949"><stop offset="0" stop-color="#64cd89"/><stop offset=".2218" stop-color="#66cf8e"/><stop offset=".5016" stop-color="#6dd39e"/><stop offset=".8113" stop-color="#77dbb8"/><stop offset="1" stop-color="#7fe1cb"/></linearGradient><linearGradient id="lg1"><stop offset="0" stop-color="#f4d84a"/><stop offset="1" stop-color="#f9ea9d"/></linearGradient><linearGradient id="SVGID_2_" gradientUnits="userSpaceOnUse" x1="342.274" x2="78.555" xlink:href="#lg1" y1="226.243" y2="226.243"/><linearGradient id="SVGID_3_" gradientUnits="userSpaceOnUse" x1="347.858" x2="347.858" y1="270.098" y2="113.431"><stop offset="0" stop-color="#a98bdb"/><stop offset="1" stop-color="#c3afe8"/></linearGradient><linearGradient id="SVGID_4_" gradientUnits="userSpaceOnUse" x1="55.845" x2="55.845" y1="149.569" y2="48.987"><stop offset="0" stop-color="#ec6476"/><stop offset="1" stop-color="#ec909c"/></linearGradient><linearGradient id="SVGID_5_" gradientUnits="userSpaceOnUse" x1="111.924" x2="111.924" xlink:href="#lg1" y1="145.347" y2="61.585"/><linearGradient id="SVGID_6_" gradientUnits="userSpaceOnUse" x1="347.858" x2="347.858" y1="147.637" y2="196.412"><stop offset="0" stop-color="#f9ea9d"/><stop offset="1" stop-color="#fffac7"/></linearGradient><g><path d="m346.437 193.624c-102.3 0-198.293 40.796-268.863 111.367 0 86.983 70.514 157.497 157.497 157.497s157.497-70.514 157.497-157.497c-.001-43.491-17.63-82.865-46.131-111.367z" fill="url(#SVGID_1_)"/><path d="m384.667 255.633h-73.848c-27.162 0-49.182-22.019-49.182-49.182v-28.991h-35v28.992c0 46.418 37.764 84.182 84.182 84.182h74.078c2.354 0 4.678-.122 6.984-.313-1.109-12.004-3.564-23.617-7.214-34.688z" fill="#36b663"/><path d="m346.437 193.624c-28.501-28.501-67.875-46.13-111.367-46.13-86.983 0-157.497 70.514-157.497 157.497h146.544c7.013 0 13.739-2.786 18.698-7.745z" fill="url(#SVGID_2_)"/><path d="m384.897 255.633h-74.078c-27.162 0-49.182-22.019-49.182-49.182v-74.078c0-27.162 22.02-49.182 49.182-49.182h74.078c27.162 0 49.182 22.02 49.182 49.182v74.078c0 27.163-22.02 49.182-49.182 49.182z" fill="url(#SVGID_3_)"/><path d="m261.637 206.452v-11.492c0-9.665-7.835-17.5-17.5-17.5-9.665 0-17.5 7.835-17.5 17.5v11.492c0 29.021 14.762 54.66 37.172 69.801l25.543-25.543c-16.405-7.972-27.715-24.793-27.715-44.258z" fill="#efc42f"/><g fill="#916fce"><path d="m490.5 155.621h-86.433c-6.351 0-11.5-5.149-11.5-11.5s5.149-11.5 11.5-11.5h86.433c6.351 0 11.5 5.149 11.5 11.5s-5.149 11.5-11.5 11.5z"/><path d="m460.52 206.204h-56.453c-6.351 0-11.5-5.149-11.5-11.5s5.149-11.5 11.5-11.5h56.453c6.351 0 11.5 5.149 11.5 11.5s-5.149 11.5-11.5 11.5z"/></g><path d="m163.55 249.826-33.093-33.092c-7.456-7.457-17.37-11.564-27.915-11.564h-91.042c-6.351 0-11.5-5.149-11.5-11.5s5.149-11.5 11.5-11.5h91.042c16.689 0 32.379 6.499 44.179 18.3l33.093 33.092c4.491 4.491 4.491 11.773 0 16.264s-11.772 4.492-16.264 0z" fill="#916fce"/><path d="m83.884 149.721h-41.935c-7.811 0-14.143-6.332-14.143-14.143v-77.37c0-10.326 8.371-18.696 18.696-18.696h18.686c10.326 0 18.696 8.371 18.696 18.696z" fill="url(#SVGID_4_)"/><path d="m125.82 149.721h-41.936v-61.804c0-10.326 8.371-18.696 18.696-18.696h18.686c10.326 0 18.696 8.371 18.696 18.696v47.661c.001 7.811-6.331 14.143-14.142 14.143z" fill="url(#SVGID_5_)"/><g><path d="m162.121 341.497c0 6.629-6.687 12.003-14.937 12.003-8.249 0-14.936-5.374-14.936-12.003s6.687-12.003 14.936-12.003c8.25-.001 14.937 5.373 14.937 12.003z" fill="#efb1d2"/><path d="m337.892 341.497c0 6.629-6.687 12.003-14.936 12.003s-14.936-5.374-14.936-12.003 6.687-12.003 14.936-12.003c8.249-.001 14.936 5.373 14.936 12.003z" fill="#efb1d2"/><circle cx="172.791" cy="311.879" fill="#fff" r="29.618"/><path d="m202.409 311.879c0 9.749-7.903 17.652-17.652 17.652s-17.652-7.903-17.652-17.652 7.903-17.652 17.652-17.652 17.652 7.903 17.652 17.652z" fill="#353544"/><circle cx="297.349" cy="311.879" fill="#fff" r="29.618"/><g fill="#353544"><path d="m326.904 311.879c0 9.749-7.903 17.652-17.652 17.652s-17.652-7.903-17.652-17.652 7.903-17.652 17.652-17.652 17.652 7.903 17.652 17.652z"/><ellipse cx="235.07" cy="334.331" rx="13.252" ry="17.352"/></g></g><circle cx="347.858" cy="169.413" fill="url(#SVGID_6_)" r="25.292"/><g fill="#a1f5d0"><path d="m149.837 403.898c-2.489 0-4.981-.923-6.92-2.783-2.488-2.386-4.912-4.897-7.205-7.465-3.678-4.12-3.32-10.441.799-14.12 4.12-3.678 10.441-3.32 14.12.799 1.949 2.184 4.011 4.32 6.129 6.351 3.986 3.822 4.119 10.153.296 14.139-1.963 2.048-4.589 3.079-7.219 3.079z"/><path d="m218.875 437.099c-.435 0-.874-.028-1.318-.086-13.054-1.718-25.743-5.36-37.715-10.824-5.024-2.293-7.239-8.225-4.945-13.249 2.293-5.025 8.225-7.239 13.249-4.945 10.164 4.639 20.938 7.73 32.021 9.189 5.476.721 9.33 5.744 8.609 11.22-.661 5.031-4.959 8.695-9.901 8.695z"/></g></g></svg>