<svg id="Capa_1" enable-background="new 0 0 512 512" height="512" viewBox="0 0 512 512" width="512" xmlns="http://www.w3.org/2000/svg"><g><g><g><g><g><path d="m409.888 65.759c-12.263-7.111-26.495-11.203-41.692-11.203-37.637 0-69.437 24.977-79.739 59.258l61.727 51.147 45.441 51.469c32.502-11.339 55.828-42.25 55.828-78.618v-113.617z" fill="#fbf2e2"/></g><g><path d="m234.198 105.104c-93.514 0-169.653 74.349-172.553 167.159l-.096 220.545 75.726-72.164c110.963 77.957 271.624-6.078 269.57-142.894.001-95.348-77.296-172.646-172.647-172.646z" fill="#9bb6f1"/></g><g><path d="m406.845 277.75c0-4.709-.196-9.372-.565-13.985-10.541 126.831-163.578 218.512-269.979 127.235l-52.937 46.872.073-165.608c2.787-89.175 73.192-161.293 161.653-166.807-97.026-6.479-180.81 70.204-183.445 166.806 0 0-.096 221.546-.096 221.546l75.726-73.165c110.963 77.957 271.624-6.078 269.57-142.894z" fill="#6990eb"/></g><g><path d="m409.888 65.759c-36.586-22.616-89.675-9.2-111.47 26.645-4.304 6.623-7.675 13.848-9.96 21.41 46.475 14.462 90.228 55.452 107.167 102.616 7.49-2.613 14.485-6.277 20.827-10.796-18.227-46.093-53.415-83.618-97.863-104.912 23.285-30.472 71.834-39.417 106.024-19.238l26.839-26.84v-30.449z" fill="#f7e0ba"/></g><g><circle cx="174.198" cy="277.753" fill="#e08ea2" r="15"/></g><g><circle cx="233.923" cy="277.753" fill="#f7e0ba" r="15"/></g><g><circle cx="294.198" cy="277.753" fill="#d3e0ef" r="15"/></g><g><g><g><path d="m146.896 175.193-9.737-11.41c4.108-3.506 8.629-6.763 12.51-9.488l8.618 12.277c-3.594 2.524-7.758 5.521-11.391 8.621z" fill="#fff"/></g><g><path d="m170.32 159.36-6.972-13.281c5.122-2.689 9.801-4.866 14.305-6.657l5.542 13.938c-4.01 1.595-8.222 3.557-12.875 6z" fill="#fff"/></g></g></g><g><g><path d="m352.868 94.205-5.368-14.007c5.329-2.042 11.148-3.303 16.831-3.646l.903 14.973c-4.114.248-8.505 1.2-12.366 2.68z" fill="#fff"/></g></g></g></g></g><g><path d="m355.282 165.301 11.046-10.211c-3.453-3.735-7.108-7.369-10.865-10.801l-10.147 11.105c3.446 3.147 6.799 6.481 9.966 9.907z"/><path d="m173.472 300.26c29.812-.944 29.82-44.179 0-45.127-29.812.944-29.819 44.178 0 45.127zm0-30.085c9.916.259 9.918 14.782 0 15.042-9.915-.258-9.917-14.782 0-15.042z"/><path d="m233.643 255.133c-29.813.944-29.82 44.179 0 45.127 29.812-.944 29.819-44.179 0-45.127zm-.001 15.042c9.916.259 9.918 14.782 0 15.042-9.916-.258-9.918-14.782 0-15.042z"/><path d="m293.812 255.133c-29.813.944-29.82 44.179 0 45.127 29.812-.944 29.82-44.179 0-45.127zm0 15.042c9.916.259 9.918 14.782 0 15.042-9.916-.258-9.918-14.782 0-15.042z"/><path d="m408.216 55.71c-46.874-23.907-105.914-.237-124.758 47.734-108.248-30.612-232.11 50.771-230.475 174.252v113.567h15.042s0-113.567.002-113.564c-1.777-134.88 159.746-214.998 265.841-131.861l9.112-11.969c-14.285-11.199-29.495-19.679-45.177-25.67 17.874-43.629 73.698-60.874 113.499-33.55l32.689-35.837v51.602h15.042v-90.414z"/><path d="m443.99 137.358c0 29.931-17.454 56.721-44.171 69.01-5.834-13.137-13.447-26.157-23.016-38.88l-11.914 9.184c113.632 153.466-72.891 344.459-229.254 234.674l-68.159 65.38v-70.421h-14.493v105.695l84.348-81.437c152.543 93.686 319.668-61.668 268.022-210.192 32.437-14.562 53.679-46.875 53.679-83.013v-31.902h-15.042z"/></g></g></svg>