<svg id="Capa_1" enable-background="new 0 0 502 502" height="512" viewBox="0 0 502 502" width="512" xmlns="http://www.w3.org/2000/svg" xmlns:xlink="http://www.w3.org/1999/xlink"><linearGradient id="SVGID_1_" gradientUnits="userSpaceOnUse" x1="251" x2="251" y1="495.253" y2="-45.507"><stop offset="0" stop-color="#ec6476"/><stop offset="1" stop-color="#ec909c"/></linearGradient><linearGradient id="SVGID_2_" gradientUnits="userSpaceOnUse" x1="251" x2="251" y1="66.842" y2="340.059"><stop offset="0" stop-color="#f9ea9d"/><stop offset="1" stop-color="#fffac7"/></linearGradient><linearGradient id="SVGID_3_" gradientUnits="userSpaceOnUse" x1="251" x2="251" y1="288.874" y2="80.82"><stop offset="0" stop-color="#8fd5e6"/><stop offset="1" stop-color="#b0e4f0"/></linearGradient><g><path d="m251 502c100.4 0 200.8-190.301 200.8-301.2s-89.901-200.8-200.8-200.8-200.8 89.901-200.8 200.8 100.4 301.2 200.8 301.2z" fill="url(#SVGID_1_)"/><path d="m251 376.528c32.26 0 62.514-8.742 88.526-23.977 8.856-5.187 11.23-16.933 5.126-25.183l-.22-.297c-5.284-7.142-15.073-9.03-22.751-4.56-20.771 12.09-44.916 19.017-70.681 19.017-46.078 0-86.977-22.15-112.646-56.379-5.255-7.008-14.997-8.85-22.536-4.39-.104.061-.208.123-.311.184-8.813 5.213-11.253 16.95-5.106 25.139 32.082 42.742 83.163 70.446 140.599 70.446z" fill="#e05467"/><circle cx="251" cy="200.8" fill="url(#SVGID_2_)" r="140.728"/><circle cx="251" cy="200.8" fill="url(#SVGID_3_)" r="106.939"/><path d="m268.062 95.221c-5.557-.891-11.254-1.361-17.062-1.361s-11.505.47-17.062 1.361c-22.516 26.052-37.076 60.399-39.823 94.079h-49.438c-.404 3.779-.617 7.614-.617 11.5s.213 7.721.617 11.5h49.438c2.747 33.68 17.307 68.027 39.823 94.079 5.557.891 11.254 1.361 17.062 1.361s11.505-.47 17.062-1.361c22.516-26.052 37.075-60.399 39.823-94.079h49.438c.404-3.778.617-7.614.617-11.5s-.213-7.722-.617-11.5h-49.438c-2.747-33.68-17.307-68.027-39.823-94.079zm-17.062 195.754c-18.829-21.889-31.12-50.504-33.803-78.675h67.606c-2.683 28.17-14.974 56.785-33.803 78.675zm-33.803-101.675c2.683-28.17 14.974-56.785 33.803-78.674 18.829 21.889 31.12 50.504 33.803 78.674z" fill="#66c2d1"/><g><ellipse cx="163.114" cy="417.901" fill="#efb1d2" rx="14.936" ry="12.003"/><ellipse cx="338.886" cy="417.901" fill="#efb1d2" rx="14.936" ry="12.003"/><circle cx="188.721" cy="388.283" fill="#fff" r="29.618"/><circle cx="313.279" cy="388.283" fill="#fff" r="29.618"/><g fill="#353544"><g><circle cx="188.721" cy="388.283" r="17.652"/><circle cx="313.279" cy="388.283" r="17.652"/></g><path d="m251 418.843c-5.248 0-10.495-1.984-14.776-5.954-2.025-1.878-2.145-5.041-.267-7.066s5.041-2.145 7.066-.267c4.697 4.354 11.256 4.354 15.954 0 2.023-1.877 5.188-1.759 7.065.267 1.878 2.025 1.759 5.188-.267 7.066-4.28 3.969-9.528 5.954-14.775 5.954z"/></g></g></g></svg>