<svg id="Capa_1" enable-background="new 0 0 502 502" height="512" viewBox="0 0 502 502" width="512" xmlns="http://www.w3.org/2000/svg" xmlns:xlink="http://www.w3.org/1999/xlink"><linearGradient id="lg1"><stop offset="0" stop-color="#465260"/><stop offset="1" stop-color="#5a708d"/></linearGradient><linearGradient id="SVGID_1_" gradientUnits="userSpaceOnUse" x1="57.141" x2="-10.131" xlink:href="#lg1" y1="213.271" y2="213.271"/><linearGradient id="lg2"><stop offset="0" stop-color="#ec6476"/><stop offset="1" stop-color="#ec909c"/></linearGradient><linearGradient id="SVGID_2_" gradientUnits="userSpaceOnUse" x1="137.787" x2="137.787" xlink:href="#lg2" y1="306.48" y2="450.92"/><linearGradient id="SVGID_3_" gradientUnits="userSpaceOnUse" x1="247.067" x2="48.648" y1="213.271" y2="213.271"><stop offset="0" stop-color="#bfdbdb"/><stop offset="1" stop-color="#f3dbdb"/></linearGradient><linearGradient id="SVGID_4_" gradientUnits="userSpaceOnUse" x1="179.11" x2="179.11" xlink:href="#lg1" y1="298.012" y2="372.751"/><linearGradient id="SVGID_5_" gradientUnits="userSpaceOnUse" x1="350.375" x2="350.375" xlink:href="#lg2" y1="354.239" y2="47.538"/><linearGradient id="SVGID_6_" gradientUnits="userSpaceOnUse" x1="281.235" x2="489.265" xlink:href="#lg1" y1="213.271" y2="213.271"/><g><path d="m74.276 173.561h-34.565c-21.932 0-39.711 17.778-39.711 39.71s17.779 39.711 39.711 39.711h34.565z" fill="url(#SVGID_1_)"/><path d="m211.363 414.25c-20.564-47.022-19.881-117.378-19.881-147.34h-128.864c0 28.694-.626 94.434 17.382 141.248 7.485 19.459 26.307 32.197 47.156 32.197h67.259c13.437-.001 22.331-13.795 16.948-26.105z" fill="url(#SVGID_2_)"/><path d="m286.031 333.633c-35.583-35.583-131.527-34.018-172.494-34.018s-73.638-38.658-73.638-86.344c0-47.687 32.671-86.344 73.638-86.344s136.911 1.565 172.494-34.018z" fill="url(#SVGID_3_)"/><path d="m219.646 349.786c-8.228-23.239-7.933-54.638-7.933-68.57h-73.926c0 14.307-.311 47.034 8.616 70.429 3.744 9.811 13.152 16.294 23.653 16.294h36.684c9.405-.001 16.045-9.288 12.906-18.153z" fill="url(#SVGID_4_)"/><path d="m130.961 299.617c28.057.108 67.644 1.122 101.415 8.863-21.026-26.027-33.626-59.144-33.626-95.208 0-36.065 12.6-69.182 33.626-95.209-14.809 3.395-30.734 5.497-46.317 6.795-14.225 26.331-22.31 56.445-22.31 88.414 0 18.185 2.626 35.767 7.499 52.397-14.92-.773-29.247-.993-40.139-1.048-9.695-.048-17.573 7.803-17.573 17.499.001 9.637 7.787 17.46 17.425 17.497z" fill="#b6c6d9"/><circle cx="350.375" cy="213.271" fill="url(#SVGID_5_)" r="151.625"/><circle cx="350.375" cy="213.271" fill="url(#SVGID_6_)" r="109.42"/><g><ellipse cx="262.49" cy="219.945" fill="#ea9cc5" rx="14.936" ry="12.003"/><ellipse cx="438.261" cy="219.945" fill="#ea9cc5" rx="14.936" ry="12.003"/><circle cx="288.096" cy="190.327" fill="#fff" r="29.618"/><circle cx="412.654" cy="190.327" fill="#fff" r="29.618"/><g fill="#353544"><g><circle cx="288.096" cy="190.327" r="17.652"/><circle cx="412.654" cy="190.327" r="17.652"/></g><path d="m350.375 220.887c-5.247 0-10.495-1.984-14.775-5.954-2.025-1.877-2.145-5.041-.267-7.066 1.876-2.025 5.042-2.144 7.065-.267 4.697 4.354 11.256 4.354 15.953 0 2.024-1.876 5.188-1.759 7.065.267 1.878 2.025 1.759 5.188-.267 7.066-4.279 3.97-9.527 5.954-14.774 5.954z"/></g></g><path d="m147.296 205.762h-39.728c-6.352 0-11.5-5.149-11.5-11.5s5.148-11.5 11.5-11.5h39.728c6.352 0 11.5 5.149 11.5 11.5s-5.148 11.5-11.5 11.5z" fill="#b6c6d9"/><g fill="#ffb8c1"><path d="m473.37 177.788c-4.064 0-7.886-2.497-9.379-6.531-1.219-3.292-2.6-6.572-4.103-9.749-2.363-4.992-.232-10.954 4.76-13.317 4.99-2.362 10.952-.232 13.316 4.76 1.753 3.702 3.361 7.525 4.782 11.363 1.917 5.18-.727 10.933-5.906 12.85-1.144.422-2.317.624-3.47.624z"/><path d="m445.993 133.586c-2.666 0-5.325-1.059-7.294-3.157-7.616-8.116-16.296-15.143-25.797-20.885-4.727-2.856-6.242-9.004-3.386-13.73 2.857-4.727 9.003-6.243 13.731-3.386 11.064 6.687 21.169 14.868 30.035 24.316 3.779 4.027 3.578 10.355-.449 14.135-1.929 1.81-4.387 2.707-6.84 2.707z"/></g></g></svg>