<svg id="Capa_1" enable-background="new 0 0 502 502" height="512" viewBox="0 0 502 502" width="512" xmlns="http://www.w3.org/2000/svg" xmlns:xlink="http://www.w3.org/1999/xlink"><linearGradient id="SVGID_1_" gradientTransform="matrix(1 0 0 -1 0 504)" gradientUnits="userSpaceOnUse" x1="77.722" x2="77.722" y1="148.635" y2="27.325"><stop offset="0" stop-color="#43b36b"/><stop offset=".196" stop-color="#46b570"/><stop offset=".4433" stop-color="#4dbc80"/><stop offset=".7181" stop-color="#5ac79a"/><stop offset="1" stop-color="#6ad6bc"/></linearGradient><linearGradient id="SVGID_2_" gradientTransform="matrix(1 0 0 -1 0 504)" gradientUnits="userSpaceOnUse" x1="180.896" x2="180.896" y1="293.495" y2="66.832"><stop offset="0" stop-color="#64cd89"/><stop offset=".2218" stop-color="#66cf8e"/><stop offset=".5016" stop-color="#6dd39e"/><stop offset=".8113" stop-color="#77dbb8"/><stop offset="1" stop-color="#7fe1cb"/></linearGradient><linearGradient id="SVGID_3_" gradientTransform="matrix(-1 0 0 -1 134.01 504)" gradientUnits="userSpaceOnUse" x1="-290.268" x2="-290.268" y1="260.554" y2="178.72"><stop offset="0" stop-color="#68d0e8"/><stop offset="1" stop-color="#a7e7f5"/></linearGradient><linearGradient id="SVGID_4_" gradientTransform="matrix(1 0 0 -1 0 504)" gradientUnits="userSpaceOnUse" x1="123.738" x2="481.825" y1="363.273" y2="363.273"><stop offset="0" stop-color="#8fd5e6"/><stop offset="1" stop-color="#b0e4f0"/></linearGradient><g><path d="m35.952 320.302c46.138 0 83.54 37.402 83.54 83.54 0 32.862-18.975 61.293-46.566 74.933-17.032 8.42-36.974-4.231-36.974-23.231z" fill="url(#SVGID_1_)"/><path d="m294.823 423.135h-227.854c-36.986 0-66.969-29.983-66.969-66.969v-101.592c0-36.986 29.983-66.969 66.969-66.969h227.854c36.986 0 66.969 29.983 66.969 66.969v101.592c0 36.986-29.983 66.969-66.969 66.969z" fill="url(#SVGID_2_)"/><path d="m321.104 260.884c-76.688-1.624-119.357-25.899-147.261-50.358-5.787-5.478-16.779-7.418-23.043-2.493-9.57 7.523-9.633 18.428-1.257 26.329 41.603 39.248 105.569 61.521 171.562 61.521 14.325 0 27.879-.488 40.687-1.466v-36.585c-12.313 1.997-26.023 3.363-40.688 3.052z" fill="#36b663"/><path d="m466.048 146.932c-46.138 0-83.54 37.402-83.54 83.54 0 32.862 18.975 61.293 46.566 74.933 17.032 8.42 36.974-4.231 36.974-23.231z" fill="url(#SVGID_3_)"/><ellipse cx="321.104" cy="140.727" fill="url(#SVGID_4_)" rx="180.896" ry="120.158"/><g><path d="m107.947 355.193c0 6.629-6.687 12.003-14.937 12.003-8.249 0-14.936-5.374-14.936-12.003s6.687-12.003 14.936-12.003 14.937 5.374 14.937 12.003z" fill="#efb1d2"/><path d="m283.718 355.193c0 6.629-6.687 12.003-14.936 12.003s-14.936-5.374-14.936-12.003 6.687-12.003 14.936-12.003 14.936 5.374 14.936 12.003z" fill="#efb1d2"/><circle cx="118.617" cy="325.576" fill="#fff" r="29.618"/><path d="m148.235 325.576c0 9.749-7.903 17.652-17.652 17.652s-17.652-7.903-17.652-17.652 7.903-17.652 17.652-17.652c9.749-.001 17.652 7.903 17.652 17.652z" fill="#353544"/><circle cx="243.174" cy="325.576" fill="#fff" r="29.618"/><g fill="#353544"><path d="m272.73 325.576c0 9.749-7.903 17.652-17.652 17.652s-17.652-7.903-17.652-17.652 7.903-17.652 17.652-17.652c9.749-.001 17.652 7.903 17.652 17.652z"/><ellipse cx="180.896" cy="348.028" rx="13.252" ry="17.352"/></g></g><g><path d="m248.155 162.964c0 6.629-6.687 12.003-14.937 12.003-8.249 0-14.936-5.374-14.936-12.003s6.687-12.003 14.936-12.003c8.25-.001 14.937 5.374 14.937 12.003z" fill="#ea9cc5"/><path d="m423.926 162.964c0 6.629-6.687 12.003-14.936 12.003s-14.936-5.374-14.936-12.003 6.687-12.003 14.936-12.003c8.249-.001 14.936 5.374 14.936 12.003z" fill="#ea9cc5"/><ellipse cx="258.826" cy="133.346" fill="#fff" rx="29.618" ry="29.618" transform="matrix(.16 -.987 .987 .16 85.743 367.47)"/><ellipse cx="246.857" cy="133.347" fill="#353544" rx="17.652" ry="17.652"/><circle cx="383.383" cy="133.346" fill="#fff" r="29.618"/><g fill="#353544"><ellipse cx="371.428" cy="133.371" rx="17.651" ry="17.651" transform="matrix(.23 -.973 .973 .23 156.269 464.208)"/><path d="m328.695 140.54h-15.181c-3.007 0-5.658 1.976-6.506 4.862-2.672 9.09-5.742 27.748 14.097 27.748 19.838 0 16.769-18.659 14.097-27.748-.849-2.885-3.5-4.862-6.507-4.862z"/></g></g><g fill="#c9f5fa"><path d="m456.708 106.336c-3.324 0-6.574-1.656-8.475-4.678-1.103-1.753-2.293-3.365-3.642-4.93-3.605-4.184-3.137-10.498 1.048-14.104 4.184-3.606 10.498-3.135 14.103 1.048 1.98 2.298 3.805 4.767 5.421 7.338 2.94 4.675 1.534 10.849-3.142 13.789-1.653 1.041-3.495 1.537-5.313 1.537z"/><path d="m417.94 78.532c-1.14 0-2.299-.196-3.432-.611-9.522-3.48-20.814-6.265-33.56-8.278-5.455-.861-9.18-5.982-8.318-11.437.861-5.456 5.984-9.179 11.438-8.318 14.021 2.214 26.572 5.326 37.306 9.249 5.188 1.896 7.855 7.638 5.96 12.825-1.483 4.054-5.315 6.57-9.394 6.57z"/></g></g></svg>