<svg id="Capa_1" enable-background="new 0 0 502 502" height="512" viewBox="0 0 502 502" width="512" xmlns="http://www.w3.org/2000/svg" xmlns:xlink="http://www.w3.org/1999/xlink"><linearGradient id="SVGID_1_" gradientUnits="userSpaceOnUse" x1="251" x2="251" y1="320.426" y2="62.966"><stop offset="0" stop-color="#a98bdb"/><stop offset="1" stop-color="#c3afe8"/></linearGradient><linearGradient id="SVGID_2_" gradientUnits="userSpaceOnUse" x1="251" x2="251" y1="327.203" y2="490.54"><stop offset="0" stop-color="#b1cccc"/><stop offset="1" stop-color="#e6cfcf"/></linearGradient><linearGradient id="SVGID_3_" gradientUnits="userSpaceOnUse" x1="19.985" x2="482.015" y1="316.584" y2="316.584"><stop offset="0" stop-color="#465260"/><stop offset="1" stop-color="#5a708d"/></linearGradient><linearGradient id="lg1"><stop offset="0" stop-color="#f4d84a"/><stop offset="1" stop-color="#f9ea9d"/></linearGradient><linearGradient id="SVGID_4_" gradientUnits="userSpaceOnUse" x1="98.551" x2="98.551" xlink:href="#lg1" y1="280.165" y2="227.78"/><linearGradient id="SVGID_5_" gradientTransform="matrix(-1 0 0 1 902 0)" gradientUnits="userSpaceOnUse" x1="498.551" x2="498.551" xlink:href="#lg1" y1="280.165" y2="227.78"/><linearGradient id="SVGID_6_" gradientUnits="userSpaceOnUse" x1="251" x2="251" y1="164.714" y2="57.799"><stop offset="0" stop-color="#8b71c7"/><stop offset="1" stop-color="#a891d9"/></linearGradient><linearGradient id="SVGID_7_" gradientTransform="matrix(-1 0 0 1 902 0)" gradientUnits="userSpaceOnUse" x1="794.893" x2="794.893" xlink:href="#lg1" y1="110.772" y2="15.936"/><linearGradient id="SVGID_8_" gradientUnits="userSpaceOnUse" x1="394.893" x2="394.893" xlink:href="#lg1" y1="110.772" y2="15.936"/><linearGradient id="SVGID_9_" gradientUnits="userSpaceOnUse" x1="253.895" x2="253.895" xlink:href="#lg1" y1="92.886" y2="-10.082"/><g><path d="m439.03 280.609h-376.06v-195.745c0-24.015 19.468-43.484 43.484-43.484h289.092c24.016 0 43.484 19.468 43.484 43.484z" fill="url(#SVGID_1_)"/><path d="m310.399 352.559h-118.798v125.804c0 13.054 10.583 23.637 23.637 23.637h71.524c13.054 0 23.637-10.583 23.637-23.637z" fill="url(#SVGID_2_)"/><path d="m191.601 352.559v95.619c0 9.665 7.835 17.5 17.5 17.5 9.665 0 17.5-7.835 17.5-17.5v-60.618h83.798v-35h-118.798z" fill="#a6b4c4"/><path d="m456.263 280.609h-410.527c-14.222 0-25.751 11.529-25.751 25.751v20.448c0 14.222 11.529 25.751 25.751 25.751h410.527c14.222 0 25.751-11.529 25.751-25.751v-20.448c.001-14.222-11.528-25.751-25.751-25.751z" fill="url(#SVGID_3_)"/><path d="m131.711 232.98h-66.319c-10.855 0-19.655 8.8-19.655 19.655v27.974h105.629v-27.974c0-10.855-8.8-19.655-19.655-19.655z" fill="url(#SVGID_4_)"/><path d="m370.289 232.98h66.319c10.855 0 19.655 8.8 19.655 19.655v27.974h-105.629v-27.974c0-10.855 8.8-19.655 19.655-19.655z" fill="url(#SVGID_5_)"/><path d="m125.802 41.38c0 50.298 56.053 91.073 125.198 91.073s125.198-40.775 125.198-91.073z" fill="url(#SVGID_6_)"/><path d="m146.075 63.242 4.059-14.115c2.116-7.359-3.251-14.745-10.903-15.007l-14.678-.502c-2.209-.076-4.352-.772-6.183-2.009l-12.17-8.222c-6.344-4.286-15.028-1.465-17.641 5.732l-5.013 13.805c-.754 2.077-2.079 3.9-3.821 5.26l-11.58 9.033c-6.037 4.709-6.037 13.84 0 18.549l11.58 9.033c1.743 1.359 3.067 3.182 3.821 5.26l5.013 13.805c2.613 7.197 11.297 10.018 17.641 5.732l12.17-8.222c1.831-1.237 3.974-1.934 6.183-2.009l14.678-.502c7.652-.262 13.019-7.648 10.903-15.007l-4.059-14.115c-.611-2.122-.611-4.375 0-6.499z" fill="url(#SVGID_7_)"/><path d="m355.925 63.242-4.059-14.115c-2.116-7.359 3.251-14.745 10.903-15.007l14.678-.502c2.209-.076 4.352-.772 6.183-2.009l12.17-8.222c6.345-4.286 15.028-1.465 17.641 5.732l5.013 13.805c.754 2.077 2.079 3.9 3.821 5.26l11.58 9.033c6.037 4.709 6.037 13.84 0 18.549l-11.58 9.033c-1.743 1.359-3.067 3.182-3.821 5.26l-5.013 13.805c-2.613 7.197-11.297 10.018-17.641 5.732l-12.17-8.222c-1.831-1.237-3.974-1.934-6.183-2.009l-14.678-.502c-7.652-.262-13.019-7.648-10.903-15.007l4.059-14.115c.611-2.122.611-4.375 0-6.499z" fill="url(#SVGID_8_)"/><path d="m257.711 96.792 16.568 4.764c8.637 2.484 17.308-3.816 17.615-12.798l.589-17.23c.089-2.593.906-5.108 2.358-7.258l9.651-14.285c5.031-7.447 1.72-17.64-6.728-20.708l-16.204-5.884c-2.438-.885-4.578-2.44-6.174-4.486l-10.604-13.592c-5.528-7.086-16.245-7.086-21.773 0l-10.604 13.593c-1.596 2.046-3.735 3.6-6.174 4.486l-16.204 5.884c-8.448 3.068-11.76 13.261-6.728 20.708l9.651 14.285c1.452 2.15 2.27 4.665 2.358 7.258l.589 17.23c.307 8.982 8.978 15.282 17.615 12.798l16.568-4.764c2.493-.718 5.137-.718 7.631-.001z" fill="url(#SVGID_9_)"/><g><path d="m178.051 202.665c0 6.629-6.687 12.003-14.937 12.003-8.249 0-14.936-5.374-14.936-12.003s6.687-12.003 14.936-12.003c8.25 0 14.937 5.374 14.937 12.003z" fill="#efb1d2"/><path d="m353.822 202.665c0 6.629-6.687 12.003-14.936 12.003s-14.936-5.374-14.936-12.003 6.687-12.003 14.936-12.003 14.936 5.374 14.936 12.003z" fill="#efb1d2"/><circle cx="188.721" cy="173.047" fill="#fff" r="29.618"/><path d="m218.339 173.047c0 9.749-7.903 17.652-17.652 17.652s-17.652-7.903-17.652-17.652 7.903-17.652 17.652-17.652 17.652 7.903 17.652 17.652z" fill="#353544"/><circle cx="313.279" cy="173.047" fill="#fff" r="29.618"/><g fill="#353544"><path d="m342.835 173.047c0 9.749-7.903 17.652-17.652 17.652s-17.652-7.903-17.652-17.652 7.903-17.652 17.652-17.652c9.748 0 17.652 7.903 17.652 17.652z"/><ellipse cx="251" cy="195.499" rx="13.252" ry="17.352"/></g></g></g></svg>