<svg id="Capa_1" enable-background="new 0 0 502 502" height="512" viewBox="0 0 502 502" width="512" xmlns="http://www.w3.org/2000/svg" xmlns:xlink="http://www.w3.org/1999/xlink"><linearGradient id="lg1"><stop offset="0" stop-color="#43b36b"/><stop offset=".196" stop-color="#46b570"/><stop offset=".4433" stop-color="#4dbc80"/><stop offset=".7181" stop-color="#5ac79a"/><stop offset="1" stop-color="#6ad6bc"/></linearGradient><linearGradient id="SVGID_1_" gradientUnits="userSpaceOnUse" x1="108.434" x2="108.434" xlink:href="#lg1" y1="333.635" y2="95.015"/><linearGradient id="SVGID_2_" gradientTransform="matrix(-1 0 0 1 702 0)" gradientUnits="userSpaceOnUse" x1="308.434" x2="308.434" xlink:href="#lg1" y1="333.635" y2="95.015"/><linearGradient id="lg2"><stop offset="0" stop-color="#64cd89"/><stop offset=".2218" stop-color="#66cf8e"/><stop offset=".5016" stop-color="#6dd39e"/><stop offset=".8113" stop-color="#77dbb8"/><stop offset="1" stop-color="#7fe1cb"/></linearGradient><linearGradient id="SVGID_3_" gradientUnits="userSpaceOnUse" x1="251" x2="251" xlink:href="#lg2" y1="101.36" y2="1.281"/><linearGradient id="SVGID_4_" gradientUnits="userSpaceOnUse" x1="251" x2="251" y1="151.396" y2="89.662"><stop offset="0" stop-color="#f4d84a"/><stop offset="1" stop-color="#f9ea9d"/></linearGradient><linearGradient id="SVGID_5_" gradientUnits="userSpaceOnUse" x1="251" x2="251" xlink:href="#lg2" y1="505.205" y2="136.035"/><g><path d="m115.556 313.076-101.204-101.203c-10.291-10.291-10.291-26.977 0-37.268l49.691-49.691c10.291-10.291 26.977-10.291 37.268 0l101.203 101.203c10.291 10.291 10.291 26.977 0 37.268l-49.691 49.691c-10.29 10.291-26.976 10.291-37.267 0z" fill="url(#SVGID_1_)"/><path d="m386.444 313.076 101.203-101.203c10.291-10.291 10.291-26.977 0-37.268l-49.691-49.691c-10.291-10.291-26.977-10.291-37.268 0l-101.203 101.203c-10.291 10.291-10.291 26.977 0 37.268l49.691 49.691c10.291 10.291 26.977 10.291 37.268 0z" fill="url(#SVGID_2_)"/><path d="m365.979 20.337c-26.062-26.062-60.888-21.8-88.227-.716-15.729 12.13-37.761 12.145-53.491.015-27.365-21.102-62.214-25.326-88.241.701-30.834 30.834-20.506 76.654 18.68 107.568 26.869 21.196 71.725 33.276 96.299 25.19 24.573 8.086 69.43-3.994 96.299-25.19 39.187-30.914 49.515-76.734 18.681-107.568z" fill="url(#SVGID_3_)"/><path d="m356.775 166.703c12.64 5.393 27.322.483 34.33-11.338 8.504-14.345 2.39-32.868-12.954-39.4-38.981-16.596-82.121-25.339-127.151-25.339s-88.17 8.743-127.152 25.338c-15.344 6.532-21.458 25.055-12.954 39.4 7.008 11.821 21.69 16.732 34.33 11.338h211.551z" fill="url(#SVGID_4_)"/><path d="m193.468 166.703h23.522l-15.52-72.464c-7.633 1.129-15.176 2.533-22.627 4.18z" fill="#efc42f"/><path d="m285.01 166.703h23.522l14.625-68.285c-7.451-1.647-14.993-3.05-22.627-4.18z" fill="#efc42f"/><path d="m251 145.677c-136.423 0-251 95.363-251 253.723 0 75.557 68.916 100.323 153.929 100.323 12.168 0 24.004-1.436 35.357-4.111 7.697-1.814 15.703-1.919 23.414-.164 25.059 5.701 51.515 5.709 76.606-.001 7.709-1.754 15.713-1.648 23.409.165 11.352 2.676 23.188 4.111 35.356 4.111 85.013 0 153.929-24.766 153.929-100.323 0-158.361-114.578-253.723-251-253.723z" fill="url(#SVGID_5_)"/><path d="m267.736 364.178c-2.484-.878-5.022-1.796-7.557-2.749v-41.748c6.075 1.683 9.649 4.741 9.904 4.965 4.081 3.719 10.406 3.427 14.127-.656 3.72-4.082 3.427-10.407-.656-14.127-.523-.482-9.185-8.277-23.375-10.623v-8.166c0-5.523-4.477-10-10-10s-10 4.477-10 10v8.908c-1.174.273-2.359.574-3.569.938-28.463 8.574-35.636 47.06-15.096 63.17 4.764 3.736 10.655 7.159 18.665 10.756v53.586c-6.762-.604-11.261-2.404-18.766-7.313-4.621-3.023-10.818-1.728-13.843 2.895-3.023 4.622-1.728 10.819 2.895 13.843 11.597 7.586 19.604 9.969 29.714 10.626v9.149c0 5.523 4.477 10 10 10s10-4.477 10-10v-9.982c40.619-8.578 51.581-67.911 7.557-83.472zm-27.557-11.682c-2.355-1.334-4.499-2.714-6.322-4.144-7.212-5.657-4.847-22.242 6.322-27.433zm20 74.25v-44.031c.301.107.587.212.892.32 22.859 8.08 17.118 36.293-.892 43.711z" fill="#fff"/><g><ellipse cx="163.114" cy="252.596" fill="#efb1d2" rx="14.936" ry="12.003"/><ellipse cx="338.886" cy="252.596" fill="#efb1d2" rx="14.936" ry="12.003"/><circle cx="188.721" cy="222.978" fill="#fff" r="29.618"/><circle cx="313.279" cy="222.978" fill="#fff" r="29.618"/><g fill="#353544"><g><circle cx="188.721" cy="222.978" r="17.652"/><circle cx="313.279" cy="222.978" r="17.652"/></g><path d="m251 253.538c-5.248 0-10.495-1.984-14.776-5.954-2.025-1.877-2.145-5.041-.267-7.066 1.877-2.025 5.041-2.145 7.066-.267 4.697 4.354 11.257 4.354 15.954 0 2.024-1.878 5.188-1.758 7.066.267 1.877 2.025 1.758 5.188-.267 7.066-4.281 3.97-9.528 5.954-14.776 5.954z"/></g></g><path d="m337.156 85.814c3.523-10.001-2.563-20.876-12.956-22.975-23.721-4.791-48.176-7.212-73.2-7.212-45.776 0-89.652 8.077-130.609 23.986 2.958 10.696 8.609 21.28 16.671 31.106 35.43-13.177 73.934-20.093 113.938-20.093 22.643 0 44.803 2.223 66.198 6.538 8.551 1.724 17.06-3.123 19.958-11.35z" fill="#36b663"/></g></svg>