<svg id="Capa_1" enable-background="new 0 0 502 502" height="512" viewBox="0 0 502 502" width="512" xmlns="http://www.w3.org/2000/svg" xmlns:xlink="http://www.w3.org/1999/xlink"><linearGradient id="SVGID_1_" gradientUnits="userSpaceOnUse" x1="251" x2="251" y1="456.81" y2="506.816"><stop offset="0" stop-color="#b1cccc"/><stop offset="1" stop-color="#e6cfcf"/></linearGradient><linearGradient id="SVGID_2_" gradientUnits="userSpaceOnUse" x1="251" x2="251" y1="360.829" y2="3.09"><stop offset="0" stop-color="#f4d84a"/><stop offset="1" stop-color="#f9ea9d"/></linearGradient><linearGradient id="SVGID_3_" gradientUnits="userSpaceOnUse" x1="57.758" x2="357.772" y1="403.912" y2="403.912"><stop offset="0" stop-color="#465260"/><stop offset="1" stop-color="#5a708d"/></linearGradient><linearGradient id="SVGID_4_" gradientUnits="userSpaceOnUse" x1="251" x2="251" y1="408.736" y2="360.219"><stop offset="0" stop-color="#bfdbdb"/><stop offset="1" stop-color="#f3dbdb"/></linearGradient><g><ellipse cx="251" cy="457.215" fill="url(#SVGID_1_)" rx="47.737" ry="44.785"/><path d="m334.105 349.106c0-45.941 70.632-72.251 70.632-169.653 0-78.168-68.83-141.535-153.737-141.535s-153.737 63.367-153.737 141.535c0 97.402 70.632 123.711 70.632 169.653z" fill="url(#SVGID_2_)"/><g fill="#efc42f"><path d="m276.192 356.766c-6.352 0-11.5-5.149-11.5-11.5 0-21.536 2.506-40.387 14.738-62.388 3.086-5.55 10.089-7.55 15.639-4.462 5.552 3.086 7.55 10.088 4.463 15.639-9.859 17.733-11.84 32.742-11.84 51.211 0 6.351-5.148 11.5-11.5 11.5z"/><path d="m225.807 356.766c-6.351 0-11.5-5.149-11.5-11.5 0-18.47-1.98-33.479-11.839-51.211-3.086-5.551-1.088-12.553 4.462-15.639 5.552-3.086 12.553-1.088 15.639 4.462 12.231 22 14.738 40.851 14.738 62.388 0 6.351-5.149 11.5-11.5 11.5z"/></g><path d="m334.157 345.266c14.993 0 27.147 12.154 27.147 27.147v32.387c0 30.513-39.132 57.758-110.305 57.758s-110.305-27.244-110.305-57.758v-32.387c0-14.993 12.154-27.147 27.147-27.147z" fill="url(#SVGID_3_)"/><path d="m363.122 409.191h-224.245c-9.985 0-18.08-8.095-18.08-18.08v-5.294c0-9.986 8.095-18.08 18.08-18.08h224.245c9.986 0 18.08 8.095 18.08 18.08v5.294c.001 9.985-8.094 18.08-18.08 18.08z" fill="url(#SVGID_4_)"/><g fill="#efc42f"><path d="m46.709 205.012h-33.199c-6.351 0-11.5-5.149-11.5-11.5s5.149-11.5 11.5-11.5h33.199c6.351 0 11.5 5.149 11.5 11.5s-5.149 11.5-11.5 11.5z"/><path d="m96.735 41.473-21.84-21.841c-4.491-4.491-4.491-11.772 0-16.264 4.492-4.49 11.773-4.491 16.264 0l21.84 21.841c4.491 4.491 4.491 11.773 0 16.264-4.492 4.49-11.773 4.491-16.264 0z"/><path d="m488.49 205.012h-33.2c-6.352 0-11.5-5.149-11.5-11.5s5.148-11.5 11.5-11.5h33.2c6.352 0 11.5 5.149 11.5 11.5s-5.148 11.5-11.5 11.5z"/><path d="m389.001 41.473c-4.491-4.491-4.491-11.773 0-16.264l21.841-21.841c4.492-4.491 11.771-4.491 16.264 0 4.491 4.491 4.491 11.772 0 16.264l-21.841 21.841c-4.492 4.491-11.772 4.491-16.264 0z"/></g><path d="m291.737 409.191h-150.769c1.266 10.139 6.923 19.775 16.696 28h134.073c7.732 0 14-6.268 14-14 0-7.732-6.268-14-14-14z" fill="#3b4a5e"/><g fill="#fffbcc"><path d="m356.569 140.717c-3.46 0-6.824-1.797-8.675-5.01-1.537-2.669-3.233-5.302-5.04-7.826-3.214-4.491-2.18-10.737 2.311-13.952 4.492-3.214 10.737-2.178 13.952 2.312 2.188 3.057 4.242 6.247 6.106 9.483 2.757 4.786 1.112 10.9-3.673 13.657-1.572.906-3.289 1.336-4.981 1.336z"/><path d="m321.552 103.826c-1.903 0-3.826-.542-5.529-1.675-10.367-6.896-21.879-12.038-34.215-15.283-5.341-1.405-8.531-6.874-7.126-12.215s6.876-8.529 12.216-7.126c14.471 3.808 27.996 9.854 40.201 17.973 4.599 3.059 5.847 9.266 2.788 13.864-1.926 2.894-5.101 4.462-8.335 4.462z"/></g><g><path d="m178.051 205.628c0 6.629-6.687 12.003-14.937 12.003-8.249 0-14.936-5.374-14.936-12.003s6.687-12.003 14.936-12.003c8.249-.001 14.937 5.373 14.937 12.003z" fill="#ea9cc5"/><path d="m353.822 205.628c0 6.629-6.687 12.003-14.936 12.003s-14.936-5.374-14.936-12.003 6.687-12.003 14.936-12.003 14.936 5.373 14.936 12.003z" fill="#ea9cc5"/><circle cx="188.721" cy="176.01" fill="#fff" r="29.618"/><path d="m218.339 176.01c0 9.749-7.903 17.652-17.652 17.652s-17.652-7.903-17.652-17.652 7.903-17.652 17.652-17.652c9.749-.001 17.652 7.903 17.652 17.652z" fill="#353544"/><circle cx="313.279" cy="176.01" fill="#fff" r="29.618"/><g fill="#353544"><path d="m342.834 176.01c0 9.749-7.903 17.652-17.652 17.652s-17.652-7.903-17.652-17.652 7.903-17.652 17.652-17.652c9.749-.001 17.652 7.903 17.652 17.652z"/><ellipse cx="251" cy="198.462" rx="13.252" ry="17.352"/></g></g></g></svg>