<svg id="Capa_1" enable-background="new 0 0 502 502" height="512" viewBox="0 0 502 502" width="512" xmlns="http://www.w3.org/2000/svg" xmlns:xlink="http://www.w3.org/1999/xlink"><linearGradient id="lg1"><stop offset="0" stop-color="#68d0e8"/><stop offset="1" stop-color="#a7e7f5"/></linearGradient><linearGradient id="SVGID_1_" gradientUnits="userSpaceOnUse" x1="169.53" x2="169.53" xlink:href="#lg1" y1="76.325" y2="6.928"/><linearGradient id="SVGID_2_" gradientTransform="matrix(-1 0 0 1 78.485 0)" gradientUnits="userSpaceOnUse" x1="-238.758" x2="-238.758" xlink:href="#lg1" y1="76.325" y2="6.928"/><linearGradient id="lg2"><stop offset="0" stop-color="#465260"/><stop offset="1" stop-color="#5a708d"/></linearGradient><linearGradient id="SVGID_3_" gradientUnits="userSpaceOnUse" x1="243.386" x2="243.386" xlink:href="#lg2" y1="59.995" y2="-.179"/><linearGradient id="SVGID_4_" gradientUnits="userSpaceOnUse" x1="243.386" x2="243.386" xlink:href="#lg1" y1="255.898" y2="473.434"/><linearGradient id="SVGID_5_" gradientUnits="userSpaceOnUse" x1="243.386" x2="243.386" y1="330.578" y2="106.693"><stop offset="0" stop-color="#8fd5e6"/><stop offset="1" stop-color="#b0e4f0"/></linearGradient><linearGradient id="SVGID_6_" gradientUnits="userSpaceOnUse" x1="243.386" x2="243.386" y1="342.175" y2="236.513"><stop offset="0" stop-color="#f9ea9d"/><stop offset="1" stop-color="#fffac7"/></linearGradient><linearGradient id="SVGID_7_" gradientUnits="userSpaceOnUse" x1="38.883" x2="447.89" xlink:href="#lg2" y1="459.231" y2="459.231"/><g><path d="m209.762 80.89c0 22.219-18.012 40.232-40.232 40.232s-40.232-18.013-40.232-40.232 11.079-76.182 33.299-76.182c25.602 0 47.165 53.962 47.165 76.182z" fill="url(#SVGID_1_)"/><path d="m277.01 80.89c0 22.219 18.012 40.232 40.232 40.232 22.219 0 40.232-18.013 40.232-40.232s-11.079-76.182-33.298-76.182c-25.603 0-47.166 53.962-47.166 76.182z" fill="url(#SVGID_2_)"/><path d="m268.016 0h-49.26c-12.05 0-21.638 10.102-21.008 22.136l2.421 46.28h86.434l2.421-46.28c.63-12.034-8.958-22.136-21.008-22.136z" fill="url(#SVGID_3_)"/><path d="m398.596 416.463c0-50.8-27.145-173.304-56.711-234.857h-196.998c-29.566 61.553-56.711 184.057-56.711 234.857z" fill="url(#SVGID_4_)"/><path d="m366.447 169.206c0-64.189-33.758-116.224-123.061-116.224-89.302 0-123.061 52.035-123.061 116.224 0 34.921 16.309 66.243 42.124 87.548 4.505 3.718 7.081 9.278 7.081 15.119v22.391c0 25.612 20.763 46.375 46.375 46.375h54.961c25.613 0 46.376-20.763 46.376-46.376v-22.391c0-5.841 2.576-11.401 7.081-15.119 25.815-21.304 42.124-52.626 42.124-87.547z" fill="url(#SVGID_5_)"/><path d="m310.703 340.906c-5.039-5.837-13.357-7.803-20.351-4.555-5.923 2.751-12.523 4.288-19.485 4.288h-54.961c-25.613 0-46.375-20.763-46.375-46.375v-22.391c0-5.876-2.629-11.438-7.157-15.182-13.467-11.132-24.333-24.997-31.647-40.672-4.905 13.593-9.616 28.373-13.998 43.654 5.324 6.82 11.264 13.248 17.802 19.189v15.402c0 44.942 36.433 81.375 81.376 81.375h54.961c12.126 0 23.628-2.658 33.962-7.419 10.553-4.863 13.466-18.518 5.873-27.314z" fill="#15c5d9"/><path d="m243.386 238.862c-31.192 0-58.628 11.17-74.49 28.066.413 1.6.634 3.26.634 4.944v22.391c0 25.612 20.763 46.375 46.375 46.375h54.961c25.613 0 46.376-20.763 46.376-46.376v-22.391c0-1.685.221-3.344.634-4.944-15.862-16.895-43.298-28.065-74.49-28.065z" fill="url(#SVGID_6_)"/><path d="m422.595 502h-358.418c-15.671 0-27.57-14.108-24.926-29.555l4.497-26.275c2.937-17.161 17.814-29.708 35.224-29.708h328.826c17.41 0 32.287 12.547 35.225 29.708l4.497 26.275c2.645 15.447-9.254 29.555-24.925 29.555z" fill="url(#SVGID_7_)"/><g><ellipse cx="155.501" cy="195.112" fill="#ea9cc5" rx="14.936" ry="12.003"/><ellipse cx="331.272" cy="195.112" fill="#ea9cc5" rx="14.936" ry="12.003"/><circle cx="181.107" cy="165.495" fill="#fff" r="29.618"/><circle cx="305.665" cy="165.495" fill="#fff" r="29.618"/><g fill="#353544"><g><circle cx="181.107" cy="165.495" r="17.652"/><circle cx="305.665" cy="165.495" r="17.652"/></g><path d="m243.386 300.612c-5.248 0-10.494-1.984-14.775-5.954-2.025-1.877-2.145-5.041-.267-7.066 1.876-2.025 5.042-2.144 7.065-.267 4.696 4.355 11.258 4.354 15.954 0 2.024-1.876 5.189-1.758 7.066.267s1.758 5.189-.268 7.066c-4.279 3.969-9.528 5.954-14.775 5.954z"/></g></g><path d="m445.68 237.454c-23.674 0-42.934-19.26-42.934-42.933 0-23.674 19.26-42.934 42.934-42.934s42.934 19.26 42.934 42.934c-.001 23.673-19.26 42.933-42.934 42.933zm0-62.867c-10.991 0-19.934 8.942-19.934 19.934 0 10.991 8.942 19.933 19.934 19.933 10.991 0 19.934-8.942 19.934-19.933-.001-10.992-8.943-19.934-19.934-19.934z" fill="#b6c6d9"/><path d="m362.27 315.146c-4.491-4.491-4.491-11.773 0-16.264l40.335-40.335c4.49-4.491 11.771-4.491 16.264 0 4.491 4.491 4.491 11.772 0 16.264l-40.335 40.335c-4.49 4.49-11.772 4.491-16.264 0z" fill="#e05467"/><path d="m63.356 205.116 14.074-14.074c4.491-4.491 4.491-11.773 0-16.264-4.492-4.491-11.771-4.491-16.264 0l-14.074 14.074-14.074-14.074c-4.492-4.491-11.771-4.491-16.264 0-4.491 4.491-4.491 11.772 0 16.264l14.074 14.074-14.074 14.074c-4.491 4.491-4.491 11.772 0 16.264 4.492 4.491 11.771 4.491 16.264 0l14.074-14.074 14.074 14.074c4.492 4.491 11.771 4.491 16.264 0 4.491-4.491 4.491-11.772 0-16.264z" fill="#b6c6d9"/><g fill="#e05467"><path d="m74.224 293.346h-33.131c-6.352 0-11.5-5.149-11.5-11.5s5.148-11.5 11.5-11.5h33.131c6.352 0 11.5 5.149 11.5 11.5s-5.149 11.5-11.5 11.5z"/><path d="m117.056 347.387h-45.832c-6.352 0-11.5-5.149-11.5-11.5s5.148-11.5 11.5-11.5h45.832c6.352 0 11.5 5.149 11.5 11.5s-5.149 11.5-11.5 11.5z"/></g><g fill="#c9f5fa"><path d="m321.519 115.736c-2.775 0-5.536-1.148-7.514-3.396-1.988-2.261-4.185-4.392-6.528-6.333-4.253-3.523-4.846-9.827-1.322-14.08 3.523-4.253 9.825-4.846 14.08-1.322 3.151 2.61 6.108 5.48 8.79 8.528 3.646 4.147 3.241 10.466-.906 14.113-1.9 1.669-4.256 2.49-6.6 2.49z"/><path d="m276.09 91.122c-.688 0-1.387-.071-2.086-.22-9.128-1.938-19.43-2.92-30.618-2.92-2.792 0-5.561.061-8.228.18-5.509.224-10.19-4.025-10.438-9.543-.247-5.518 4.025-10.19 9.543-10.438 2.964-.132 6.033-.2 9.122-.2 12.582 0 24.28 1.129 34.771 3.356 5.403 1.147 8.853 6.457 7.706 11.859-.998 4.703-5.15 7.926-9.772 7.926z"/></g></g></svg>