<svg id="Capa_1" enable-background="new 0 0 502 502" height="512" viewBox="0 0 502 502" width="512" xmlns="http://www.w3.org/2000/svg" xmlns:xlink="http://www.w3.org/1999/xlink"><linearGradient id="SVGID_1_" gradientUnits="userSpaceOnUse" x1="251" x2="251" y1="435.293" y2="13.433"><stop offset="0" stop-color="#bfdbdb"/><stop offset="1" stop-color="#f3dbdb"/></linearGradient><linearGradient id="lg1"><stop offset="0" stop-color="#465260"/><stop offset="1" stop-color="#5a708d"/></linearGradient><linearGradient id="SVGID_2_" gradientUnits="userSpaceOnUse" x1="251" x2="251" xlink:href="#lg1" y1="115.375" y2="-21.161"/><linearGradient id="SVGID_3_" gradientUnits="userSpaceOnUse" x1="381.808" x2="381.808" xlink:href="#lg1" y1="385.011" y2="491.502"/><linearGradient id="SVGID_4_" gradientUnits="userSpaceOnUse" x1="374.992" x2="374.992" xlink:href="#lg1" y1="228.268" y2="431.321"/><linearGradient id="SVGID_5_" gradientUnits="userSpaceOnUse" x1="132.729" x2="132.729" y1="346.787" y2="135.48"><stop offset="0" stop-color="#ec6476"/><stop offset="1" stop-color="#ec909c"/></linearGradient><g><path d="m447.894 421.113h-393.788c-29.882 0-54.106-24.223-54.106-54.105v-263.561l251-30.917 251 30.917v263.561c0 29.882-24.224 54.105-54.106 54.105z" fill="url(#SVGID_1_)"/><path d="m262.58 299.89c9.665 0 17.5 7.835 17.5 17.5v103.724h-35v-103.724c0-9.665 7.835-17.5 17.5-17.5z" fill="#a6b4c4"/><path d="m448.443 0h-394.886c-29.579 0-53.557 23.978-53.557 53.557v49.89h502v-49.89c0-29.579-23.978-53.557-53.557-53.557z" fill="url(#SVGID_2_)"/><ellipse cx="62.377" cy="51.724" fill="#e05467" rx="16.204" ry="16.204" transform="matrix(.973 -.23 .23 .973 -10.215 15.715)"/><ellipse cx="116.427" cy="51.724" fill="#efc42f" rx="16.204" ry="16.204" transform="matrix(.707 -.707 .707 .707 -2.474 97.476)"/><ellipse cx="170.477" cy="51.724" fill="#36b663" rx="16.204" ry="16.204" transform="matrix(.383 -.924 .924 .383 57.452 189.43)"/><g><path d="m390.58 351.418-65.102 26.966 46.007 111.072c4.293 10.364 16.174 15.285 26.538 10.992l27.571-11.42c10.364-4.293 15.285-16.174 10.992-26.538z" fill="url(#SVGID_3_)"/><path d="m463.605 360.242-122.705-122.705c-22.444-22.444-60.82-6.548-60.82 25.192v173.532c0 19.029 23.007 28.559 36.462 15.103l33.861-33.861c13.317-13.317 31.378-20.798 50.211-20.798h47.887c19.03-.001 28.56-23.008 15.104-36.463z" fill="url(#SVGID_4_)"/></g><path d="m140.743 164.072 17.886-13.268c8.161-6.054 19.83-1.221 21.32 8.831l3.265 22.029c.869 5.862 5.472 10.465 11.333 11.334l22.029 3.265c10.051 1.49 14.885 13.159 8.831 21.32l-13.268 17.886c-3.531 4.759-3.531 11.269 0 16.028l13.268 17.886c6.054 8.161 1.22 19.83-8.831 21.32l-22.029 3.265c-5.862.869-10.464 5.472-11.333 11.333l-3.265 22.029c-1.49 10.051-13.159 14.885-21.32 8.831l-17.886-13.268c-4.759-3.53-11.269-3.53-16.028 0l-17.885 13.267c-8.161 6.054-19.83 1.22-21.32-8.831l-3.265-22.029c-.869-5.862-5.472-10.465-11.333-11.333l-22.029-3.265c-10.051-1.49-14.885-13.159-8.831-21.32l13.268-17.886c3.531-4.759 3.531-11.269 0-16.028l-13.268-17.886c-6.054-8.161-1.22-19.83 8.831-21.32l22.029-3.265c5.862-.869 10.465-5.472 11.333-11.334l3.265-22.029c1.49-10.051 13.159-14.885 21.32-8.831l17.886 13.268c4.759 3.532 11.268 3.532 16.027.001z" fill="url(#SVGID_5_)"/><path d="m158.786 253.482h-52.113c-5.523 0-10-4.477-10-10s4.477-10 10-10h52.113c5.523 0 10 4.477 10 10s-4.477 10-10 10z" fill="#e05467"/><g><ellipse cx="278.158" cy="192.561" fill="#ea9cc5" rx="14.925" ry="11.994"/><ellipse cx="453.789" cy="192.561" fill="#ea9cc5" rx="14.925" ry="11.994"/><ellipse cx="428.203" cy="163.004" fill="#fff" rx="29.557" ry="29.557" transform="matrix(.16 -.987 .987 .16 198.713 559.567)"/><path d="m410.631 164.451c.755 9.046 8.331 16.153 17.572 16.153s16.817-7.108 17.572-16.153z" fill="#353544"/><path d="m428.203 133.447c-16.324 0-29.557 13.233-29.557 29.557 0 .486.014.968.037 1.447h59.04c.023-.48.037-.962.037-1.447 0-16.324-13.233-29.557-29.557-29.557z" fill="#916fce"/><ellipse cx="303.745" cy="163.004" fill="#fff" rx="29.557" ry="29.557" transform="matrix(.16 -.987 .987 .16 94.191 436.716)"/><path d="m286.173 164.451c.755 9.046 8.331 16.153 17.572 16.153s16.817-7.108 17.572-16.153z" fill="#353544"/><path d="m303.745 133.447c-16.324 0-29.557 13.233-29.557 29.557 0 .486.014.968.037 1.447h59.04c.023-.48.037-.962.037-1.447 0-16.324-13.234-29.557-29.557-29.557z" fill="#916fce"/><path d="m354.608 196.009c-2.015 0-4.024-.807-5.502-2.401-2.816-3.038-2.637-7.783.401-10.599 9.541-8.846 23.391-8.846 32.933 0 3.038 2.816 3.217 7.562.401 10.599s-7.561 3.217-10.599.401c-3.749-3.477-8.788-3.477-12.537 0-1.443 1.338-3.272 2-5.097 2z" fill="#353544"/></g></g></svg>