<svg id="Capa_1" enable-background="new 0 0 502 502" height="512" viewBox="0 0 502 502" width="512" xmlns="http://www.w3.org/2000/svg" xmlns:xlink="http://www.w3.org/1999/xlink"><linearGradient id="lg1"><stop offset="0" stop-color="#68d0e8"/><stop offset="1" stop-color="#a7e7f5"/></linearGradient><linearGradient id="SVGID_1_" gradientUnits="userSpaceOnUse" x1="442.46" x2="442.46" xlink:href="#lg1" y1="39.359" y2="210.042"/><linearGradient id="SVGID_2_" gradientUnits="userSpaceOnUse" x1="59.541" x2="59.541" xlink:href="#lg1" y1="39.359" y2="210.042"/><linearGradient id="SVGID_3_" gradientUnits="userSpaceOnUse" x1="125.5" x2="125.5" xlink:href="#lg1" y1="194.853" y2="395.922"/><linearGradient id="SVGID_4_" gradientUnits="userSpaceOnUse" x1="376.5" x2="376.5" xlink:href="#lg1" y1="194.853" y2="395.922"/><linearGradient id="lg2"><stop offset="0" stop-color="#4ba7e6"/><stop offset="1" stop-color="#94ccf0"/></linearGradient><linearGradient id="SVGID_5_" gradientUnits="userSpaceOnUse" x1="176.126" x2="176.126" xlink:href="#lg2" y1="34.702" y2="200.399"/><linearGradient id="SVGID_6_" gradientUnits="userSpaceOnUse" x1="325.874" x2="325.874" xlink:href="#lg2" y1="34.702" y2="200.399"/><linearGradient id="SVGID_7_" gradientUnits="userSpaceOnUse" x1="251" x2="251" xlink:href="#lg1" y1="-88.581" y2="193.071"/><linearGradient id="SVGID_8_" gradientUnits="userSpaceOnUse" x1="251" x2="251" xlink:href="#lg2" y1="189.334" y2="425.381"/><g><path d="m382.919 57.489c7.441 3.505 14.296 8.289 20.223 14.216l77.778 77.778c14.053 14.053 21.08 32.472 21.08 50.891l-119.081 14.943z" fill="url(#SVGID_1_)"/><path d="m119.081 57.489c-7.441 3.505-14.296 8.289-20.223 14.216l-77.778 77.778c-14.053 14.054-21.08 32.472-21.08 50.891l119.081 14.943z" fill="url(#SVGID_2_)"/><path d="m101.251 200.374h-101.251c0 18.419 7.027 36.838 21.08 50.891l179.029 179.029c14.053 14.053 32.472 21.08 50.891 21.08v-125.5z" fill="url(#SVGID_3_)"/><path d="m400.749 200.374h101.251c0 18.419-7.027 36.838-21.08 50.891l-179.029 179.03c-14.053 14.053-32.472 21.08-50.891 21.08v-125.5z" fill="url(#SVGID_4_)"/><path d="m101.251 200.374 148.927-43.605.822-106.143h-101.251c-10.706 0-21.164 2.387-30.668 6.863z" fill="url(#SVGID_5_)"/><path d="m400.749 200.374-148.927-43.605-.822-106.143h101.251c10.706 0 21.164 2.387 30.668 6.863z" fill="url(#SVGID_6_)"/><path d="m101.251 200.374 149.749-149.748 149.749 149.748z" fill="url(#SVGID_7_)"/><path d="m101.251 200.374 149.749 251 149.749-251z" fill="url(#SVGID_8_)"/><g><ellipse cx="163.114" cy="162.683" fill="#ea9cc5" rx="14.936" ry="12.003"/><ellipse cx="338.886" cy="162.683" fill="#ea9cc5" rx="14.936" ry="12.003"/><path d="m188.721 137.031c7.183 0 13.813 1.589 19.159 4.273 4.544 2.281 9.962-.801 10.365-5.87.113-1.423.125-2.875.029-4.348-.991-15.146-13.602-27.24-28.775-27.629-16.713-.429-30.396 12.992-30.396 29.608 0 .843.036 1.678.105 2.503.422 5.01 5.857 7.994 10.349 5.738 5.348-2.685 11.979-4.275 19.164-4.275z" fill="#fff"/><path d="m251 172.869c-6.447 0-12.894-2.155-18.273-6.465-4.989-3.997-5.794-11.282-1.797-16.271 3.997-4.99 11.282-5.793 16.271-1.796 2.237 1.792 5.361 1.792 7.598 0 4.988-3.997 12.273-3.193 16.271 1.796 3.997 4.989 3.193 12.274-1.797 16.271-5.379 4.31-11.826 6.465-18.273 6.465z" fill="#353544"/><path d="m188.721 137.031c5.926 0 11.473 1.082 16.237 2.967.911-2.129 1.415-4.47 1.415-6.933 0-9.749-7.903-17.653-17.652-17.653s-17.652 7.903-17.652 17.653c0 2.463.504 4.803 1.415 6.933 4.764-1.885 10.312-2.967 16.237-2.967z" fill="#353544"/><path d="m313.279 137.031c7.183 0 13.813 1.589 19.158 4.273 4.544 2.281 9.962-.801 10.365-5.87.113-1.423.126-2.875.029-4.348-.991-15.146-13.602-27.24-28.775-27.629-16.713-.429-30.396 12.992-30.396 29.608 0 .843.035 1.678.105 2.503.422 5.01 5.856 7.994 10.349 5.738 5.348-2.685 11.98-4.275 19.165-4.275z" fill="#fff"/><path d="m313.279 137.031c5.926 0 11.473 1.082 16.237 2.967.911-2.129 1.415-4.47 1.415-6.933 0-9.749-7.903-17.653-17.652-17.653s-17.652 7.903-17.652 17.653c0 2.463.504 4.803 1.415 6.933 4.763-1.885 10.311-2.967 16.237-2.967z" fill="#353544"/></g><g fill="#c9f5fa"><path d="m388.537 311.468c-2.559 0-5.119-.976-7.071-2.929-3.905-3.905-3.905-10.237 0-14.143l4.699-4.699c3.905-3.905 10.237-3.905 14.143 0 3.905 3.905 3.905 10.237 0 14.143l-4.699 4.699c-1.953 1.953-4.513 2.929-7.072 2.929z"/><path d="m422.367 277.638c-2.559 0-5.119-.976-7.071-2.929-3.905-3.905-3.905-10.237 0-14.143l24.047-24.047c3.905-3.905 10.237-3.905 14.143 0 3.905 3.905 3.905 10.237 0 14.143l-24.047 24.047c-1.954 1.953-4.513 2.929-7.072 2.929z"/></g></g></svg>