<svg id="Capa_1" enable-background="new 0 0 502 502" height="512" viewBox="0 0 502 502" width="512" xmlns="http://www.w3.org/2000/svg" xmlns:xlink="http://www.w3.org/1999/xlink"><linearGradient id="SVGID_1_" gradientUnits="userSpaceOnUse" x1="207.401" x2="207.401" y1="356.414" y2="425.602"><stop offset="0" stop-color="#b1cccc"/><stop offset="1" stop-color="#e6cfcf"/></linearGradient><linearGradient id="lg1"><stop offset="0" stop-color="#465260"/><stop offset="1" stop-color="#5a708d"/></linearGradient><linearGradient id="SVGID_2_" gradientTransform="matrix(1 0 0 -.331 0 933.18)" gradientUnits="userSpaceOnUse" x1="207.401" x2="207.401" xlink:href="#lg1" y1="1359.649" y2="1537.568"/><linearGradient id="SVGID_3_" gradientTransform="matrix(1 0 0 -1 0 1080.685)" gradientUnits="userSpaceOnUse" x1="207.401" x2="207.401" y1="712.918" y2="841.18"><stop offset="0" stop-color="#bfdbdb"/><stop offset="1" stop-color="#f3dbdb"/></linearGradient><linearGradient id="SVGID_4_" gradientUnits="userSpaceOnUse" x1="207.401" x2="207.401" xlink:href="#lg1" y1="312.487" y2="30.994"/><linearGradient id="SVGID_5_" gradientUnits="userSpaceOnUse" x1="207.401" x2="207.401" y1="321.833" y2="61.968"><stop offset="0" stop-color="#68d0e8"/><stop offset="1" stop-color="#a7e7f5"/></linearGradient><linearGradient id="SVGID_6_" gradientUnits="userSpaceOnUse" x1="414.802" x2="414.802" xlink:href="#lg1" y1="123.651" y2="399.296"/><linearGradient id="SVGID_7_" gradientUnits="userSpaceOnUse" x1="414.802" x2="414.802" y1="373.452" y2="169.582"><stop offset="0" stop-color="#f4d84a"/><stop offset="1" stop-color="#f9ea9d"/></linearGradient><linearGradient id="SVGID_8_" gradientUnits="userSpaceOnUse" x1="387.013" x2="387.013" y1="272.118" y2="236.918"><stop offset="0" stop-color="#ec6476"/><stop offset="1" stop-color="#ec909c"/></linearGradient><linearGradient id="SVGID_9_" gradientTransform="matrix(-1 0 0 1 829.604 0)" gradientUnits="userSpaceOnUse" x1="387.013" x2="387.013" y1="272.118" y2="236.918"><stop offset="0" stop-color="#64cd89"/><stop offset=".2218" stop-color="#66cf8e"/><stop offset=".5016" stop-color="#6dd39e"/><stop offset=".8113" stop-color="#77dbb8"/><stop offset="1" stop-color="#7fe1cb"/></linearGradient><g><path d="m132.468 346.14h149.866v78.575h-149.866z" fill="url(#SVGID_1_)"/><path d="m303.437 477.89h-192.072c-10.989 0-19.898-8.909-19.898-19.898v-13.379c0-10.989 8.909-19.898 19.898-19.898h192.071c10.989 0 19.898 8.909 19.898 19.898v13.379c.001 10.989-8.908 19.898-19.897 19.898z" fill="url(#SVGID_2_)"/><path d="m0 276.885v19.78c0 32.461 26.315 58.776 58.776 58.776h297.25c32.461 0 58.776-26.315 58.776-58.776v-19.78l-207.401-37.36z" fill="url(#SVGID_3_)"/><path d="m356.026 24.11h-297.25c-32.461 0-58.776 26.315-58.776 58.776v193.999h40.613l166.788-9.249 166.788 9.249h40.613v-193.999c0-32.461-26.315-58.776-58.776-58.776z" fill="url(#SVGID_4_)"/><path d="m374.189 276.885h-333.576v-195.809c0-9.032 7.322-16.353 16.353-16.353h300.869c9.032 0 16.353 7.322 16.353 16.353v195.809z" fill="url(#SVGID_5_)"/><path d="m292.604 344.113c0 3.852.302 7.635.877 11.328h62.544c32.461 0 58.776-26.315 58.776-58.776v-19.78l-87.198-5.242-35 5.242v67.228z" fill="#b6c6d9"/><path d="m334.668 153.639c-7.164-8.988-20.914-8.75-27.744.495-8.995 12.176-14.32 27.22-14.32 43.487v79.264h35v-79.264c0-8.484 2.768-16.333 7.448-22.692 4.693-6.377 4.551-15.098-.384-21.29z" fill="#15c5d9"/><path d="m365.977 382.486c-21.159 0-38.373-17.214-38.373-38.374v-146.491c0-21.159 17.214-38.374 38.373-38.374h97.649c21.16 0 38.374 17.214 38.374 38.374v146.491c0 21.159-17.214 38.374-38.374 38.374z" fill="url(#SVGID_6_)"/><path d="m463.626 176.653h-14.282c-3.436 0-6.222 2.786-6.222 6.222 0 4.66-3.778 8.438-8.439 8.438h-39.763c-4.66 0-8.439-3.778-8.439-8.438 0-3.436-2.785-6.222-6.222-6.222h-14.282c-11.58 0-20.968 9.388-20.968 20.968v146.491c0 11.58 9.388 20.968 20.968 20.968h97.648c11.581 0 20.968-9.388 20.968-20.968v-146.49c.001-11.581-9.386-20.969-20.967-20.969z" fill="url(#SVGID_7_)"/><path d="m392.412 345.065h-10.797c-6.352 0-11.5-5.149-11.5-11.5s5.148-11.5 11.5-11.5h10.797c6.352 0 11.5 5.149 11.5 11.5s-5.148 11.5-11.5 11.5z" fill="#efc42f"/><path d="m447.989 345.065h-10.797c-6.352 0-11.5-5.149-11.5-11.5s5.148-11.5 11.5-11.5h10.797c6.352 0 11.5 5.149 11.5 11.5s-5.148 11.5-11.5 11.5z" fill="#efc42f"/><path d="m394.296 271.643h-14.565c-6.152 0-11.139-4.987-11.139-11.139v-14.565c0-6.152 4.987-11.139 11.139-11.139h14.565c6.152 0 11.139 4.987 11.139 11.139v14.565c0 6.152-4.987 11.139-11.139 11.139z" fill="url(#SVGID_8_)"/><path d="m435.308 271.643h14.565c6.152 0 11.139-4.987 11.139-11.139v-14.565c0-6.152-4.987-11.139-11.139-11.139h-14.565c-6.152 0-11.139 4.987-11.139 11.139v14.565c0 6.152 4.987 11.139 11.139 11.139z" fill="url(#SVGID_9_)"/><g fill="#c9f5fa"><path d="m64.218 131.573c-5.523 0-10-4.477-10-10v-35.657c0-5.523 4.477-10 10-10s10 4.477 10 10v35.657c0 5.523-4.477 10-10 10z"/><path d="m64.218 181.202c-5.523 0-10-4.477-10-10v-8.822c0-5.523 4.477-10 10-10s10 4.477 10 10v8.822c0 5.523-4.477 10-10 10z"/></g><g><ellipse cx="119.516" cy="143.189" fill="#ea9cc5" rx="14.936" ry="12.003"/><ellipse cx="295.287" cy="143.189" fill="#ea9cc5" rx="14.936" ry="12.003"/><circle cx="145.122" cy="113.571" fill="#fff" r="29.618"/><circle cx="269.68" cy="113.571" fill="#fff" r="29.618"/><path d="m154.905 124.002c-2.647 0-5.214-1.404-6.579-3.889-.94-1.71-2.554-1.895-3.204-1.895s-2.264.185-3.204 1.895c-1.995 3.629-6.556 4.955-10.185 2.959-3.63-1.995-4.955-6.556-2.96-10.185 3.278-5.964 9.543-9.669 16.349-9.669 6.805 0 13.07 3.705 16.348 9.669 1.996 3.629.67 8.19-2.959 10.185-1.145.631-2.385.93-3.606.93z" fill="#353544"/><path d="m279.463 124.002c-2.647 0-5.214-1.404-6.579-3.888-.94-1.711-2.554-1.895-3.204-1.895s-2.264.185-3.204 1.895c-1.995 3.63-6.555 4.955-10.186 2.959-3.63-1.996-4.955-6.556-2.959-10.186 3.278-5.964 9.543-9.668 16.349-9.668s13.07 3.705 16.349 9.668c1.995 3.63.671 8.19-2.959 10.186-1.147.63-2.385.929-3.607.929z" fill="#353544"/><g><path d="m219.072 153.375h-23.342c-6.508 0-11.784-5.276-11.784-11.784 0-6.508 5.276-11.784 11.784-11.784h23.342c6.508 0 11.784 5.276 11.784 11.784 0 6.508-5.276 11.784-11.784 11.784z" fill="#353544"/></g></g></g></svg>