<svg id="Capa_1" enable-background="new 0 0 502 502" height="512" viewBox="0 0 502 502" width="512" xmlns="http://www.w3.org/2000/svg" xmlns:xlink="http://www.w3.org/1999/xlink"><linearGradient id="SVGID_1_" gradientUnits="userSpaceOnUse" x1="194.664" x2="194.664" y1="200.476" y2="7.668"><stop offset="0" stop-color="#f4c128"/><stop offset="1" stop-color="#f9dd89"/></linearGradient><linearGradient id="SVGID_2_" gradientUnits="userSpaceOnUse" x1="94.135" x2="94.135" y1="540.645" y2="191.201"><stop offset="0" stop-color="#8b71c7"/><stop offset="1" stop-color="#a891d9"/></linearGradient><linearGradient id="lg1"><stop offset="0" stop-color="#f4d84a"/><stop offset="1" stop-color="#f9ea9d"/></linearGradient><linearGradient id="SVGID_3_" gradientUnits="userSpaceOnUse" x1="308.022" x2="308.022" xlink:href="#lg1" y1="206.895" y2="10.751"/><linearGradient id="SVGID_4_" gradientUnits="userSpaceOnUse" x1="308.022" x2="308.022" y1="534.282" y2="169.197"><stop offset="0" stop-color="#a98bdb"/><stop offset="1" stop-color="#c3afe8"/></linearGradient><linearGradient id="SVGID_5_" gradientUnits="userSpaceOnUse" x1="308.214" x2="308.214" xlink:href="#lg1" y1="489.436" y2="349.062"/><g><path d="m305.084 188.426h-53.741l-4.826-36.07 4.826-41.936c0-31.253-25.426-56.679-56.68-56.679-31.252 0-56.679 25.426-56.679 56.679v78.006h-53.74v-78.006c0-60.886 49.534-110.42 110.419-110.42s110.42 49.534 110.42 110.42v78.006z" fill="url(#SVGID_1_)"/><path d="m107.693 74.807c-7.018-5.297-17.254-1.914-19.57 6.568-2.528 9.258-3.879 18.997-3.879 29.046v78.006h25v-78.007c0-7.693 1.031-15.148 2.952-22.242 1.347-4.974-.39-10.268-4.503-13.371z" fill="#fcb500"/><path d="m51.532 502h114.044l19.292-313.574h-114.044c-12.344 0-22.906 8.863-25.049 21.019l-41.629 236.084c-5.194 29.461 17.47 56.471 47.386 56.471z" fill="url(#SVGID_2_)"/><path d="m279.889 79.459c-5.398-6.583-15.692-5.915-20.159 1.333-5.316 8.625-8.386 18.773-8.386 29.628v78.006h25v-78.006c0-6.062 1.714-11.727 4.681-16.544 2.776-4.509 2.222-10.322-1.136-14.417z" fill="#fcb500"/><path d="m418.442 188.426h-53.741v-78.006c0-31.253-25.426-56.679-56.68-56.679-31.253 0-56.679 25.426-56.679 56.679v78.006h-53.741v-78.006c.001-60.886 49.535-110.42 110.421-110.42s110.42 49.534 110.42 110.42z" fill="url(#SVGID_3_)"/><path d="m497.853 445.528-41.628-236.084c-2.143-12.156-12.706-21.019-25.049-21.019h-246.308c-12.344 0-22.906 8.863-25.049 21.019l-41.629 236.084c-5.195 29.462 17.47 56.472 47.386 56.472h76.208l66.43-15.922 66.43 15.922h75.824c29.916 0 52.58-27.01 47.385-56.472z" fill="url(#SVGID_4_)"/><g><ellipse cx="220.328" cy="311.909" fill="#efb1d2" rx="14.936" ry="12.003"/><ellipse cx="396.099" cy="311.909" fill="#efb1d2" rx="14.936" ry="12.003"/><path d="m245.935 286.257c7.183 0 13.813 1.589 19.159 4.273 4.544 2.281 9.962-.801 10.365-5.87.113-1.423.125-2.875.029-4.348-.991-15.146-13.602-27.24-28.775-27.629-16.713-.428-30.396 12.992-30.396 29.608 0 .843.035 1.678.105 2.503.422 5.01 5.857 7.995 10.349 5.738 5.348-2.684 11.979-4.275 19.164-4.275z" fill="#fff"/><path d="m308.214 322.096c-6.447 0-12.894-2.155-18.273-6.465-4.989-3.997-5.794-11.282-1.797-16.271 3.997-4.99 11.282-5.793 16.271-1.797 2.237 1.792 5.361 1.792 7.598 0 4.988-3.997 12.273-3.193 16.271 1.797 3.997 4.989 3.193 12.274-1.797 16.271-5.379 4.31-11.826 6.465-18.273 6.465z" fill="#353544"/><path d="m245.935 286.257c5.926 0 11.473 1.082 16.237 2.967.911-2.129 1.415-4.47 1.415-6.933 0-9.749-7.903-17.652-17.652-17.652s-17.652 7.903-17.652 17.652c0 2.463.504 4.803 1.415 6.933 4.764-1.885 10.312-2.967 16.237-2.967z" fill="#353544"/><path d="m370.493 286.257c7.183 0 13.813 1.589 19.158 4.273 4.544 2.281 9.962-.801 10.365-5.87.113-1.423.125-2.875.029-4.348-.991-15.146-13.602-27.24-28.775-27.629-16.713-.428-30.396 12.992-30.396 29.608 0 .843.035 1.678.105 2.503.422 5.01 5.857 7.995 10.349 5.738 5.348-2.684 11.98-4.275 19.165-4.275z" fill="#fff"/><path d="m370.493 286.257c5.926 0 11.473 1.082 16.237 2.967.911-2.129 1.415-4.47 1.415-6.933 0-9.749-7.903-17.652-17.652-17.652s-17.652 7.903-17.652 17.652c0 2.463.504 4.803 1.415 6.933 4.763-1.885 10.311-2.967 16.237-2.967z" fill="#353544"/></g><path d="m375.16 486.901c.154-4.498 1.572-8.862 4.091-12.592l16.743-24.783c8.729-12.92 2.983-30.604-11.673-35.926l-28.113-10.209c-4.231-1.536-7.943-4.233-10.711-7.782l-18.397-23.582c-9.59-12.294-28.184-12.294-37.775 0l-18.396 23.582c-2.768 3.549-6.48 6.246-10.711 7.782l-28.112 10.209c-14.656 5.322-20.402 23.006-11.673 35.926l16.743 24.783c2.52 3.729 3.938 8.093 4.091 12.592l.517 15.099h132.861z" fill="url(#SVGID_5_)"/><path d="m322.009 457.983h-27.59c-6.351 0-11.5-5.149-11.5-11.5s5.149-11.5 11.5-11.5h27.59c6.352 0 11.5 5.149 11.5 11.5s-5.149 11.5-11.5 11.5z" fill="#efc42f"/><g fill="#dac0f5"><path d="m458.293 480.242c-3.73 0-7.311-2.097-9.028-5.687-2.383-4.982-.276-10.953 4.706-13.336 3.275-1.567 5.122-5.163 4.491-8.744l-5.319-30.17c-.959-5.439 2.672-10.626 8.111-11.585 5.438-.956 10.625 2.674 11.584 8.112l5.319 30.169c2.186 12.389-4.212 24.833-15.556 30.259-1.392.667-2.861.982-4.308.982z"/><path d="m455.977 390.861c-4.762 0-8.98-3.413-9.836-8.265l-2.421-13.727c-.96-5.439 2.672-10.625 8.11-11.585 5.447-.958 10.626 2.673 11.585 8.111l2.421 13.726c.96 5.439-2.672 10.626-8.11 11.585-.588.106-1.173.155-1.749.155z"/></g></g></svg>