<svg id="Capa_1" enable-background="new 0 0 502 502" height="512" viewBox="0 0 502 502" width="512" xmlns="http://www.w3.org/2000/svg" xmlns:xlink="http://www.w3.org/1999/xlink"><linearGradient id="SVGID_1_" gradientUnits="userSpaceOnUse" x1="237.063" x2="237.063" y1="432.241" y2="199.619"><stop offset="0" stop-color="#bfdbdb"/><stop offset="1" stop-color="#f3dbdb"/></linearGradient><linearGradient id="SVGID_2_" gradientTransform="matrix(0 -1 1 0 50 852)" gradientUnits="userSpaceOnUse" x1="433.266" x2="616.883" y1="187.063" y2="187.063"><stop offset="0" stop-color="#4ba7e6"/><stop offset="1" stop-color="#94ccf0"/></linearGradient><linearGradient id="SVGID_3_" gradientTransform="matrix(0 -1 1 0 50 852)" gradientUnits="userSpaceOnUse" x1="487.045" x2="563.105" y1="187.063" y2="187.063"><stop offset="0" stop-color="#465260"/><stop offset="1" stop-color="#5a708d"/></linearGradient><linearGradient id="SVGID_4_" gradientUnits="userSpaceOnUse" x1="62.492" x2="62.492" y1="274.298" y2="137.462"><stop offset="0" stop-color="#ec6476"/><stop offset="1" stop-color="#ec909c"/></linearGradient><linearGradient id="SVGID_5_" gradientUnits="userSpaceOnUse" x1="368.266" x2="368.266" y1="244.931" y2="302.041"><stop offset="0" stop-color="#43b36b"/><stop offset=".196" stop-color="#46b570"/><stop offset=".4433" stop-color="#4dbc80"/><stop offset=".7181" stop-color="#5ac79a"/><stop offset="1" stop-color="#6ad6bc"/></linearGradient><linearGradient id="SVGID_6_" gradientUnits="userSpaceOnUse" x1="416.838" x2="416.838" y1="176.734" y2="283.442"><stop offset="0" stop-color="#64cd89"/><stop offset=".2218" stop-color="#66cf8e"/><stop offset=".5016" stop-color="#6dd39e"/><stop offset=".8113" stop-color="#77dbb8"/><stop offset="1" stop-color="#7fe1cb"/></linearGradient><linearGradient id="SVGID_7_" gradientUnits="userSpaceOnUse" x1="237.063" x2="237.063" y1="195.144" y2="71.123"><stop offset="0" stop-color="#f4d84a"/><stop offset="1" stop-color="#f9ea9d"/></linearGradient><g><path d="m237.063 418.734c-60.931 0-109.843-24.05-162.302-71.484-12.017-10.866-12.017-29.783 0-40.649 52.459-47.434 101.371-71.484 162.302-71.484s109.843 24.05 162.302 71.484c12.017 10.866 12.017 29.783 0 40.649-52.459 47.434-101.371 71.484-162.302 71.484z" fill="url(#SVGID_1_)"/><path d="m145.254 326.925c0-1.555.039-3.101.117-4.636.38-7.521-4.991-14.113-12.41-15.405-8.819-1.535-17.093 4.94-17.55 13.88-.104 2.041-.157 4.095-.157 6.161 0 23.456 6.671 45.38 18.205 63.988 31.615 18.054 64.102 27.349 100.935 27.78-49.47-1.413-89.14-41.956-89.14-91.768z" fill="#b6c6d9"/><circle cx="237.063" cy="326.925" fill="url(#SVGID_2_)" r="91.808"/><circle cx="237.063" cy="326.925" fill="url(#SVGID_3_)" r="38.03"/><path d="m.192 199.653c-2.185-21.945 14.574-41.634 36.625-41.307 10.092.15 19.181 4.423 25.675 11.201 6.494-6.778 15.583-11.051 25.675-11.201 22.051-.327 38.81 19.361 36.625 41.307-3.101 31.154-34.542 54.896-53.17 64.484-5.736 2.953-12.525 2.953-18.261 0-18.627-9.587-50.068-33.329-53.169-64.484z" fill="url(#SVGID_4_)"/><path d="m348.602 228.425c21.721 0 39.329 17.608 39.329 39.329 0 15.471-8.933 28.855-21.922 35.277-8.018 3.964-17.406-1.992-17.406-10.937v-63.669z" fill="url(#SVGID_5_)"/><path d="m470.472 276.836h-107.268c-17.412 0-31.527-14.115-31.527-31.527v-47.827c0-17.412 14.115-31.527 31.527-31.527h107.268c17.412 0 31.528 14.115 31.528 31.527v47.827c0 17.411-14.115 31.527-31.528 31.527z" fill="url(#SVGID_6_)"/><path d="m241.658 199.849 19.956 5.738c10.404 2.992 20.847-4.596 21.217-15.415l.709-20.753c.107-3.123 1.091-6.153 2.841-8.742l11.624-17.206c6.06-8.97 2.071-21.247-8.104-24.942l-19.518-7.087c-2.937-1.067-5.514-2.939-7.436-5.403l-12.772-16.372c-6.658-8.535-19.567-8.535-26.225 0l-12.772 16.372c-1.922 2.464-4.499 4.336-7.436 5.403l-19.518 7.087c-10.175 3.695-14.164 15.972-8.104 24.942l11.624 17.206c1.749 2.589 2.734 5.619 2.84 8.742l.709 20.753c.37 10.819 10.813 18.406 21.217 15.415l19.956-5.738c3.004-.863 6.189-.863 9.192 0z" fill="url(#SVGID_7_)"/><g fill="#a1f5d0"><path d="m427.072 201.37h-28.83c-5.523 0-10-4.477-10-10s4.477-10 10-10h28.83c5.523 0 10 4.477 10 10s-4.477 10-10 10z"/><path d="m472.454 201.37h-4.656c-5.523 0-10-4.477-10-10s4.477-10 10-10h4.656c5.523 0 10 4.477 10 10s-4.477 10-10 10z"/></g></g></svg>