<svg id="Capa_1" enable-background="new 0 0 502 502" height="512" viewBox="0 0 502 502" width="512" xmlns="http://www.w3.org/2000/svg" xmlns:xlink="http://www.w3.org/1999/xlink"><linearGradient id="SVGID_1_" gradientUnits="userSpaceOnUse" x1="251" x2="251" y1="59.912" y2="352.187"><stop offset="0" stop-color="#68d0e8"/><stop offset="1" stop-color="#a7e7f5"/></linearGradient><linearGradient id="SVGID_2_" gradientUnits="userSpaceOnUse" x1="251" x2="251" y1="497.807" y2="287.19"><stop offset="0" stop-color="#f4d84a"/><stop offset="1" stop-color="#f9ea9d"/></linearGradient><linearGradient id="SVGID_3_" gradientUnits="userSpaceOnUse" x1="251" x2="251" y1="122.46" y2="6.993"><stop offset="0" stop-color="#8fd5e6"/><stop offset="1" stop-color="#b0e4f0"/></linearGradient><linearGradient id="SVGID_4_" gradientTransform="matrix(-1 0 0 -1 702 899.264)" gradientUnits="userSpaceOnUse" x1="451" x2="451" y1="511.179" y2="623.334"><stop offset="0" stop-color="#ec6476"/><stop offset="1" stop-color="#ec909c"/></linearGradient><linearGradient id="SVGID_5_" gradientTransform="matrix(-1 0 0 -1 702 899.264)" gradientUnits="userSpaceOnUse" x1="573.423" x2="573.423" y1="633.602" y2="745.757"><stop offset="0" stop-color="#8b71c7"/><stop offset="1" stop-color="#a891d9"/></linearGradient><g><path d="m429.582 339.605c0-53.035-27.963-100.125-71.209-129.76-10.286-7.049-16.35-18.791-16.35-31.261v-132.66h-182.046v132.659c0 12.47-6.064 24.212-16.35 31.261-43.245 29.635-71.209 76.725-71.209 129.76h357.164z" fill="url(#SVGID_1_)"/><path d="m251 502c98.628 0 178.582-72.707 178.582-162.395-82.029-38.311-134.27-7.598-178.582-7.598s-96.553-30.714-178.582 7.598c0 89.688 79.954 162.395 178.582 162.395z" fill="url(#SVGID_2_)"/><path d="m251 104.854c-45.694 0-89.91-7.121-112.199-11.365-25.584-4.872-42.375-29.562-37.503-55.146 4.873-25.584 29.559-42.372 55.146-37.503 15.316 2.916 55.19 9.7 94.556 9.7s79.24-6.784 94.556-9.7c25.584-4.869 50.274 11.919 55.146 37.503s-11.919 50.274-37.503 55.146c-22.289 4.244-66.505 11.365-112.199 11.365z" fill="url(#SVGID_3_)"/><path d="m251 343.507c-2.943 0-5.886-1.122-8.132-3.368l-122.423-122.423c-4.491-4.491-4.491-11.772 0-16.264 4.491-4.491 11.773-4.491 16.264 0l122.423 122.423c4.491 4.491 4.491 11.772 0 16.264-2.246 2.246-5.189 3.368-8.132 3.368z" fill="#fff"/><circle cx="251" cy="332.007" fill="url(#SVGID_4_)" r="56.078"/><circle cx="128.577" cy="209.584" fill="url(#SVGID_5_)" r="56.078"/><path d="m319.952 120.756c-.974-11.026-10.713-19.149-21.737-18.152-14.939 1.35-30.979 2.25-47.215 2.25-33.958 0-67.091-3.933-91.024-7.695v40.461c24.842 3.685 57.475 7.234 91.024 7.234 17.526 0 34.79-.97 50.829-2.421 10.986-.994 19.093-10.688 18.123-21.677z" fill="#15c5d9"/><g fill="#fffbcc"><path d="m312.222 470.228c-3.955 0-7.699-2.361-9.273-6.252-2.071-5.12.4-10.949 5.52-13.02 3.391-1.372 6.766-2.887 10.03-4.504 4.95-2.451 10.948-.424 13.399 4.524 2.451 4.949.425 10.948-4.524 13.399-3.712 1.838-7.549 3.561-11.404 5.121-1.23.497-2.5.732-3.748.732z"/><path d="m356.541 442.706c-2.737 0-5.462-1.116-7.437-3.311-3.694-4.105-3.361-10.428.744-14.122 8.541-7.686 15.903-16.319 21.884-25.658 2.978-4.65 9.164-6.006 13.814-3.029 4.651 2.979 6.007 9.163 3.029 13.814-6.947 10.849-15.475 20.854-25.348 29.739-1.911 1.719-4.303 2.567-6.686 2.567z"/></g></g></svg>