<svg id="Capa_1" enable-background="new 0 0 502 502" height="512" viewBox="0 0 502 502" width="512" xmlns="http://www.w3.org/2000/svg" xmlns:xlink="http://www.w3.org/1999/xlink"><linearGradient id="SVGID_1_" gradientUnits="userSpaceOnUse" x1="251" x2="251" y1="198.348" y2="485.757"><stop offset="0" stop-color="#4ba7e6"/><stop offset="1" stop-color="#94ccf0"/></linearGradient><linearGradient id="SVGID_2_" gradientUnits="userSpaceOnUse" x1="251" x2="251" y1="100.694" y2="350.671"><stop offset="0" stop-color="#68d0e8"/><stop offset="1" stop-color="#a7e7f5"/></linearGradient><linearGradient id="SVGID_3_" gradientUnits="userSpaceOnUse" x1="251.002" x2="251.002" y1="262.963" y2="12.609"><stop offset="0" stop-color="#f4d84a"/><stop offset="1" stop-color="#f9ea9d"/></linearGradient><linearGradient id="SVGID_4_" gradientUnits="userSpaceOnUse" x1="251" x2="251" y1="188.924" y2="31.424"><stop offset="0" stop-color="#ec6476"/><stop offset="1" stop-color="#ec909c"/></linearGradient><g><path d="m474.903 169.745c-44.541 0-415.18 0-447.805 0-16.743 16.742-27.098 39.872-27.098 65.419v144.132c0 51.095 41.421 92.516 92.516 92.516h316.968c51.095 0 92.516-41.421 92.516-92.516v-144.132c0-25.547-10.355-48.677-27.097-65.419z" fill="url(#SVGID_1_)"/><path d="m107.976 370.933c-4.491-4.491-4.491-11.772 0-16.264l71.571-71.571c4.492-4.491 11.771-4.491 16.264 0 4.491 4.491 4.491 11.772 0 16.264l-71.571 71.571c-4.492 4.49-11.772 4.491-16.264 0z" fill="#04a3db"/><path d="m377.761 370.933-71.571-71.571c-4.491-4.491-4.491-11.772 0-16.264 4.492-4.491 11.771-4.491 16.264 0l71.571 71.571c4.491 4.491 4.491 11.772 0 16.264-4.492 4.49-11.772 4.491-16.264 0z" fill="#04a3db"/><path d="m474.903 169.745c-16.742-16.742-39.871-27.097-65.419-27.097h-316.968c-25.548 0-48.677 10.355-65.419 27.097l173.874 173.874c27.63 27.63 72.428 27.63 100.058 0z" fill="url(#SVGID_2_)"/><path d="m158.923 202.566-.808-23.62-13.23-19.583c-19.799-29.309-6.805-69.45 26.494-81.541l22.215-8.066 14.536-18.635c21.755-27.885 63.945-27.936 85.738-.001l14.537 18.636 22.214 8.066c33.245 12.072 46.328 52.183 26.496 81.542l-13.23 19.583-.808 23.62c-1.224 35.851-35.57 60.112-69.364 50.395l-22.713-6.531-22.714 6.531c-33.707 9.694-68.136-14.474-69.363-50.396z" fill="url(#SVGID_3_)"/><path d="m256.951 213.974 25.838 7.43c13.47 3.873 26.991-5.951 27.47-19.958l.918-26.869c.138-4.043 1.413-7.966 3.678-11.319l15.05-22.277c7.846-11.614 2.681-27.509-10.493-32.293l-25.27-9.176c-3.803-1.381-7.139-3.805-9.628-6.995l-16.536-21.198c-8.621-11.051-25.334-11.051-33.955 0l-16.536 21.198c-2.488 3.19-5.825 5.614-9.628 6.995l-25.27 9.176c-13.174 4.784-18.339 20.679-10.493 32.293l15.05 22.277c2.265 3.352 3.539 7.275 3.678 11.319l.918 26.869c.479 14.008 14 23.832 27.47 19.958l25.838-7.43c3.888-1.118 8.012-1.118 11.901 0z" fill="url(#SVGID_4_)"/><path d="m341.018 245.083c-6.111-4.499-14.408-4.522-20.584-.111-12.941 9.242-29.899 12.827-46.721 7.99l-22.713-6.531-22.714 6.531c-33.707 9.694-68.136-14.474-69.363-50.396l-.808-23.62-13.23-19.583c-3.576-5.294-6.067-10.944-7.577-16.715h-35.737c1.991 12.801 6.795 25.18 14.312 36.309l7.597 11.244.464 13.56c1.679 49.167 41.909 86.353 89.188 86.353 17.618 0 28.496-4.956 37.869-7.264 9.395 2.313 20.303 7.268 37.889 7.267 19.099 0 37.16-6.121 51.973-16.725 9.658-6.916 9.721-21.265.155-28.309z" fill="#15c5d9"/><g><ellipse cx="163.115" cy="432.226" fill="#efb1d2" rx="14.936" ry="12.003"/><ellipse cx="338.886" cy="432.226" fill="#efb1d2" rx="14.936" ry="12.003"/><circle cx="188.721" cy="402.608" fill="#fff" r="29.618"/><circle cx="313.279" cy="402.608" fill="#fff" r="29.618"/><g fill="#353544"><g><circle cx="188.721" cy="402.608" r="17.652"/><circle cx="313.279" cy="402.608" r="17.652"/></g><path d="m251 433.168c-5.247 0-10.495-1.984-14.775-5.954-2.025-1.878-2.145-5.041-.267-7.066 1.877-2.025 5.042-2.143 7.065-.267 4.697 4.354 11.256 4.354 15.953 0 2.023-1.876 5.188-1.759 7.065.267 1.878 2.025 1.759 5.189-.267 7.066-4.279 3.97-9.527 5.954-14.774 5.954z"/></g></g></g></svg>