<svg id="Capa_1" enable-background="new 0 0 502 502" height="512" viewBox="0 0 502 502" width="512" xmlns="http://www.w3.org/2000/svg" xmlns:xlink="http://www.w3.org/1999/xlink"><linearGradient id="SVGID_1_" gradientUnits="userSpaceOnUse" x1="428.931" x2="489.354" y1="94.503" y2="94.503"><stop offset="0" stop-color="#43b36b"/><stop offset=".196" stop-color="#46b570"/><stop offset=".4433" stop-color="#4dbc80"/><stop offset=".7181" stop-color="#5ac79a"/><stop offset="1" stop-color="#6ad6bc"/></linearGradient><linearGradient id="SVGID_2_" gradientUnits="userSpaceOnUse" x1="367.788" x2="367.788" y1="189.986" y2="15.464"><stop offset="0" stop-color="#64cd89"/><stop offset=".2218" stop-color="#66cf8e"/><stop offset=".5016" stop-color="#6dd39e"/><stop offset=".8113" stop-color="#77dbb8"/><stop offset="1" stop-color="#7fe1cb"/></linearGradient><linearGradient id="SVGID_3_" gradientUnits="userSpaceOnUse" x1="286.101" x2="286.101" y1="209.169" y2="92.596"><stop offset="0" stop-color="#8b71c7"/><stop offset="1" stop-color="#a891d9"/></linearGradient><linearGradient id="lg1"><stop offset="0" stop-color="#f4d84a"/><stop offset="1" stop-color="#f9ea9d"/></linearGradient><linearGradient id="SVGID_4_" gradientUnits="userSpaceOnUse" x1="105.432" x2="105.432" xlink:href="#lg1" y1="177.572" y2="32.668"/><linearGradient id="SVGID_5_" gradientUnits="userSpaceOnUse" x1="192.665" x2="192.665" y1="193.187" y2="95.42"><stop offset="0" stop-color="#ec6476"/><stop offset="1" stop-color="#ec909c"/></linearGradient><linearGradient id="SVGID_6_" gradientUnits="userSpaceOnUse" x1="51.132" x2="411.308" y1="345.259" y2="345.259"><stop offset="0" stop-color="#4ba7e6"/><stop offset="1" stop-color="#94ccf0"/></linearGradient><linearGradient id="SVGID_7_" gradientUnits="userSpaceOnUse" x1="242.322" x2="242.322" xlink:href="#lg1" y1="289.245" y2="160.168"/><linearGradient id="SVGID_8_" gradientUnits="userSpaceOnUse" x1="157.477" x2="278.242" y1="474.9" y2="474.9"><stop offset="0" stop-color="#68d0e8"/><stop offset="1" stop-color="#a7e7f5"/></linearGradient><g><g><path d="m433.404 53.116c-18.936 18.936-18.936 49.637 0 68.573 13.487 13.487 32.943 17.368 49.865 11.642 10.446-3.535 13.438-16.911 5.641-24.709z" fill="url(#SVGID_1_)"/><path d="m369.363 201.565 93.515-93.515c15.18-15.18 15.18-39.791 0-54.97l-41.695-41.695c-15.18-15.18-39.791-15.18-54.97 0l-93.515 93.515c-15.18 15.18-15.18 39.791 0 54.971l41.695 41.695c15.179 15.179 39.791 15.179 54.97-.001z" fill="url(#SVGID_2_)"/></g><circle cx="286.101" cy="143.52" fill="url(#SVGID_3_)" r="76.067"/><path d="m64.078 172.911 13.872 25.07c7.232 13.07 24.825 15.856 35.742 5.661l20.94-19.557c3.151-2.943 7.068-4.938 11.301-5.758l28.13-5.446c14.665-2.839 22.752-18.71 16.429-32.244l-12.129-25.959c-1.825-3.906-2.513-8.248-1.984-12.527l3.513-28.436c1.831-14.825-10.764-27.42-25.589-25.589l-28.436 3.513c-4.279.529-8.621-.159-12.527-1.984l-25.957-12.128c-13.533-6.323-29.404 1.764-32.244 16.429l-5.446 28.13c-.819 4.233-2.815 8.15-5.758 11.301l-19.556 20.94c-10.195 10.917-7.409 28.51 5.661 35.742l25.07 13.872c3.772 2.088 6.88 5.197 8.968 8.97z" fill="url(#SVGID_4_)"/><path d="m112.956 134.249c-2.795-28.077 18.647-53.268 46.86-52.849 12.913.192 24.541 5.659 32.85 14.331 8.309-8.672 19.937-14.139 32.85-14.331 28.213-.419 49.655 24.772 46.86 52.849-3.968 39.86-44.195 70.236-68.028 82.504-7.339 3.778-16.025 3.778-23.364 0-23.834-12.268-64.06-42.644-68.028-82.504z" fill="url(#SVGID_5_)"/><path d="m294.014 447.8c0-5.752 1.864-11.35 5.313-15.954l155.483-207.576h-424.976l155.484 207.577c3.449 4.604 5.313 10.201 5.313 15.954l51.692 18.449z" fill="url(#SVGID_6_)"/><path d="m340.469 291.319c-1.564-10.461-11.004-17.905-21.538-16.952-24.68 2.232-50.592 3.593-76.608 3.593-70.941 0-141.141-10.106-187.589-20.448l35.608 47.537c44.067 7.266 97.853 12.911 151.981 12.911 27.212 0 54.335-1.428 80.181-3.771 11.451-1.038 19.666-11.498 17.965-22.87z" fill="#04a3db"/><path d="m242.322 277.96c-77.302 0-153.748-11.999-199.512-23.229-24.018-5.894-38.712-30.142-32.818-54.162 5.894-24.018 30.134-38.714 54.161-32.819 38.819 9.525 108.775 20.648 178.169 20.648 69.396 0 139.35-11.123 178.168-20.648 24.026-5.896 48.269 8.801 54.161 32.819 5.895 24.019-8.799 48.268-32.818 54.162-45.763 11.23-122.207 23.229-199.511 23.229z" fill="url(#SVGID_7_)"/><path d="m190.63 475.389c0 14.697 11.914 26.611 26.611 26.611h50.161c14.697 0 26.611-11.914 26.611-26.611v-27.589h-103.383z" fill="url(#SVGID_8_)"/><g><ellipse cx="154.437" cy="364.448" fill="#efb1d2" rx="14.936" ry="12.003"/><ellipse cx="330.208" cy="364.448" fill="#efb1d2" rx="14.936" ry="12.003"/><circle cx="180.043" cy="334.83" fill="#fff" r="29.618"/><circle cx="304.601" cy="334.83" fill="#fff" r="29.618"/><g fill="#353544"><g><circle cx="180.043" cy="334.83" r="17.652"/><circle cx="304.601" cy="334.83" r="17.652"/></g><path d="m242.322 365.39c-5.248 0-10.495-1.984-14.776-5.954-2.025-1.877-2.145-5.04-.268-7.066 1.879-2.025 5.041-2.145 7.066-.267 4.697 4.354 11.257 4.354 15.954 0 2.023-1.876 5.189-1.759 7.066.267 1.878 2.025 1.759 5.189-.267 7.066-4.28 3.969-9.528 5.954-14.775 5.954z"/></g></g><g fill="#a1f5d0"><path d="m447.738 89.354c-2.56 0-5.118-.976-7.071-2.929l-20.386-20.385c-3.905-3.905-3.905-10.237 0-14.143 3.906-3.905 10.236-3.905 14.143 0l20.386 20.386c3.905 3.905 3.905 10.237 0 14.143-1.954 1.952-4.512 2.928-7.072 2.928z"/><path d="m398.556 40.171c-2.56 0-5.118-.976-7.07-2.928l-3.293-3.293c-3.905-3.905-3.906-10.237-.001-14.142 3.904-3.906 10.237-3.906 14.142-.002l3.293 3.293c3.905 3.905 3.906 10.237.001 14.142-1.953 1.953-4.513 2.93-7.072 2.93z"/></g></g></svg>