<svg id="Capa_1" enable-background="new 0 0 502 502" height="512" viewBox="0 0 502 502" width="512" xmlns="http://www.w3.org/2000/svg" xmlns:xlink="http://www.w3.org/1999/xlink"><linearGradient id="SVGID_1_" gradientUnits="userSpaceOnUse" x1="251" x2="251" y1="270.455" y2="506.554"><stop offset="0" stop-color="#f4d84a"/><stop offset="1" stop-color="#f9ea9d"/></linearGradient><linearGradient id="SVGID_2_" gradientUnits="userSpaceOnUse" x1="251" x2="251" y1="268.158" y2="501.071"><stop offset="0" stop-color="#ec6476"/><stop offset="1" stop-color="#ec909c"/></linearGradient><linearGradient id="SVGID_3_" gradientUnits="userSpaceOnUse" x1="251" x2="251" y1="347.044" y2="84.746"><stop offset="0" stop-color="#a98bdb"/><stop offset="1" stop-color="#c3afe8"/></linearGradient><g><path d="m202.482 481.889-68.798-68.799c-31.767-31.768-20.732-84.788 19.305-102.228v-134.916h196.022v134.915c40.06 17.45 51.058 70.475 19.306 102.228l-68.798 68.798c-26.814 26.814-70.218 26.82-97.037.002z" fill="url(#SVGID_1_)"/><path d="m333.881 297.869c-5.242-5.255-13.272-6.151-19.785-2.591-6.796 3.715-15.558 3.705-22.634-1.543l-27.942-20.728c-7.436-5.516-17.605-5.516-25.04 0l-27.942 20.728c-12.75 9.458-30.979 1.907-33.307-13.796l-5.102-34.416c-1.357-9.158-8.548-16.348-17.706-17.705l-1.434-.213v79.32c16.367 24.652 51.555 32.346 77.209 13.314l20.802-15.431 20.801 15.431c17.997 13.351 40.675 13.544 58.262 3.962 9.737-5.306 11.65-18.481 3.818-26.332z" fill="#efc42f"/><path d="m323.806 344.654c-7.632 0-13.818-6.186-13.818-13.818v-115.866h-117.976v115.866c0 7.632-6.186 13.818-13.818 13.818-21.315 0-31.989 25.77-16.917 40.842l68.798 68.798c11.557 11.557 30.293 11.557 41.85 0l68.798-68.798c15.072-15.072 4.397-40.842-16.917-40.842z" fill="url(#SVGID_2_)"/><path d="m309.988 330.546v-115.576h-117.975v115.576c12.925 1.463 26.538-1.666 38.186-10.307l20.801-15.431 20.801 15.431c11.649 8.641 25.262 11.771 38.187 10.307z" fill="#e05467"/><path d="m263.52 24.887 27.942-20.728c12.75-9.458 30.979-1.907 33.307 13.796l5.101 34.415c1.357 9.158 8.548 16.348 17.706 17.706l34.415 5.101c15.703 2.328 23.254 20.558 13.796 33.307l-20.728 27.942c-5.516 7.436-5.516 17.604 0 25.04l20.728 27.942c9.458 12.75 1.907 30.98-13.796 33.307l-34.415 5.101c-9.158 1.357-16.349 8.548-17.706 17.706l-5.101 34.415c-2.328 15.703-20.558 23.254-33.307 13.796l-27.942-20.728c-7.435-5.516-17.605-5.516-25.04 0l-27.942 20.728c-12.75 9.458-30.98 1.907-33.307-13.796l-5.101-34.415c-1.357-9.158-8.548-16.348-17.706-17.706l-34.415-5.101c-15.703-2.328-23.254-20.558-13.796-33.307l20.728-27.942c5.516-7.436 5.516-17.604 0-25.04l-20.728-27.942c-9.458-12.75-1.907-30.98 13.796-33.307l34.415-5.101c9.158-1.357 16.349-8.548 17.706-17.706l5.101-34.415c2.328-15.703 20.557-23.254 33.307-13.796l27.942 20.728c7.436 5.516 17.605 5.516 25.04 0z" fill="url(#SVGID_3_)"/><g fill="#fff"><path d="m220.508 222.609c-5.093-2.137-7.488-7.998-5.351-13.09l55.024-131.111c2.137-5.093 7.997-7.488 13.09-5.351s7.488 7.998 5.351 13.09l-55.024 131.111c-2.137 5.094-8 7.488-13.09 5.351z"/><path d="m213.843 142.671c-18.92 0-34.313-17.16-34.313-38.252s15.393-38.252 34.313-38.252 34.313 17.16 34.313 38.252-15.392 38.252-34.313 38.252zm0-56.504c-7.892 0-14.313 8.188-14.313 18.252s6.42 18.253 14.313 18.253c7.892 0 14.313-8.188 14.313-18.253 0-10.064-6.421-18.252-14.313-18.252z"/><path d="m288.157 232.314c-18.92 0-34.313-17.16-34.313-38.252s15.393-38.252 34.313-38.252 34.313 17.16 34.313 38.252-15.393 38.252-34.313 38.252zm0-56.504c-7.892 0-14.313 8.188-14.313 18.252s6.421 18.252 14.313 18.252 14.313-8.188 14.313-18.252c-.001-10.064-6.421-18.252-14.313-18.252z"/></g><g><ellipse cx="163.114" cy="417.226" fill="#ea9cc5" rx="14.936" ry="12.003"/><ellipse cx="338.885" cy="417.226" fill="#ea9cc5" rx="14.936" ry="12.003"/><circle cx="188.721" cy="387.609" fill="#fff" r="29.618"/><ellipse cx="200.687" cy="387.609" fill="#353544" rx="17.652" ry="17.652" transform="matrix(.23 -.973 .973 .23 -222.661 493.873)"/><circle cx="313.279" cy="387.609" fill="#fff" r="29.618"/><g fill="#353544"><ellipse cx="325.182" cy="387.609" rx="17.652" ry="17.652" transform="matrix(.707 -.707 .707 .707 -178.837 343.466)"/><ellipse cx="251" cy="410.061" rx="13.252" ry="17.352"/></g></g></g></svg>