<svg id="Capa_1" enable-background="new 0 0 502 502" height="512" viewBox="0 0 502 502" width="512" xmlns="http://www.w3.org/2000/svg" xmlns:xlink="http://www.w3.org/1999/xlink"><linearGradient id="SVGID_1_" gradientUnits="userSpaceOnUse" x1="251" x2="251" y1="227.429" y2="527.953"><stop offset="0" stop-color="#f4d84a"/><stop offset="1" stop-color="#f9ea9d"/></linearGradient><linearGradient id="SVGID_2_" gradientUnits="userSpaceOnUse" x1="251" x2="251" y1="302.593" y2="-32.844"><stop offset="0" stop-color="#64cd89"/><stop offset=".2218" stop-color="#66cf8e"/><stop offset=".5016" stop-color="#6dd39e"/><stop offset=".8113" stop-color="#77dbb8"/><stop offset="1" stop-color="#7fe1cb"/></linearGradient><g><path d="m186.079 91.275-126.996 126.996c-35.855 35.855-35.855 93.987 0 129.842l126.996 126.996c35.855 35.855 93.987 35.855 129.841 0l126.996-126.996c35.855-35.855 35.855-93.987 0-129.842l-126.995-126.996c-35.855-35.854-93.987-35.854-129.842 0z" fill="url(#SVGID_1_)"/><path d="m385.787 309.948c-7.339-3.056-15.704-.696-20.641 5.535-10.833 13.674-29.307 20.657-47.741 15.356l-53.975-15.52c-8.122-2.336-16.739-2.336-24.861 0l-53.975 15.52c-28.139 8.091-56.385-12.431-57.385-41.693l-1.918-56.128c-.289-8.447-2.951-16.641-7.683-23.645l-20.01-29.619-25.208 25.208 16.217 24.005c1.049 1.553 1.64 3.371 1.704 5.244l1.919 56.13c1.779 52.055 52.043 88.508 102.036 74.134l53.977-15.52c.896-.258 1.824-.389 2.756-.389.933 0 1.861.131 2.758.389l53.974 15.52c32.893 9.456 65.777-3.054 85.009-27.438 7.209-9.137 3.791-22.615-6.953-27.089z" fill="#efc42f"/><path d="m263.43 315.319 53.975 15.52c28.138 8.091 56.384-12.431 57.385-41.693l1.918-56.129c.289-8.447 2.952-16.641 7.683-23.644l31.44-46.536c16.391-24.261 5.602-57.466-21.919-67.46l-52.789-19.169c-7.944-2.885-14.914-7.949-20.113-14.613l-34.544-44.282c-18.009-23.085-52.923-23.085-70.931 0l-34.544 44.282c-5.198 6.664-12.169 11.728-20.113 14.613l-52.789 19.169c-27.52 9.994-38.31 43.199-21.919 67.46l31.44 46.536c4.731 7.003 7.394 15.197 7.683 23.644l1.918 56.129c1 29.262 29.246 49.784 57.385 41.693l53.974-15.52c8.122-2.336 16.738-2.336 24.86 0z" fill="url(#SVGID_2_)"/><path d="m309.137 136.625h-19.011l9.388-45.163c1.124-5.407-2.348-10.702-7.755-11.826-5.409-1.126-10.702 2.349-11.826 7.755l-10.234 49.233h-20.773l9.388-45.163c1.124-5.407-2.348-10.702-7.755-11.826-5.409-1.126-10.702 2.349-11.826 7.755l-10.234 49.233h-23.12c-5.523 0-10 4.477-10 10s4.477 10 10 10h18.962l-8.424 40.525h-23.054c-5.523 0-10 4.477-10 10s4.477 10 10 10h18.897l-9.59 46.135c-1.124 5.407 2.348 10.702 7.755 11.826 5.383 1.122 10.698-2.328 11.826-7.755l10.436-50.205h20.773l-9.59 46.135c-1.124 5.407 2.348 10.702 7.755 11.826 5.383 1.122 10.698-2.328 11.826-7.755l10.436-50.205h23.233c5.523 0 10-4.477 10-10s-4.477-10-10-10h-19.076l8.424-40.525h23.168c5.523 0 10-4.477 10-10 .001-5.523-4.476-10-9.999-10zm-52.02 60.525h-20.773l8.424-40.525h20.773z" fill="#fff"/><g><ellipse cx="163.115" cy="416.325" fill="#ea9cc5" rx="14.936" ry="12.003"/><ellipse cx="338.886" cy="416.325" fill="#ea9cc5" rx="14.936" ry="12.003"/><circle cx="188.721" cy="386.707" fill="#fff" r="29.618"/><ellipse cx="176.756" cy="386.707" fill="#353544" rx="17.652" ry="17.652" transform="matrix(.161 -.987 .987 .161 -233.372 498.869)"/><circle cx="313.279" cy="386.707" fill="#fff" r="29.618"/><g fill="#353544"><ellipse cx="301.313" cy="386.707" rx="17.652" ry="17.652" transform="matrix(.232 -.973 .973 .232 -144.643 590.312)"/><path d="m258.59 393.901h-15.18c-3.007 0-5.658 1.976-6.506 4.862-2.672 9.09-5.742 27.748 14.097 27.748 19.838 0 16.769-18.659 14.096-27.748-.849-2.886-3.499-4.862-6.507-4.862z"/></g></g></g></svg>