<svg id="Capa_1" enable-background="new 0 0 502 502" height="512" viewBox="0 0 502 502" width="512" xmlns="http://www.w3.org/2000/svg" xmlns:xlink="http://www.w3.org/1999/xlink"><linearGradient id="SVGID_1_" gradientUnits="userSpaceOnUse" x1="251" x2="251" y1="231.897" y2="9.296"><stop offset="0" stop-color="#ec6476"/><stop offset="1" stop-color="#ec909c"/></linearGradient><linearGradient id="lg1"><stop offset="0" stop-color="#465260"/><stop offset="1" stop-color="#5a708d"/></linearGradient><linearGradient id="SVGID_2_" gradientUnits="userSpaceOnUse" x1="251" x2="251" xlink:href="#lg1" y1="426.171" y2="498.991"/><linearGradient id="SVGID_3_" gradientTransform="matrix(-1 0 0 1 502 0)" gradientUnits="userSpaceOnUse" x1="251" x2="251" y1="101.038" y2="446.234"><stop offset="0" stop-color="#bfdbdb"/><stop offset="1" stop-color="#f3dbdb"/></linearGradient><linearGradient id="SVGID_4_" gradientUnits="userSpaceOnUse" x1="251" x2="251" y1="404.062" y2="264.949"><stop offset="0" stop-color="#8b71c7"/><stop offset="1" stop-color="#a891d9"/></linearGradient><linearGradient id="SVGID_5_" gradientUnits="userSpaceOnUse" x1="125.657" x2="125.657" xlink:href="#lg1" y1="103.021" y2="2.891"/><linearGradient id="SVGID_6_" gradientTransform="matrix(-1 0 0 1 502 0)" gradientUnits="userSpaceOnUse" x1="125.657" x2="125.657" xlink:href="#lg1" y1="103.021" y2="2.891"/><g><path d="m453.371 192.299-202.371 10.456-202.371-10.456v-81.925c0-36.051 29.225-65.277 65.277-65.277h274.189c36.051 0 65.277 29.225 65.277 65.277v81.925z" fill="url(#SVGID_1_)"/><path d="m48.629 354.798h404.743v81.925c0 36.051-29.225 65.277-65.277 65.277h-274.19c-36.051 0-65.277-29.225-65.277-65.277v-81.925z" fill="url(#SVGID_2_)"/><path d="m453.371 192.299c0 103.71 17.923 145.459 40.831 172.109 13.798 16.051 8.627 40.958-10.327 50.377-58.793 29.216-137.091 49.874-232.875 49.874s-174.082-20.658-232.875-49.875c-18.955-9.419-24.125-34.326-10.328-50.377 22.909-26.65 40.831-68.398 40.831-172.109h404.743z" fill="url(#SVGID_3_)"/><path d="m257.538 392.922 28.391 8.164c14.801 4.256 29.659-6.539 30.185-21.931l1.009-29.524c.152-4.443 1.552-8.753 4.041-12.437l16.537-24.478c8.621-12.762 2.946-30.228-11.53-35.484l-27.767-10.083c-4.178-1.517-7.845-4.181-10.579-7.687l-18.17-23.292c-9.473-12.143-27.837-12.143-37.31 0l-18.17 23.292c-2.734 3.505-6.401 6.169-10.579 7.687l-27.767 10.083c-14.476 5.257-20.151 22.723-11.53 35.484l16.537 24.478c2.489 3.684 3.889 7.994 4.041 12.437l1.009 29.524c.526 15.392 15.384 26.186 30.185 21.931l28.391-8.164c4.272-1.228 8.804-1.228 13.076 0z" fill="url(#SVGID_4_)"/><path d="m129.153 102.217h-6.991c-19.252 0-34.858-15.607-34.858-34.858v-32.5c0-19.252 15.606-34.859 34.858-34.859h6.991c19.252 0 34.858 15.607 34.858 34.858v32.5c0 19.252-15.606 34.859-34.858 34.859z" fill="url(#SVGID_5_)"/><path d="m372.847 102.217h6.991c19.252 0 34.858-15.607 34.858-34.858v-32.5c0-19.252-15.606-34.859-34.858-34.859h-6.991c-19.252 0-34.858 15.607-34.858 34.858v32.5c0 19.252 15.606 34.859 34.858 34.859z" fill="url(#SVGID_6_)"/><g><ellipse cx="163.114" cy="158.664" fill="#efb1d2" rx="14.936" ry="12.003"/><ellipse cx="338.886" cy="158.664" fill="#efb1d2" rx="14.936" ry="12.003"/><circle cx="188.721" cy="129.046" fill="#fff" r="29.618"/><ellipse cx="176.756" cy="129.046" fill="#353544" rx="17.652" ry="17.652" transform="matrix(.707 -.707 .707 .707 -39.479 162.782)"/><circle cx="313.279" cy="129.046" fill="#fff" r="29.618"/><g fill="#353544"><ellipse cx="301.313" cy="129.046" rx="17.652" ry="17.652" transform="matrix(.173 -.985 .985 .173 121.982 403.423)"/><path d="m258.59 136.24h-15.18c-3.007 0-5.658 1.976-6.506 4.862-2.672 9.09-5.742 27.748 14.097 27.748 19.838 0 16.769-18.659 14.097-27.748-.85-2.885-3.5-4.862-6.508-4.862z"/></g></g><path d="m325.104 398.277c-5.923-4.09-13.69-4.053-19.715-.115-5.494 3.59-12.482 4.93-19.46 2.924l-28.391-8.164c-4.272-1.229-8.804-1.229-13.077 0l-28.391 8.164c-14.801 4.256-29.659-6.539-30.185-21.931l-1.009-29.524c-.152-4.443-1.552-8.753-4.041-12.437l-16.538-24.479c-5.951-8.809-5.087-19.854.779-27.581 4.4-5.796 5.054-13.602 1.325-19.851-6.276-10.519-21.23-11.576-28.754-1.909-14.932 19.186-17.243 46.894-2.352 68.935l14.712 21.777.897 26.266c.53 15.498 7.011 29.899 18.25 40.551 18.263 17.308 39.505 15.955 40.34 16.118 12.956 0 19.896-3.826 41.503-9.56 21.649 5.745 28.558 9.56 41.507 9.56 11.95 0 23.153-3.613 32.5-9.854 10.234-6.831 10.223-21.9.1-28.89z" fill="#b6c6d9"/><g><path d="m424.02 235.399c-5.332 0-9.761-4.208-9.984-9.585-.174-4.171-.315-8.484-.419-12.82-.133-5.521 4.235-10.105 9.756-10.238 5.528-.116 10.105 4.234 10.238 9.756.102 4.219.238 8.414.407 12.47.23 5.518-4.058 10.177-9.575 10.407-.142.008-.284.01-.423.01z" fill="#fff"/><path d="m423.371 181.918c-5.523 0-10-4.477-10-10v-38.678c0-5.523 4.477-10 10-10 5.522 0 10 4.477 10 10v38.678c0 5.523-4.477 10-10 10z" fill="#ffb8c1"/></g></g></svg>