<svg id="Capa_1" enable-background="new 0 0 502 502" height="512" viewBox="0 0 502 502" width="512" xmlns="http://www.w3.org/2000/svg" xmlns:xlink="http://www.w3.org/1999/xlink"><linearGradient id="lg1"><stop offset="0" stop-color="#f4c128"/><stop offset="1" stop-color="#f9dd89"/></linearGradient><linearGradient id="SVGID_1_" gradientUnits="userSpaceOnUse" x1="382.689" x2="518.522" xlink:href="#lg1" y1="292.068" y2="292.068"/><linearGradient id="SVGID_2_" gradientUnits="userSpaceOnUse" x1="151.338" x2="485.75" xlink:href="#lg1" y1="328.642" y2="328.642"/><linearGradient id="SVGID_3_" gradientUnits="userSpaceOnUse" x1="-43.48" x2="333.619" y1="170.804" y2="170.804"><stop offset="0" stop-color="#f4d84a"/><stop offset="1" stop-color="#f9ea9d"/></linearGradient><linearGradient id="SVGID_4_" gradientUnits="userSpaceOnUse" x1="170.803" x2="170.803" y1="356.647" y2="86.164"><stop offset="0" stop-color="#ec6476"/><stop offset="1" stop-color="#ec909c"/></linearGradient><g><path d="m403.248 193.4h-115.459l197.336 197.337v-115.459c0-12.425-10.072-22.497-22.497-22.497h-21.169c-8.679 0-15.715-7.036-15.715-15.715v-21.169c.001-12.425-10.071-22.497-22.496-22.497z" fill="url(#SVGID_1_)"/><path d="m302.531 155.283-147.248 147.248 180.228 180.228c12.32 12.32 29.029 19.241 46.452 19.241h54.343c36.282 0 65.694-29.412 65.694-65.694v-54.343c0-17.423-6.921-34.132-19.241-46.452z" fill="url(#SVGID_2_)"/><path d="m313.76 313.76c-17.957 17.957-41.831 27.846-67.227 27.847h-151.46c-52.424-.001-95.073-42.651-95.073-95.073v-65.801c-.002-25.391 9.887-49.267 27.846-67.226l85.66-85.66c17.959-17.959 41.835-27.848 67.23-27.845l65.797-.002c52.423 0 95.072 42.65 95.074 95.072v151.461c-.001 25.396-9.89 49.271-27.847 67.227z" fill="url(#SVGID_3_)"/><path d="m180.732 52.019h65.801c23.778 0 43.054 19.276 43.054 43.054v151.46c0 23.778-19.276 43.054-43.054 43.054h-151.46c-23.778 0-43.054-19.276-43.054-43.054v-65.801c0-11.419 4.536-22.37 12.61-30.444l85.659-85.659c8.075-8.074 19.026-12.61 30.444-12.61z" fill="url(#SVGID_4_)"/><path d="m426.448 437.948c-2.943 0-5.886-1.122-8.132-3.368l-65.975-65.974c-4.491-4.491-4.491-11.772 0-16.264 4.49-4.491 11.772-4.491 16.264 0l65.975 65.974c4.491 4.491 4.491 11.772 0 16.264-2.245 2.246-5.188 3.368-8.132 3.368z" fill="#fcb500"/><g><ellipse cx="136.029" cy="260.318" fill="#efb1d2" rx="14.936" ry="12.003" transform="matrix(.707 -.707 .707 .707 -144.231 172.432)"/><ellipse cx="260.318" cy="136.029" fill="#efb1d2" rx="14.936" ry="12.003" transform="matrix(.707 -.707 .707 .707 -19.942 223.913)"/><circle cx="133.193" cy="221.268" fill="#fff" r="29.618"/><circle cx="221.268" cy="133.193" fill="#fff" r="29.618"/><path d="m128.347 237.754c-3.251 0-6.246-2.13-7.198-5.41-1.898-6.536-.089-13.585 4.725-18.397 4.812-4.812 11.86-6.621 18.396-4.723 3.978 1.156 6.266 5.317 5.109 9.295-1.156 3.979-5.317 6.265-9.295 5.109-1.877-.546-3.145.465-3.605.926-.459.46-1.47 1.731-.926 3.605 1.155 3.977-1.132 8.139-5.11 9.294-.699.205-1.403.301-2.096.301z" fill="#353544"/><path d="m216.423 149.679c-3.25 0-6.245-2.13-7.198-5.409-1.899-6.535-.09-13.584 4.723-18.397s11.859-6.625 18.397-4.725c3.978 1.156 6.265 5.317 5.109 9.295-1.155 3.979-5.319 6.264-9.295 5.11-1.87-.543-3.145.466-3.605.926-.459.459-1.47 1.731-.925 3.604 1.156 3.978-1.132 8.139-5.109 9.295-.699.204-1.404.301-2.097.301z" fill="#353544"/><g><path d="m213.629 197.124-16.505 16.505c-4.602 4.602-12.064 4.602-16.666 0-4.602-4.602-4.602-12.063 0-16.665l16.505-16.505c4.602-4.602 12.063-4.602 16.665 0 4.603 4.601 4.603 12.063.001 16.665z" fill="#353544"/></g></g><path d="m348.995 288.985c-7.902-3.104-16.875-.079-21.316 7.156-3.882 6.326-8.537 12.238-13.918 17.619-17.957 17.957-41.831 27.846-67.227 27.847h-52.174l35 35h17.175c47.02-.001 88.162-24.889 111.009-62.217 5.675-9.273 1.571-21.43-8.549-25.405z" fill="#fcb500"/></g></svg>