<svg id="Capa_1" enable-background="new 0 0 502 502" height="512" viewBox="0 0 502 502" width="512" xmlns="http://www.w3.org/2000/svg" xmlns:xlink="http://www.w3.org/1999/xlink"><linearGradient id="lg1"><stop offset="0" stop-color="#8b71c7"/><stop offset="1" stop-color="#a891d9"/></linearGradient><linearGradient id="SVGID_1_" gradientUnits="userSpaceOnUse" x1="251" x2="251" xlink:href="#lg1" y1="402.277" y2="493.111"/><linearGradient id="SVGID_2_" gradientUnits="userSpaceOnUse" x1="402.282" x2="514.812" y1="309.261" y2="309.261"><stop offset="0" stop-color="#4ba7e6"/><stop offset="1" stop-color="#94ccf0"/></linearGradient><linearGradient id="SVGID_3_" gradientUnits="userSpaceOnUse" x1="355.635" x2="355.635" xlink:href="#lg1" y1="144.1" y2="38.979"/><linearGradient id="SVGID_4_" gradientTransform="matrix(-1 0 0 1 102 0)" gradientUnits="userSpaceOnUse" x1="3.543" x2="116.073" y1="309.261" y2="309.261"><stop offset="0" stop-color="#ec6476"/><stop offset="1" stop-color="#ec909c"/></linearGradient><linearGradient id="SVGID_5_" gradientTransform="matrix(-1 0 0 1 300.844 499.558)" gradientUnits="userSpaceOnUse" x1="154.479" x2="154.479" y1="-355.458" y2="-456.986"><stop offset="0" stop-color="#64cd89"/><stop offset=".2218" stop-color="#66cf8e"/><stop offset=".5016" stop-color="#6dd39e"/><stop offset=".8113" stop-color="#77dbb8"/><stop offset="1" stop-color="#7fe1cb"/></linearGradient><linearGradient id="SVGID_6_" gradientUnits="userSpaceOnUse" x1="-37.624" x2="582.145" y1="243.731" y2="243.731"><stop offset="0" stop-color="#bfdbdb"/><stop offset="1" stop-color="#f3dbdb"/></linearGradient><linearGradient id="SVGID_7_" gradientUnits="userSpaceOnUse" x1="251" x2="251" y1="352.405" y2="151.927"><stop offset="0" stop-color="#465260"/><stop offset="1" stop-color="#5a708d"/></linearGradient><g><path d="m165.852 391.971 14.467 44.527c1.114 3.429.361 7.191-1.988 9.927l-11.596 13.508c-3.934 4.582-3.118 11.547 1.768 15.097l28.995 21.066c4.886 3.55 11.761 2.173 14.904-2.984l9.264-15.203c1.876-3.079 5.222-4.958 8.827-4.958h41.012c3.606 0 6.951 1.879 8.827 4.958l9.264 15.203c3.143 5.157 10.018 6.534 14.904 2.984l28.995-21.066c4.886-3.55 5.701-10.514 1.768-15.096l-11.596-13.508c-2.349-2.736-3.102-6.498-1.988-9.928l14.468-44.527z" fill="url(#SVGID_1_)"/><path d="m355.816 377.681h46.818c3.606 0 6.951 1.879 8.827 4.958l9.264 15.203c3.143 5.157 10.018 6.534 14.904 2.984l28.995-21.066c4.886-3.55 5.701-10.514 1.768-15.096l-11.596-13.508c-2.349-2.736-3.102-6.498-1.988-9.928l12.673-39.005c1.114-3.429 3.935-6.03 7.443-6.863l17.321-4.112c5.876-1.395 9.31-7.509 7.444-13.253l-11.075-34.086c-1.866-5.744-8.238-8.671-13.811-6.346l-16.43 6.854c-3.328 1.388-7.139.942-10.056-1.177l-37.876-27.519z" fill="url(#SVGID_2_)"/><path d="m400.928 192.599 14.468-44.527c1.114-3.429 3.935-6.03 7.443-6.863l17.321-4.112c5.876-1.395 9.31-7.509 7.443-13.252l-11.075-34.086c-1.866-5.744-8.238-8.671-13.811-6.346l-16.43 6.854c-3.328 1.388-7.139.942-10.056-1.177l-33.179-24.106c-2.917-2.119-4.519-5.606-4.227-9.2l1.441-17.744c.489-6.02-4.264-11.175-10.304-11.175h-35.84c-6.039 0-10.792 5.155-10.303 11.174l1.441 17.744c.292 3.594-1.31 7.081-4.227 9.2l-37.877 27.519z" fill="url(#SVGID_3_)"/><path d="m146.184 377.681h-46.818c-3.606 0-6.951 1.879-8.827 4.958l-9.264 15.203c-3.143 5.157-10.018 6.534-14.904 2.984l-28.995-21.066c-4.886-3.55-5.701-10.514-1.768-15.096l11.596-13.508c2.349-2.736 3.102-6.498 1.988-9.928l-12.673-39.005c-1.114-3.429-3.935-6.03-7.443-6.863l-17.321-4.112c-5.876-1.395-9.31-7.509-7.444-13.253l11.075-34.086c1.866-5.744 8.238-8.671 13.811-6.346l16.43 6.854c3.328 1.388 7.139.942 10.056-1.177l37.876-27.519z" fill="url(#SVGID_4_)"/><path d="m101.072 192.599-14.468-44.527c-1.114-3.429-3.935-6.03-7.443-6.863l-17.321-4.112c-5.876-1.395-9.31-7.509-7.444-13.252l11.075-34.086c1.866-5.744 8.238-8.671 13.811-6.346l16.43 6.854c3.328 1.388 7.139.942 10.056-1.177l33.179-24.106c2.917-2.119 4.519-5.606 4.227-9.2l-1.441-17.744c-.489-6.02 4.264-11.175 10.304-11.175h35.84c6.039 0 10.792 5.155 10.303 11.174l-1.441 17.744c-.292 3.594 1.31 7.081 4.227 9.2l37.877 27.519z" fill="url(#SVGID_5_)"/><path d="m193.085 66.463-3.117-38.371c-1.057-13.017 9.221-24.164 22.281-24.164h77.503c13.06 0 23.338 11.147 22.281 24.164l-3.117 38.371c-.631 7.772 2.833 15.312 9.141 19.895l71.749 52.128c6.309 4.583 14.549 5.548 21.746 2.546l35.53-14.822c12.053-5.028 25.831 1.303 29.867 13.723l23.95 73.71c4.036 12.42-3.39 25.641-16.096 28.658l-37.456 8.893c-7.587 1.801-13.687 7.426-16.096 14.842l-27.405 84.345c-2.41 7.416-.781 15.552 4.298 21.468l25.076 29.211c8.507 9.909 6.743 24.969-3.822 32.645l-62.701 45.555c-10.565 7.676-25.433 4.699-32.229-6.453l-20.032-32.875c-4.058-6.659-11.292-10.722-19.09-10.722h-88.686c-7.798 0-15.032 4.063-19.089 10.722l-20.032 32.875c-6.796 11.152-21.663 14.129-32.229 6.453l-62.701-45.555c-10.565-7.676-12.329-22.736-3.822-32.645l25.076-29.211c5.079-5.917 6.708-14.052 4.298-21.468l-27.406-84.345c-2.41-7.416-8.509-13.041-16.096-14.842l-37.456-8.893c-12.706-3.017-20.132-16.237-16.096-28.658l23.95-73.71c4.036-12.42 17.814-18.751 29.867-13.723l35.53 14.822c7.197 3.002 15.438 2.037 21.746-2.546l71.748-52.128c6.304-4.583 9.768-12.123 9.137-19.895zm-4.627 187.632c0 34.541 28.001 62.542 62.542 62.542s62.542-28.001 62.542-62.542-28.001-62.542-62.542-62.542-62.542 28.001-62.542 62.542z" fill="url(#SVGID_6_)"/><path d="m333.236 342.265c-6.011-5.772-15.256-6.491-22.092-1.725-18.046 12.581-40.216 19.657-64.077 18.788-54.426-1.983-98.715-45.819-101.254-100.221-.298-6.394-.022-12.668.778-18.777 1.065-8.131-3.851-15.865-11.59-18.576-10.476-3.669-21.71 3.212-23.138 14.22-.895 6.897-1.287 13.95-1.136 21.121 1.585 75.288 63.132 136.321 138.431 137.293 30.528.394 58.881-9.018 82.106-25.276 8.975-6.283 9.874-19.259 1.972-26.847z" fill="#b6c6d9"/><path d="m251 148.791c-58.158 0-105.304 47.146-105.304 105.304s47.146 105.304 105.304 105.304 105.304-47.146 105.304-105.304-47.146-105.304-105.304-105.304zm0 149.961c-24.664 0-44.658-19.994-44.658-44.657s19.994-44.657 44.658-44.657c24.663 0 44.657 19.994 44.657 44.657s-19.993 44.657-44.657 44.657z" fill="url(#SVGID_7_)"/><g><ellipse cx="163.184" cy="184.517" fill="#ea9cc5" rx="14.925" ry="11.994"/><ellipse cx="338.816" cy="184.517" fill="#ea9cc5" rx="14.925" ry="11.994"/><ellipse cx="313.229" cy="154.96" fill="#fff" rx="29.557" ry="29.557" transform="matrix(.16 -.987 .987 .16 110.096 439.323)"/><path d="m295.658 156.408c.755 9.046 8.331 16.153 17.572 16.153s16.817-7.108 17.572-16.153z" fill="#353544"/><path d="m313.229 125.404c-16.324 0-29.557 13.233-29.557 29.557 0 .485.014.968.037 1.447h59.04c.023-.48.037-.962.037-1.447 0-16.324-13.233-29.557-29.557-29.557z" fill="#916fce"/><ellipse cx="188.771" cy="154.96" fill="#fff" rx="29.557" ry="29.557" transform="matrix(.16 -.987 .987 .16 5.574 316.472)"/><path d="m171.199 156.408c.755 9.046 8.331 16.153 17.572 16.153s16.817-7.108 17.572-16.153z" fill="#353544"/><path d="m188.771 125.404c-16.324 0-29.557 13.233-29.557 29.557 0 .485.014.968.037 1.447h59.04c.023-.48.037-.962.037-1.447 0-16.324-13.233-29.557-29.557-29.557z" fill="#916fce"/><path d="m262.365 187.966c-1.824 0-3.653-.662-5.098-2-3.748-3.477-8.787-3.477-12.535 0-3.037 2.816-7.782 2.637-10.6-.401-2.816-3.037-2.637-7.783.4-10.599 9.543-8.846 23.391-8.846 32.934 0 3.037 2.816 3.217 7.562.4 10.599-1.476 1.594-3.486 2.401-5.501 2.401z" fill="#353544"/></g></g></svg>