<svg id="Capa_1" enable-background="new 0 0 502 502" height="512" viewBox="0 0 502 502" width="512" xmlns="http://www.w3.org/2000/svg" xmlns:xlink="http://www.w3.org/1999/xlink"><linearGradient id="SVGID_1_" gradientTransform="matrix(1 0 0 -1.039 0 767.643)" gradientUnits="userSpaceOnUse" x1="251" x2="251" y1="367.271" y2="300.918"><stop offset="0" stop-color="#b1cccc"/><stop offset="1" stop-color="#e6cfcf"/></linearGradient><linearGradient id="lg1"><stop offset="0" stop-color="#465260"/><stop offset="1" stop-color="#5a708d"/></linearGradient><linearGradient id="SVGID_2_" gradientUnits="userSpaceOnUse" x1="-12.975" x2="543.238" xlink:href="#lg1" y1="229.947" y2="229.947"/><linearGradient id="SVGID_3_" gradientUnits="userSpaceOnUse" x1="251" x2="251" y1="391.064" y2="105.852"><stop offset="0" stop-color="#68d0e8"/><stop offset="1" stop-color="#a7e7f5"/></linearGradient><linearGradient id="SVGID_4_" gradientUnits="userSpaceOnUse" x1="251" x2="251" xlink:href="#lg1" y1="502.194" y2="448.112"/><linearGradient id="SVGID_5_" gradientUnits="userSpaceOnUse" x1="251" x2="251" y1="358.524" y2="226.694"><stop offset="0" stop-color="#8b71c7"/><stop offset="1" stop-color="#a891d9"/></linearGradient><linearGradient id="SVGID_6_" gradientUnits="userSpaceOnUse" x1="251" x2="251" y1="264.763" y2="135.468"><stop offset="0" stop-color="#f4c128"/><stop offset="1" stop-color="#f9dd89"/></linearGradient><g><path d="m176.685 386.223h148.629v64.885h-148.629z" fill="url(#SVGID_1_)"/><path d="m242.868 81.803-62.172-62.172c-4.491-4.491-4.491-11.772 0-16.264 4.491-4.49 11.772-4.49 16.264 0l54.04 54.041 54.04-54.04c4.491-4.49 11.773-4.49 16.264 0 4.491 4.491 4.491 11.773 0 16.264l-62.172 62.172c-4.493 4.49-11.773 4.49-16.264-.001z" fill="#a6b4c4"/><path d="m26.487 331.078v-202.262c0-30.455 24.689-55.145 55.144-55.145h338.737c30.455 0 55.144 24.689 55.144 55.145v202.263c0 30.455-24.689 55.145-55.144 55.145h-338.737c-30.455-.001-55.144-24.69-55.144-55.146z" fill="url(#SVGID_2_)"/><path d="m415.666 345.851h-329.333c-10.755 0-19.474-8.719-19.474-19.474v-192.858c0-10.755 8.719-19.474 19.474-19.474h329.333c10.755 0 19.474 8.719 19.474 19.474v192.858c0 10.755-8.718 19.474-19.474 19.474z" fill="url(#SVGID_3_)"/><path d="m338.749 451.108h-175.498c-10.863 0-20.295 7.483-22.764 18.062l-3.001 12.853c-2.383 10.209 5.366 19.976 15.85 19.976h195.328c10.484 0 18.233-9.767 15.85-19.976l-3.001-12.853c-2.47-10.578-11.901-18.062-22.764-18.062z" fill="url(#SVGID_4_)"/><path d="m150.525 329.929c-18.092 0-31.798-16.334-28.656-34.151l11.961-67.832c2.452-13.907 14.535-24.045 28.656-24.045h188.988c18.091 0 31.797 16.334 28.656 34.151l-11.961 67.832c-2.452 13.907-14.535 24.045-28.656 24.045z" fill="url(#SVGID_5_)"/><g><path d="m256.543 134.793 12.372-9.177c5.645-4.188 13.716-.844 14.747 6.108l2.259 15.237c.601 4.055 3.785 7.238 7.839 7.839l15.237 2.259c6.953 1.031 10.296 9.102 6.108 14.747l-9.177 12.372c-2.442 3.292-2.442 7.794 0 11.087l9.177 12.372c4.188 5.645.844 13.716-6.108 14.747l-15.237 2.259c-4.055.601-7.238 3.785-7.839 7.839l-2.259 15.237c-1.031 6.953-9.102 10.296-14.747 6.108l-12.372-9.177c-3.292-2.442-7.794-2.442-11.087 0l-12.372 9.177c-5.645 4.188-13.716.844-14.747-6.108l-2.259-15.237c-.601-4.055-3.785-7.238-7.839-7.839l-15.237-2.259c-6.953-1.031-10.296-9.102-6.108-14.747l9.177-12.372c2.442-3.292 2.442-7.794 0-11.087l-9.177-12.372c-4.188-5.645-.844-13.716 6.108-14.747l15.237-2.259c4.055-.601 7.238-3.785 7.839-7.839l2.259-15.237c1.031-6.953 9.102-10.296 14.747-6.108l12.372 9.177c3.293 2.442 7.795 2.442 11.087 0z" fill="url(#SVGID_6_)"/><path d="m269.023 201.221h-36.047c-6.351 0-11.5-5.148-11.5-11.5s5.149-11.5 11.5-11.5h36.047c6.351 0 11.5 5.148 11.5 11.5s-5.149 11.5-11.5 11.5z" fill="#fcb500"/></g><g><ellipse cx="163.114" cy="307.567" fill="#ea9cc5" rx="14.936" ry="12.003"/><ellipse cx="338.885" cy="307.567" fill="#ea9cc5" rx="14.936" ry="12.003"/><circle cx="188.721" cy="277.949" fill="#fff" r="29.618"/><ellipse cx="200.687" cy="277.949" fill="#353544" rx="17.652" ry="17.652" transform="matrix(.099 -.995 .995 .099 -95.685 450.271)"/><circle cx="313.278" cy="277.949" fill="#fff" r="29.618"/><g fill="#353544"><ellipse cx="325.182" cy="277.949" rx="17.652" ry="17.652" transform="matrix(.16 -.987 .987 .16 -1.267 554.41)"/><ellipse cx="251" cy="300.401" rx="13.252" ry="17.352"/></g></g><path d="m176.685 386.223h101.429c9.665 0 17.5 7.835 17.5 17.5 0 9.665-7.835 17.5-17.5 17.5h-101.429z" fill="#a6b4c4"/><g fill="#c9f5fa"><path d="m405.14 196.066c-5.523 0-10-4.477-10-10v-42.021c0-5.522 4.477-10 10-10s10 4.478 10 10v42.021c0 5.523-4.477 10-10 10z"/><path d="m405.14 244.691c-5.523 0-10-4.477-10-10v-8.053c0-5.522 4.477-10 10-10s10 4.478 10 10v8.053c0 5.523-4.477 10-10 10z"/></g></g></svg>