<svg id="Capa_1" enable-background="new 0 0 502 502" height="512" viewBox="0 0 502 502" width="512" xmlns="http://www.w3.org/2000/svg" xmlns:xlink="http://www.w3.org/1999/xlink"><linearGradient id="SVGID_1_" gradientUnits="userSpaceOnUse" x1="294.245" x2="-43.227" y1="324.308" y2="324.308"><stop offset="0" stop-color="#8b71c7"/><stop offset="1" stop-color="#a891d9"/></linearGradient><linearGradient id="lg1"><stop offset="0" stop-color="#a98bdb"/><stop offset="1" stop-color="#c3afe8"/></linearGradient><linearGradient id="SVGID_2_" gradientUnits="userSpaceOnUse" x1="355.791" x2="187.545" xlink:href="#lg1" y1="416.109" y2="416.109"/><linearGradient id="SVGID_3_" gradientUnits="userSpaceOnUse" x1="157.2" x2="-7.753" xlink:href="#lg1" y1="215.939" y2="215.939"/><linearGradient id="lg2"><stop offset="0" stop-color="#b1cccc"/><stop offset="1" stop-color="#e6cfcf"/></linearGradient><linearGradient id="SVGID_4_" gradientUnits="userSpaceOnUse" x1="320.145" x2="134.927" xlink:href="#lg2" y1="217.621" y2="217.621"/><linearGradient id="SVGID_5_" gradientUnits="userSpaceOnUse" x1="274.673" x2="274.673" y1="-65.281" y2="285.204"><stop offset="0" stop-color="#bfdbdb"/><stop offset="1" stop-color="#f3dbdb"/></linearGradient><linearGradient id="SVGID_6_" gradientUnits="userSpaceOnUse" x1="300.433" x2="381.079" xlink:href="#lg2" y1="161.244" y2="161.244"/><g><path d="m355.384 325.071-178.455-178.454-139.97 139.969c-49.279 49.279-49.279 129.176 0 178.455 49.279 49.279 129.176 49.279 178.455 0z" fill="url(#SVGID_1_)"/><path d="m335.921 305.609-98.367 45.869c-36.756 17.14-74.404-2.372-88.051-33.625-3.082-7.057-10.539-11.152-18.178-10.18-11.645 1.482-18.566 13.772-13.801 24.5 2.055 4.628 4.485 9.157 7.287 13.556 13.19 20.706 33.465 35.817 56.238 42.802-20.084 30.728-20.687 70.538-1.84 101.825 10.436-4.829 20.346-11.164 29.407-18.999-13.467-23.255-10.259-53.52 9.644-73.422l67.433-67.433 32.13 32.13 37.561-37.561z" fill="#7f63c2"/><path d="m371.668 416.476-85.974-85.974-67.433 67.433c-23.741 23.741-23.741 62.233 0 85.974 23.741 23.741 62.233 23.741 85.974 0z" fill="url(#SVGID_2_)"/><path d="m85.524 130.333 85.974 85.974-67.433 67.433c-23.741 23.741-62.233 23.741-85.974 0-23.741-23.741-23.741-62.233 0-85.974z" fill="url(#SVGID_3_)"/><path d="m237.748 77.389-87.226 187.057c-25.84 55.414 31.618 112.872 87.032 87.032l187.057-87.226-24.867-161.996z" fill="url(#SVGID_4_)"/><path d="m471.895.84-404.265 108.322c-22.441 6.013-27.64 35.498-8.609 48.823l95.205 66.663c15.295 10.71 35.142 12.445 52.064 4.555 36.038-16.805 70.597-32.92 94.144-43.9.028-.024 15.007-12.654 21.962-5.699 6.962 6.962-5.7 21.963-5.7 21.963l-43.903 94.15c-7.889 16.918-6.157 36.754 4.55 52.044 21.219 30.304 46.701 66.696 66.672 95.218 13.326 19.031 42.809 13.831 48.822-8.611l108.323-404.263c4.761-17.768-11.497-34.026-29.265-29.265z" fill="url(#SVGID_5_)"/><path d="m361.448 124.289-61.015 61.014c1.034-.482 2.054-.958 3.044-1.42 9.324-4.348 18.982 5.326 14.633 14.65l-1.415 3.033 61.015-61.015c4.491-4.491 4.491-11.772 0-16.264-4.49-4.489-11.771-4.489-16.262.002z" fill="url(#SVGID_6_)"/><g><path d="m286.934 111.9c-4.688 4.688-13.216 3.759-19.049-2.074s-6.762-14.362-2.074-19.049c4.688-4.688 13.216-3.759 19.049 2.074s6.762 14.362 2.074 19.049z" fill="#ea9cc5"/><path d="m411.223 236.189c-4.688 4.688-13.216 3.759-19.049-2.074s-6.762-14.362-2.074-19.049c4.688-4.688 13.216-3.759 19.049 2.074s6.762 14.361 2.074 19.049z" fill="#ea9cc5"/><ellipse cx="315.422" cy="98.502" fill="#fff" rx="29.618" ry="29.618" transform="matrix(.852 -.523 .523 .852 -4.907 179.638)"/><circle cx="403.498" cy="186.578" fill="#fff" r="29.618"/><g fill="#353544"><g><ellipse cx="315.422" cy="98.502" rx="17.652" ry="17.652" transform="matrix(.762 -.648 .648 .762 11.365 227.897)"/><ellipse cx="403.498" cy="186.578" rx="17.652" ry="17.652" transform="matrix(.895 -.445 .445 .895 -40.868 199.254)"/></g><path d="m352.701 170.391c-.064 0-.128-.001-.192-.004-11.667-.439-20.456-9.228-20.897-20.895-.104-2.76 2.048-5.081 4.808-5.186 2.763-.138 5.081 2.048 5.186 4.807.242 6.4 4.881 11.039 11.281 11.281 2.759.104 4.912 2.425 4.808 5.185-.102 2.695-2.32 4.812-4.994 4.812z"/></g></g></g></svg>