<svg id="Capa_1" enable-background="new 0 0 502 502" height="512" viewBox="0 0 502 502" width="512" xmlns="http://www.w3.org/2000/svg" xmlns:xlink="http://www.w3.org/1999/xlink"><linearGradient id="SVGID_1_" gradientUnits="userSpaceOnUse" x1="251" x2="251" y1="412.938" y2="509.197"><stop offset="0" stop-color="#43b36b"/><stop offset=".196" stop-color="#46b570"/><stop offset=".4433" stop-color="#4dbc80"/><stop offset=".7181" stop-color="#5ac79a"/><stop offset="1" stop-color="#6ad6bc"/></linearGradient><linearGradient id="SVGID_2_" gradientUnits="userSpaceOnUse" x1="251" x2="251" y1="432.65" y2="-13.669"><stop offset="0" stop-color="#64cd89"/><stop offset=".2218" stop-color="#66cf8e"/><stop offset=".5016" stop-color="#6dd39e"/><stop offset=".8113" stop-color="#77dbb8"/><stop offset="1" stop-color="#7fe1cb"/></linearGradient><linearGradient id="lg1"><stop offset="0" stop-color="#f4c128"/><stop offset="1" stop-color="#f9dd89"/></linearGradient><linearGradient id="SVGID_3_" gradientUnits="userSpaceOnUse" x1="188.459" x2="63.731" xlink:href="#lg1" y1="181.244" y2="181.244"/><linearGradient id="SVGID_4_" gradientTransform="matrix(-1 0 0 1 502 0)" gradientUnits="userSpaceOnUse" x1="188.459" x2="63.731" xlink:href="#lg1" y1="181.244" y2="181.244"/><linearGradient id="SVGID_5_" gradientUnits="userSpaceOnUse" x1="251" x2="251" y1="255.732" y2="97.858"><stop offset="0" stop-color="#f4d84a"/><stop offset="1" stop-color="#f9ea9d"/></linearGradient><g><path d="m372.199 393.427-88.647 88.647c-17.978 17.978-47.126 17.978-65.105 0l-88.647-88.647z" fill="url(#SVGID_1_)"/><path d="m92.405 6.442h317.189c51.035 0 92.406 41.372 92.406 92.406v216.804c0 51.034-41.371 92.405-92.405 92.405h-317.19c-51.034 0-92.405-41.371-92.405-92.406v-216.803c0-51.034 41.371-92.406 92.405-92.406z" fill="url(#SVGID_2_)"/><path d="m416.776 248.979c-5.523-4.242-13.075-4.892-19.132-1.455-4.145 2.352-9.214 3.14-14.277 1.684l-22.295-6.411c-3.355-.965-6.914-.965-10.269 0l-22.295 6.411c-11.623 3.342-23.291-5.135-23.704-17.222l-.383-11.216c-5.043 2.173-10.866 2.711-16.681 1.039l-29.861-8.587c-4.494-1.292-9.26-1.292-13.754 0l-29.861 8.587c-5.815 1.672-11.638 1.134-16.681-1.039l-.383 11.216c-.413 12.087-12.081 20.564-23.704 17.222l-22.295-6.411c-3.355-.965-6.914-.965-10.269 0l-22.295 6.411c-11.623 3.342-23.291-5.135-23.704-17.222l-.796-23.186c-.119-3.489-1.219-6.874-3.173-9.766l-12.987-19.224c-2.957-4.378-3.772-9.459-2.803-14.138 1.754-8.477-2.816-16.983-10.912-20.049-10.09-3.821-21.154 2.316-23.364 12.877-2.883 13.771-.31 28.489 8.078 40.905l10.343 15.309.631 18.467c.992 29.024 24.5 51.76 53.519 51.76 11.465 0 17.745-3.326 32.595-7.203 14.93 3.898 21.126 7.203 32.594 7.203 21.352 0 39.72-12.309 48.331-30.374l24.011-6.906 24.011 6.905c8.611 18.065 26.981 30.374 48.332 30.374 11.465 0 17.744-3.326 32.594-7.203 14.948 3.903 21.128 7.203 32.591 7.203h.006c9.519 0 18.443-2.449 26.173-6.765 10.979-6.129 12.041-21.536 2.069-29.196z" fill="#36b663"/><g fill="#a1f5d0"><path d="m471.314 99.679c-4.875 0-9.144-3.569-9.88-8.536-.475-3.21-1.256-6.39-2.32-9.45-1.815-5.217.942-10.916 6.158-12.731 5.218-1.817 10.917.943 12.73 6.158 1.475 4.242 2.558 8.646 3.217 13.093.809 5.464-2.965 10.548-8.428 11.357-.496.074-.99.109-1.477.109z"/><path d="m443.317 56.388c-1.857 0-3.735-.517-5.412-1.599-8.463-5.46-18.252-8.347-28.311-8.347h-17.876c-5.523 0-10-4.478-10-10s4.477-10 10-10h17.876c13.913 0 27.452 3.991 39.154 11.542 4.641 2.994 5.976 9.184 2.98 13.824-1.911 2.965-5.127 4.58-8.411 4.58z"/></g><path d="m205.096 151.944-21.806-7.918c-3.281-1.192-6.161-3.283-8.308-6.036l-14.269-18.292c-7.439-9.536-21.861-9.536-29.3 0l-14.269 18.292c-2.147 2.753-5.027 4.845-8.308 6.036l-21.806 7.918c-11.368 4.128-15.825 17.844-9.054 27.866l12.987 19.223c1.954 2.893 3.054 6.278 3.174 9.767l.792 23.185c.413 12.087 12.081 20.564 23.704 17.222l22.295-6.411c3.355-.965 6.914-.965 10.269 0l22.295 6.411c1.405.404 2.809.632 4.195.705 6.45-10.413 19.892-29.143 19.892-29.143l.409-11.969c.119-3.489 1.219-6.874 3.173-9.767l12.987-19.223c6.772-10.022 2.316-23.738-9.052-27.866z" fill="url(#SVGID_3_)"/><path d="m350.802 242.796-22.295 6.411c-11.623 3.342-23.291-5.135-23.704-17.222l-.793-23.185c-.119-3.489-1.219-6.874-3.173-9.767l-12.987-19.223c-6.77-10.022-2.314-23.738 9.054-27.866l21.806-7.918c3.281-1.192 6.161-3.284 8.308-6.036l14.269-18.292c7.439-9.536 21.861-9.536 29.3 0l14.269 18.292c2.147 2.753 5.027 4.845 8.308 6.036l21.806 7.918c11.368 4.128 15.825 17.844 9.054 27.866l-12.987 19.223c-1.954 2.893-3.054 6.278-3.173 9.767l-.792 23.185c-.413 12.087-12.081 20.564-23.704 17.222l-22.295-6.411c-3.357-.965-6.916-.965-10.271 0z" fill="url(#SVGID_4_)"/><path d="m257.877 213.221 29.861 8.587c15.568 4.476 31.195-6.877 31.748-23.066l1.061-31.053c.16-4.673 1.633-9.207 4.25-13.081l17.394-25.746c9.068-13.422 3.099-31.793-12.127-37.322l-29.204-10.606c-4.395-1.596-8.251-4.398-11.127-8.085l-19.112-24.499c-9.963-12.772-29.279-12.772-39.243 0l-19.111 24.499c-2.876 3.687-6.732 6.489-11.127 8.085l-29.205 10.605c-15.226 5.529-21.195 23.899-12.127 37.322l17.394 25.746c2.618 3.874 4.091 8.408 4.25 13.081l1.061 31.053c.553 16.189 16.18 27.543 31.748 23.066l29.861-8.587c4.494-1.291 9.261-1.291 13.755.001z" fill="url(#SVGID_5_)"/><path d="m182.514 198.741-1.061-31.053c-.16-4.673-1.633-9.206-4.25-13.08l-5.273-7.805c-5.452-8.07-16.444-10.137-24.454-4.597-7.889 5.455-9.917 16.243-4.548 24.19l3.645 5.395.962 28.145c.54 15.822 7.157 30.524 18.629 41.398 3.529 3.344 7.4 6.213 11.526 8.577 10.083.532 19.145-7.3 19.509-17.927l.383-11.216c-8.459-3.643-14.722-11.885-15.068-22.027z" fill="#f7b200"/><g><ellipse cx="163.114" cy="359.545" fill="#efb1d2" rx="14.936" ry="12.003"/><ellipse cx="338.886" cy="359.545" fill="#efb1d2" rx="14.936" ry="12.003"/><path d="m188.721 333.893c7.183 0 13.813 1.589 19.159 4.273 4.544 2.281 9.962-.802 10.365-5.87.113-1.423.126-2.875.029-4.348-.991-15.146-13.602-27.24-28.775-27.629-16.713-.428-30.396 12.992-30.396 29.608 0 .843.036 1.678.105 2.503.422 5.01 5.857 7.994 10.349 5.738 5.348-2.684 11.979-4.275 19.164-4.275z" fill="#fff"/><path d="m251 369.732c-6.447 0-12.894-2.155-18.274-6.465-4.989-3.997-5.794-11.282-1.797-16.271 3.997-4.99 11.282-5.793 16.271-1.797 2.237 1.792 5.361 1.792 7.598 0 4.988-3.997 12.273-3.193 16.271 1.797 3.997 4.989 3.193 12.274-1.797 16.271-5.378 4.31-11.825 6.465-18.272 6.465z" fill="#353544"/><path d="m188.721 333.893c5.926 0 11.473 1.082 16.237 2.967.911-2.129 1.415-4.47 1.415-6.933 0-9.749-7.903-17.652-17.652-17.652s-17.652 7.903-17.652 17.652c0 2.463.504 4.803 1.415 6.933 4.764-1.885 10.312-2.967 16.237-2.967z" fill="#353544"/><path d="m313.279 333.893c7.183 0 13.813 1.589 19.158 4.273 4.544 2.281 9.962-.802 10.365-5.87.113-1.423.125-2.875.029-4.348-.991-15.146-13.602-27.24-28.775-27.629-16.713-.428-30.396 12.992-30.396 29.608 0 .843.035 1.678.105 2.503.422 5.01 5.857 7.994 10.349 5.738 5.348-2.684 11.98-4.275 19.165-4.275z" fill="#fff"/><path d="m313.279 333.893c5.926 0 11.473 1.082 16.237 2.967.911-2.129 1.415-4.47 1.415-6.933 0-9.749-7.903-17.652-17.652-17.652s-17.652 7.903-17.652 17.652c0 2.463.504 4.803 1.415 6.933 4.763-1.885 10.311-2.967 16.237-2.967z" fill="#353544"/></g></g></svg>