<svg id="Capa_1" enable-background="new 0 0 502 502" height="512" viewBox="0 0 502 502" width="512" xmlns="http://www.w3.org/2000/svg" xmlns:xlink="http://www.w3.org/1999/xlink"><linearGradient id="lg1"><stop offset="0" stop-color="#68d0e8"/><stop offset="1" stop-color="#a7e7f5"/></linearGradient><linearGradient id="SVGID_1_" gradientUnits="userSpaceOnUse" x1="169.617" x2="169.617" xlink:href="#lg1" y1="226.718" y2="387.05"/><linearGradient id="lg2"><stop offset="0" stop-color="#8b71c7"/><stop offset="1" stop-color="#a891d9"/></linearGradient><linearGradient id="SVGID_2_" gradientUnits="userSpaceOnUse" x1="107.676" x2="107.676" xlink:href="#lg2" y1="504.015" y2="359.943"/><linearGradient id="SVGID_3_" gradientTransform="matrix(-1 0 0 1 102 0)" gradientUnits="userSpaceOnUse" x1="-230.384" x2="-230.384" xlink:href="#lg1" y1="226.718" y2="387.05"/><linearGradient id="SVGID_4_" gradientTransform="matrix(-1 0 0 1 102 0)" gradientUnits="userSpaceOnUse" x1="-292.324" x2="-292.324" xlink:href="#lg2" y1="504.015" y2="359.943"/><linearGradient id="lg3"><stop offset="0" stop-color="#f4d84a"/><stop offset="1" stop-color="#f9ea9d"/></linearGradient><linearGradient id="SVGID_5_" gradientUnits="userSpaceOnUse" x1="251" x2="251" xlink:href="#lg3" y1="321.264" y2="-71.021"/><linearGradient id="SVGID_6_" gradientUnits="userSpaceOnUse" x1="251" x2="251" xlink:href="#lg2" y1="17.112" y2="277.255"/><linearGradient id="SVGID_7_" gradientUnits="userSpaceOnUse" x1="251" x2="251" xlink:href="#lg3" y1="207.754" y2="53.694"/><g><path d="m69.016 326.762c28.51 52.124 79.324 84.619 129.721 94.526 33.345-48.6 63.53-109.225 71.479-179.173l-159.39-18.112c-4.206 37.011-21.245 72.087-41.81 102.759z" fill="url(#SVGID_1_)"/><path d="m69.016 326.762c-15.053 22.452-31.993 42.548-47.19 59.293-9.943 10.956-4.995 28.529 9.21 32.665l46.828 13.633c6.334 1.844 11.351 6.691 13.412 12.958l14.117 42.919c4.782 14.539 23.453 18.555 33.771 7.25 18.221-19.964 39.471-44.893 59.573-74.191-27.465-45.147-84.725-86.242-129.721-94.527z" fill="url(#SVGID_2_)"/><path d="m432.984 326.762c-28.51 52.124-79.324 84.619-129.721 94.526-33.345-48.6-63.53-109.225-71.479-179.173l159.39-18.112c4.206 37.011 21.244 72.087 41.81 102.759z" fill="url(#SVGID_3_)"/><path d="m432.984 326.762c15.053 22.452 31.993 42.548 47.19 59.293 9.943 10.956 4.995 28.529-9.21 32.665l-46.828 13.633c-6.334 1.844-11.351 6.691-13.412 12.958l-14.117 42.919c-4.782 14.539-23.453 18.555-33.771 7.25-18.221-19.964-39.471-44.893-59.573-74.191 27.465-45.147 84.725-86.242 129.721-94.527z" fill="url(#SVGID_4_)"/><path d="m340.538 296.088c-25.518 17.025-56.151 26.985-89.11 27.07 4.404 11.866 9.333 23.352 14.664 34.432 34.523-2.633 66.577-14.227 93.842-32.452 8.565-5.725 10.428-17.532 3.956-25.547-5.695-7.054-15.811-8.535-23.352-3.503z" fill="#15c5d9"/><path d="m94.755 280.732c33.083 43.278 83.699 72.475 141.153 76.858 16.711-34.73 29.529-73.418 34.308-115.475l-159.39-18.112c-2.224 19.572-8.047 38.601-16.071 56.729z" fill="#15c5d9"/><circle cx="251" cy="161.582" fill="url(#SVGID_5_)" r="161.582"/><circle cx="251" cy="161.582" fill="url(#SVGID_6_)" r="110.846"/><path d="m245.72 220.665-22.928 6.593c-11.953 3.437-23.952-5.281-24.376-17.711l-.815-23.843c-.123-3.588-1.254-7.069-3.264-10.044l-13.355-19.768c-6.963-10.306-2.38-24.411 9.311-28.657l22.424-8.143c3.375-1.225 6.336-3.377 8.544-6.208l14.674-18.81c7.65-9.806 22.481-9.806 30.131 0l14.674 18.81c2.208 2.831 5.169 4.982 8.544 6.208l22.424 8.143c11.69 4.245 16.273 18.351 9.311 28.657l-13.355 19.768c-2.01 2.975-3.141 6.456-3.264 10.044l-.815 23.843c-.425 12.43-12.424 21.148-24.377 17.711l-22.928-6.593c-3.45-.992-7.11-.992-10.56 0z" fill="url(#SVGID_7_)"/><g fill="#fffbcc"><path d="m368.642 99.302c-3.357 0-6.635-1.69-8.524-4.757-1.954-3.173-4.071-6.297-6.295-9.286-3.296-4.433-2.375-10.696 2.057-13.992 4.433-3.297 10.696-2.374 13.992 2.057 2.569 3.456 5.018 7.067 7.275 10.733 2.897 4.703 1.432 10.863-3.27 13.759-1.636 1.006-3.447 1.486-5.235 1.486z"/><path d="m332.827 60.398c-2.061 0-4.141-.635-5.927-1.952-12.128-8.941-25.576-15.605-39.971-19.808-5.301-1.548-8.345-7.101-6.797-12.402 1.548-5.302 7.101-8.339 12.402-6.797 16.654 4.862 32.21 12.57 46.234 22.909 4.445 3.277 5.392 9.538 2.114 13.983-1.958 2.66-4.986 4.067-8.055 4.067z"/></g></g></svg>