<svg id="Capa_1" enable-background="new 0 0 502 502" height="512" viewBox="0 0 502 502" width="512" xmlns="http://www.w3.org/2000/svg" xmlns:xlink="http://www.w3.org/1999/xlink"><linearGradient id="SVGID_1_" gradientUnits="userSpaceOnUse" x1="290.779" x2="-8.897" y1="354.664" y2="354.664"><stop offset="0" stop-color="#8b71c7"/><stop offset="1" stop-color="#a891d9"/></linearGradient><linearGradient id="SVGID_2_" gradientUnits="userSpaceOnUse" x1="354.664" x2="354.664" y1="290.875" y2="-15.883"><stop offset="0" stop-color="#68d0e8"/><stop offset="1" stop-color="#a7e7f5"/></linearGradient><linearGradient id="SVGID_3_" gradientUnits="userSpaceOnUse" x1="251" x2="251" y1="325.953" y2="141.974"><stop offset="0" stop-color="#f4c128"/><stop offset="1" stop-color="#f9dd89"/></linearGradient><g><path d="m265.227 407.631-64.924 64.924c-39.261 39.261-103.143 39.261-142.404 0l-28.453-28.453c-39.261-39.261-39.261-103.143 0-142.404l64.924-64.924c39.261-39.261 103.143-39.261 142.404 0l28.453 28.453c39.261 39.261 39.261 103.143 0 142.404zm-186.388-56.541c-12.025 12.025-12.025 31.591 0 43.617l28.453 28.453c12.026 12.026 31.592 12.026 43.617 0l64.924-64.924c12.025-12.025 12.025-31.591 0-43.617l-28.453-28.453c-12.026-12.026-31.592-12.026-43.617 0z" fill="url(#SVGID_1_)"/><path d="m265.227 265.227-28.453-28.453-49.394 49.394 28.454 28.454c12.044 12.044 12.044 31.572 0 43.616l-40.532 40.532c-6.444 6.444-6.444 16.891 0 23.335 6.444 6.444 16.891 6.444 23.334 0l40.532-40.532c11.447-11.447 17.614-26.197 18.533-41.21l32.78-32.78c-4.611-15.516-13.028-30.13-25.254-42.356z" fill="#7f63c2"/><path d="m472.554 200.303-64.924 64.924c-39.261 39.261-103.143 39.261-142.404 0l-28.453-28.453c-39.261-39.261-39.261-103.143 0-142.404l64.924-64.924c39.261-39.261 103.143-39.261 142.404 0l28.453 28.453c39.261 39.261 39.261 103.143 0 142.404zm-186.387-56.54c-12.025 12.025-12.025 31.591 0 43.617l28.453 28.453c12.026 12.026 31.592 12.026 43.617 0l64.924-64.924c12.025-12.025 12.025-31.591 0-43.617l-28.453-28.453c-12.026-12.026-31.592-12.026-43.617 0z" fill="url(#SVGID_2_)"/><path d="m329.626 172.374c-13.64-13.64-35.754-13.64-49.394 0l-107.858 107.858c-13.64 13.64-13.64 35.754 0 49.394 13.64 13.64 35.754 13.64 49.394 0l107.858-107.858c13.639-13.64 13.639-35.754 0-49.394z" fill="url(#SVGID_3_)"/><g fill="#c9f5fa"><path d="m311.832 71.736c-2.559 0-5.119-.977-7.071-2.929-3.905-3.905-3.905-10.237 0-14.143l6.769-6.768c3.905-3.904 10.237-3.904 14.143 0 3.905 3.905 3.905 10.237 0 14.143l-6.769 6.768c-1.953 1.953-4.513 2.929-7.072 2.929z"/><path d="m404.187 47.255c-1.483 0-2.989-.331-4.41-1.03-13.743-6.766-29.441-8.087-44.203-3.719-5.297 1.566-10.86-1.456-12.427-6.751-1.567-5.296 1.455-10.859 6.751-12.427 19.597-5.798 40.448-4.041 58.714 4.953 4.955 2.439 6.994 8.434 4.554 13.389-1.74 3.534-5.289 5.585-8.979 5.585z"/></g></g></svg>