<svg id="Capa_1" enable-background="new 0 0 502 502" height="512" viewBox="0 0 502 502" width="512" xmlns="http://www.w3.org/2000/svg" xmlns:xlink="http://www.w3.org/1999/xlink"><linearGradient id="SVGID_1_" gradientUnits="userSpaceOnUse" x1="251" x2="251" y1="467.341" y2="254.706"><stop offset="0" stop-color="#64cd89"/><stop offset=".2218" stop-color="#66cf8e"/><stop offset=".5016" stop-color="#6dd39e"/><stop offset=".8113" stop-color="#77dbb8"/><stop offset="1" stop-color="#7fe1cb"/></linearGradient><linearGradient id="SVGID_2_" gradientUnits="userSpaceOnUse" x1="251" x2="251" y1="261.113" y2="38.944"><stop offset="0" stop-color="#b1cccc"/><stop offset="1" stop-color="#e6cfcf"/></linearGradient><linearGradient id="SVGID_3_" gradientUnits="userSpaceOnUse" x1="73.408" x2="460.52" y1="273.114" y2="273.114"><stop offset="0" stop-color="#43b36b"/><stop offset=".196" stop-color="#46b570"/><stop offset=".4433" stop-color="#4dbc80"/><stop offset=".7181" stop-color="#5ac79a"/><stop offset="1" stop-color="#6ad6bc"/></linearGradient><g><path d="m73.408 303.804v132.511c0 22.295 18.073 40.368 40.368 40.368h274.449c22.295 0 40.368-18.073 40.368-40.368v-132.511l-177.593-52.804z" fill="url(#SVGID_1_)"/><g fill="#f7b200"><path d="m60.279 209.275-29.583-29.584c-4.491-4.491-4.491-11.773 0-16.264 4.492-4.49 11.773-4.492 16.264 0l29.584 29.584c4.491 4.491 4.491 11.773 0 16.264-4.492 4.49-11.773 4.493-16.265 0z"/><path d="m38.828 272.613h-27.328c-6.351 0-11.5-5.148-11.5-11.5s5.149-11.5 11.5-11.5h27.328c6.351 0 11.5 5.148 11.5 11.5s-5.149 11.5-11.5 11.5z"/><path d="m425.457 209.275c-4.491-4.491-4.491-11.773 0-16.264l29.583-29.584c4.491-4.49 11.772-4.49 16.264 0 4.491 4.491 4.491 11.773 0 16.264l-29.584 29.584c-4.492 4.492-11.772 4.491-16.263 0z"/><path d="m490.5 272.613h-27.328c-6.351 0-11.5-5.148-11.5-11.5s5.149-11.5 11.5-11.5h27.328c6.351 0 11.5 5.148 11.5 11.5s-5.149 11.5-11.5 11.5z"/></g><g fill="#a1f5d0"><path d="m388.225 456.683h-12.217c-5.523 0-10-4.478-10-10s4.477-10 10-10h12.217c5.523 0 10 4.478 10 10s-4.477 10-10 10z"/><path d="m335.031 456.683h-60.939c-5.523 0-10-4.478-10-10s4.477-10 10-10h60.939c5.523 0 10 4.478 10 10s-4.477 10-10 10z"/></g><g><ellipse cx="163.114" cy="390.557" fill="#efb1d2" rx="14.936" ry="12.003"/><ellipse cx="338.886" cy="390.557" fill="#efb1d2" rx="14.936" ry="12.003"/><ellipse cx="188.721" cy="360.939" fill="#fff" rx="29.618" ry="29.618" transform="matrix(.386 -.922 .922 .386 -217.097 395.64)"/><ellipse cx="313.279" cy="360.939" fill="#fff" rx="29.618" ry="29.618" transform="matrix(.386 -.922 .922 .386 -140.639 510.536)"/><g fill="#353544"><g><ellipse cx="188.721" cy="360.939" rx="17.652" ry="17.652" transform="matrix(.161 -.987 .987 .161 -197.844 489.234)"/><ellipse cx="313.279" cy="360.939" rx="17.652" ry="17.652" transform="matrix(.231 -.973 .973 .231 -110.18 582.532)"/></g><path d="m251 391.499c-5.248 0-10.495-1.984-14.776-5.953-2.025-1.878-2.145-5.041-.267-7.066 1.877-2.025 5.041-2.143 7.066-.268 4.696 4.355 11.258 4.355 15.954 0 2.025-1.877 5.188-1.757 7.066.268 1.877 2.025 1.758 5.189-.267 7.066-4.281 3.969-9.528 5.953-14.776 5.953z"/></g></g><path d="m387.566 261.113h-78.137v-99.229c0-32.217-26.211-58.429-58.429-58.429s-58.429 26.212-58.429 58.429v99.229h-78.137v-99.229c0-75.303 61.264-136.566 136.566-136.566s136.566 61.264 136.566 136.566z" fill="url(#SVGID_2_)"/><path d="m198.094 112.923c-7.395-7.395-19.773-5.796-25.075 3.218-7.957 13.528-12.448 29.21-12.448 45.742v48.541h-46.137v50.688h78.137v-99.229c0-10.701 2.892-20.739 7.935-29.374 3.704-6.343 2.82-14.354-2.375-19.548z" fill="#a6b4c4"/><path d="m388.224 242.424h-274.448c-22.295 0-40.368 18.074-40.368 40.368v21.011h355.185v-21.011c-.001-22.294-18.074-40.368-40.369-40.368z" fill="url(#SVGID_3_)"/></g></svg>