<svg id="Capa_1" enable-background="new 0 0 502 502" height="512" viewBox="0 0 502 502" width="512" xmlns="http://www.w3.org/2000/svg" xmlns:xlink="http://www.w3.org/1999/xlink"><linearGradient id="SVGID_1_" gradientUnits="userSpaceOnUse" x1="251" x2="251" y1="458.97" y2="202.072"><stop offset="0" stop-color="#bfdbdb"/><stop offset="1" stop-color="#f3dbdb"/></linearGradient><linearGradient id="SVGID_2_" gradientUnits="userSpaceOnUse" x1="211.206" x2="303.729" y1="285.96" y2="285.96"><stop offset="0" stop-color="#8b71c7"/><stop offset="1" stop-color="#a891d9"/></linearGradient><linearGradient id="SVGID_3_" gradientUnits="userSpaceOnUse" x1="66.757" x2="411.709" y1="125.767" y2="125.767"><stop offset="0" stop-color="#68d0e8"/><stop offset="1" stop-color="#a7e7f5"/></linearGradient><linearGradient id="SVGID_4_" gradientUnits="userSpaceOnUse" x1="151.916" x2="358.229" y1="205.577" y2="205.577"><stop offset="0" stop-color="#4ba7e6"/><stop offset="1" stop-color="#94ccf0"/></linearGradient><g><path d="m396.967 427.923c57.557 0 105.6-47.095 105.028-104.649-.626-63.07-56.802-110.006-117.533-101.592-7.777 1.077-15.065-3.928-16.758-11.595-11.828-53.569-59.578-93.646-116.704-93.646s-104.876 40.077-116.704 93.647c-1.693 7.667-8.982 12.671-16.759 11.595-60.632-8.392-116.825 38.4-117.53 101.456-.645 57.628 47.399 104.785 105.03 104.785h291.93z" fill="url(#SVGID_1_)"/><path d="m170.615 412.923c0-8.284-6.716-15-15-15h-50.578c-29.806 0-56.592-17.91-68.505-43.841-3.149-6.856-10.944-10.257-18.134-7.973-8.54 2.713-12.884 12.293-9.146 20.437 16.583 36.125 53.614 61.376 95.785 61.376h50.578c8.284.001 15-6.714 15-14.999z" fill="#b6c6d9"/><g><path d="m231.654 263.897c-12.17 4.259-15.827 19.829-6.615 29.041l13.522 13.522c6.869 6.87 18.007 6.87 24.877 0l13.871-13.871c9.048-9.048 5.683-24.432-6.248-28.908-15.879-5.957-30.736-2.818-39.407.216z" fill="url(#SVGID_2_)"/><path d="m91.751 132.838c-7.803 6.688-8.204 18.607-1.004 25.807l13.664 13.664c6.471 6.471 16.785 6.89 23.776.984 70.684-59.709 174.942-59.709 245.626 0 6.978 5.895 17.317 5.475 23.776-.984l13.68-13.68c7.24-7.24 6.786-19.099-.974-25.781-95.262-82.031-231.519-74.602-318.544-.01z" fill="url(#SVGID_3_)"/><path d="m158.799 198.541c-8.413 6.454-9.255 18.903-1.748 26.41l13.76 13.76c6.143 6.142 15.808 6.869 22.817 1.737 34.024-24.914 80.717-24.914 114.741 0 6.994 5.121 16.688 4.392 22.817-1.737l13.802-13.802c7.482-7.482 6.713-19.842-1.668-26.348-57.983-45.016-134.732-38.216-184.521-.02z" fill="url(#SVGID_4_)"/></g><g><ellipse cx="163.115" cy="378.544" fill="#ea9cc5" rx="14.936" ry="12.003"/><ellipse cx="338.886" cy="378.544" fill="#ea9cc5" rx="14.936" ry="12.003"/><circle cx="188.721" cy="348.926" fill="#fff" r="29.618"/><ellipse cx="176.756" cy="348.926" fill="#353544" rx="17.652" ry="17.652" transform="matrix(.161 -.987 .987 .161 -196.084 467.174)"/><circle cx="313.279" cy="348.926" fill="#fff" r="29.618"/><g fill="#353544"><ellipse cx="301.313" cy="348.926" rx="17.652" ry="17.652" transform="matrix(.447 -.895 .895 .447 -145.444 462.714)"/><path d="m258.59 356.12h-15.18c-3.007 0-5.658 1.976-6.506 4.862-2.672 9.09-5.742 27.748 14.097 27.748 19.838 0 16.769-18.659 14.096-27.748-.849-2.885-3.499-4.862-6.507-4.862z"/></g></g><g fill="#c9f5fa"><path d="m385.281 153.106c-2.115 0-4.247-.669-6.06-2.052-10.261-7.831-21.286-14.751-32.77-20.568-4.927-2.496-6.897-8.513-4.402-13.439 2.495-4.927 8.513-6.896 13.439-4.402 12.57 6.368 24.638 13.941 35.867 22.512 4.39 3.35 5.233 9.626 1.882 14.017-1.966 2.577-4.944 3.932-7.956 3.932z"/><path d="m313.745 116.798c-.935 0-1.887-.133-2.83-.41-3.73-1.1-7.541-2.108-11.327-2.999-5.376-1.265-8.709-6.648-7.444-12.024 1.266-5.376 6.65-8.701 12.024-7.444 4.145.976 8.316 2.08 12.399 3.282 5.298 1.562 8.327 7.121 6.767 12.419-1.283 4.354-5.269 7.176-9.589 7.176z"/></g></g></svg>