<svg id="Capa_1" enable-background="new 0 0 502 502" height="512" viewBox="0 0 502 502" width="512" xmlns="http://www.w3.org/2000/svg" xmlns:xlink="http://www.w3.org/1999/xlink"><linearGradient id="lg1"><stop offset="0" stop-color="#68d0e8"/><stop offset="1" stop-color="#a7e7f5"/></linearGradient><linearGradient id="SVGID_1_" gradientTransform="matrix(1 0 0 -1 .198 504)" gradientUnits="userSpaceOnUse" x1="108.568" x2="108.568" xlink:href="#lg1" y1="154.615" y2="31.422"/><linearGradient id="SVGID_2_" gradientTransform="matrix(1 0 0 -1 -140.208 504)" gradientUnits="userSpaceOnUse" x1="104.097" x2="600.956" xlink:href="#lg1" y1="275.854" y2="275.854"/><linearGradient id="SVGID_3_" gradientTransform="matrix(1 0 0 -1 0 504)" gradientUnits="userSpaceOnUse" x1="251.594" x2="251.594" y1="203.718" y2="476.889"><stop offset="0" stop-color="#ec6476"/><stop offset="1" stop-color="#ec909c"/></linearGradient><g><path d="m45.885 228.765c69.456 0 125.762 56.305 125.762 125.762 0 49.471-28.565 92.271-70.101 112.805-25.641 12.676-55.661-6.369-55.661-34.972z" fill="url(#SVGID_1_)"/><ellipse cx="251" cy="228.146" fill="url(#SVGID_2_)" rx="251" ry="166.723"/><path d="m251.594 330.467c-13.304 0-26.584-3.218-38.404-9.304-15.016-7.728-53.715-29.639-88.693-66.111-47.369-49.392-70.331-86.448-60.891-137.827 0 0 37.816-29.276 53.801-34.452l.507.182c13.719 21.139 39.761 63.495 74.785 103.682 31.28 35.893 74.19 80.942 100.977 91.725l.879-.065c2.698-1.583 5.772-2.42 8.89-2.42 5.492 0 10.553 2.494 13.883 6.843 2.986 3.899 4.195 8.908 3.317 13.742-.88 4.85-3.786 9.131-7.974 11.744-9.713 6.064-17.691 10.395-22.675 12.96-11.821 6.084-25.1 9.301-38.402 9.301z" fill="#15c5d9"/><path d="m98.854 131.951c-5.356-53.802 35.731-102.073 89.793-101.27 24.743.368 47.025 10.844 62.947 27.461 15.922-16.618 38.204-27.094 62.947-27.461 54.062-.803 95.149 47.467 89.793 101.27-7.604 76.38-84.686 134.587-130.355 158.094-14.063 7.239-30.707 7.239-44.77 0-45.669-23.507-122.752-81.715-130.355-158.094z" fill="url(#SVGID_3_)"/><g><ellipse cx="163.115" cy="172.356" fill="#efb1d2" rx="14.936" ry="12.003"/><ellipse cx="338.886" cy="172.356" fill="#efb1d2" rx="14.936" ry="12.003"/><path d="m188.721 146.704c7.183 0 13.813 1.589 19.159 4.273 4.544 2.281 9.962-.801 10.365-5.87.113-1.423.126-2.875.029-4.348-.991-15.146-13.602-27.24-28.775-27.629-16.713-.428-30.396 12.992-30.396 29.608 0 .843.035 1.678.105 2.503.422 5.01 5.857 7.995 10.349 5.738 5.348-2.685 11.979-4.275 19.164-4.275z" fill="#fff"/><path d="m251 182.542c-6.447 0-12.894-2.155-18.273-6.465-4.989-3.997-5.794-11.282-1.797-16.271 3.997-4.99 11.282-5.793 16.271-1.797 2.237 1.792 5.361 1.792 7.598 0 4.988-3.997 12.273-3.193 16.271 1.797 3.997 4.989 3.193 12.274-1.797 16.271-5.379 4.31-11.826 6.465-18.273 6.465z" fill="#353544"/><path d="m188.721 146.704c5.926 0 11.473 1.082 16.237 2.967.911-2.129 1.415-4.47 1.415-6.933 0-9.749-7.903-17.652-17.652-17.652s-17.652 7.903-17.652 17.652c0 2.463.504 4.803 1.415 6.933 4.764-1.885 10.312-2.967 16.237-2.967z" fill="#353544"/><path d="m313.279 146.704c7.183 0 13.813 1.589 19.158 4.273 4.544 2.281 9.962-.801 10.365-5.87.113-1.423.125-2.875.029-4.348-.991-15.146-13.602-27.24-28.775-27.629-16.713-.428-30.396 12.992-30.396 29.608 0 .843.035 1.678.105 2.503.422 5.01 5.857 7.995 10.349 5.738 5.348-2.685 11.98-4.275 19.165-4.275z" fill="#fff"/><path d="m313.279 146.704c5.926 0 11.473 1.082 16.237 2.967.911-2.129 1.415-4.47 1.415-6.933 0-9.749-7.903-17.652-17.652-17.652s-17.652 7.903-17.652 17.652c0 2.463.504 4.803 1.415 6.933 4.763-1.885 10.311-2.967 16.237-2.967z" fill="#353544"/></g><path d="m45.885 324.261v82.933c0 8.284 6.716 15 15 15 8.284 0 15-6.716 15-15v-25.046c18.18 14.786 52.722 30.339 79.842 33.664 5.207-8.862 9.185-19.27 12.041-30.38-55.681-14.448-87.875-29.926-121.883-61.171z" fill="#15c5d9"/><g fill="#c9f5fa"><path d="m475 238.146c-5.522 0-10-4.478-10-10 0-3.83-.103-7.666-.309-11.4-.302-5.515 3.924-10.23 9.439-10.532 5.526-.284 10.23 3.924 10.532 9.438.224 4.098.338 8.301.338 12.494 0 5.523-4.478 10-10 10z"/><path d="m467.26 185.877c-4.133 0-7.999-2.582-9.44-6.703-5.334-15.262-13.707-27.698-25.599-38.021-4.171-3.621-4.616-9.936-.996-14.107 3.621-4.171 9.938-4.615 14.107-.996 14.593 12.669 24.853 27.888 31.368 46.525 1.822 5.214-.928 10.918-6.141 12.74-1.091.38-2.205.562-3.299.562z"/></g></g></svg>