<svg id="Capa_1" enable-background="new 0 0 502 502" height="512" viewBox="0 0 502 502" width="512" xmlns="http://www.w3.org/2000/svg" xmlns:xlink="http://www.w3.org/1999/xlink"><linearGradient id="SVGID_1_" gradientTransform="matrix(0 -1 -1 0 111.975 743.179)" gradientUnits="userSpaceOnUse" x1="253.372" x2="343.097" y1="-139.025" y2="-139.025"><stop offset="0" stop-color="#ec6476"/><stop offset="1" stop-color="#ec909c"/></linearGradient><linearGradient id="SVGID_2_" gradientTransform="matrix(0 -1 1 0 471.694 603.068)" gradientUnits="userSpaceOnUse" x1="149.121" x2="238.847" y1="-387.282" y2="-387.282"><stop offset="0" stop-color="#a98bdb"/><stop offset="1" stop-color="#c3afe8"/></linearGradient><linearGradient id="SVGID_3_" gradientTransform="matrix(0 -1 -1 0 430.306 603.068)" gradientUnits="userSpaceOnUse" x1="149.121" x2="238.847" y1="12.718" y2="12.718"><stop offset="0" stop-color="#64cd89"/><stop offset=".2218" stop-color="#66cf8e"/><stop offset=".5016" stop-color="#6dd39e"/><stop offset=".8113" stop-color="#77dbb8"/><stop offset="1" stop-color="#7fe1cb"/></linearGradient><linearGradient id="SVGID_4_" gradientUnits="userSpaceOnUse" x1="251" x2="251" y1="183.335" y2="310.499"><stop offset="0" stop-color="#f4c128"/><stop offset="1" stop-color="#f9dd89"/></linearGradient><linearGradient id="SVGID_5_" gradientUnits="userSpaceOnUse" x1="128.205" x2="373.795" y1="111.405" y2="111.405"><stop offset="0" stop-color="#f4d84a"/><stop offset="1" stop-color="#f9ea9d"/></linearGradient><linearGradient id="SVGID_6_" gradientUnits="userSpaceOnUse" x1="113.964" x2="388.036" y1="311.556" y2="311.556"><stop offset="0" stop-color="#465260"/><stop offset="1" stop-color="#5a708d"/></linearGradient><g><path d="m251 465.913c-6.351 0-11.5-5.148-11.5-11.5v-126.11c0-6.352 5.149-11.5 11.5-11.5s11.5 5.148 11.5 11.5v126.11c0 6.352-5.149 11.5-11.5 11.5z" fill="#e05467"/><circle cx="251" cy="454.413" fill="url(#SVGID_1_)" r="47.587"/><path d="m84.413 430.053c-2.943 0-5.886-1.122-8.132-3.368-4.491-4.491-4.491-11.772 0-16.264l90.25-90.25c4.491-4.491 11.772-4.491 16.264 0 4.491 4.491 4.491 11.772 0 16.264l-90.25 90.25c-2.246 2.245-5.189 3.368-8.132 3.368z" fill="#916fce"/><circle cx="84.413" cy="418.553" fill="url(#SVGID_2_)" r="47.587"/><path d="m417.587 430.053c-2.943 0-5.886-1.123-8.132-3.368l-90.251-90.25c-4.491-4.491-4.491-11.772 0-16.264 4.491-4.489 11.773-4.491 16.264 0l90.251 90.25c4.491 4.491 4.491 11.772 0 16.264-2.246 2.245-5.189 3.368-8.132 3.368z" fill="#36b663"/><circle cx="417.587" cy="418.553" fill="url(#SVGID_3_)" r="47.587"/><path d="m347.43 307.231c8.699 0 15.449-7.701 14.191-16.309-7.895-54.016-54.414-95.493-110.621-95.493s-102.726 41.477-110.621 95.493c-1.258 8.608 5.492 16.309 14.191 16.309z" fill="url(#SVGID_4_)"/><path d="m299.278 228.523c-2.744-6.612-9.796-10.436-16.799-8.952-10.046 2.129-20.595 3.239-31.479 3.239-20.766 0-40.324-4.027-57.472-11.482-9.469 5.688-18.031 12.731-25.406 20.872 24.128 13.408 52.7 20.61 82.878 20.61 12.852 0 25.41-1.311 37.459-3.85 9.214-1.942 14.428-11.74 10.819-20.437z" fill="#f7b200"/><path d="m373.795 114.565c0-65.367-54.977-114.565-122.795-114.565s-122.795 49.198-122.795 114.565 54.977 108.244 122.795 108.244 122.795-42.878 122.795-108.244z" fill="url(#SVGID_5_)"/><g><ellipse cx="163.115" cy="138.466" fill="#ea9cc5" rx="14.936" ry="12.003"/><ellipse cx="338.886" cy="138.466" fill="#ea9cc5" rx="14.936" ry="12.003"/><circle cx="188.721" cy="108.848" fill="#fff" r="29.618"/><circle cx="313.279" cy="108.848" fill="#fff" r="29.618"/><g fill="#353544"><g><circle cx="188.721" cy="108.848" r="17.652"/><circle cx="313.279" cy="108.848" r="17.652"/></g><path d="m251 139.408c-5.248 0-10.495-1.984-14.776-5.953-2.025-1.878-2.145-5.041-.267-7.066s5.042-2.144 7.066-.268c4.696 4.355 11.258 4.355 15.954 0 2.025-1.876 5.188-1.757 7.066.268 1.877 2.025 1.758 5.188-.267 7.066-4.281 3.969-9.528 5.953-14.776 5.953z"/></g></g><path d="m366.49 281.523h-230.98c-11.899 0-21.546 9.646-21.546 21.546v16.974c0 11.899 9.646 21.546 21.546 21.546h230.98c11.899 0 21.546-9.646 21.546-21.546v-16.974c0-11.9-9.647-21.546-21.546-21.546z" fill="url(#SVGID_6_)"/></g></svg>