<svg id="Capa_1" enable-background="new 0 0 502 502" height="512" viewBox="0 0 502 502" width="512" xmlns="http://www.w3.org/2000/svg" xmlns:xlink="http://www.w3.org/1999/xlink"><linearGradient id="SVGID_1_" gradientUnits="userSpaceOnUse" x1="246.479" x2="246.479" y1="466.084" y2="131.399"><stop offset="0" stop-color="#bfdbdb"/><stop offset="1" stop-color="#f3dbdb"/></linearGradient><linearGradient id="SVGID_3_" gradientTransform="matrix(0 -1 1 0 1946 -2308)" gradientUnits="userSpaceOnUse" x1="-2754.65" x2="-2490.472" y1="-1699.521" y2="-1699.521"><stop offset="0" stop-color="#4ba7e6"/><stop offset="1" stop-color="#94ccf0"/></linearGradient><linearGradient id="SVGID_4_" gradientTransform="matrix(0 -1 1 0 1946 -2308)" gradientUnits="userSpaceOnUse" x1="-2677.277" x2="-2567.846" y1="-1699.521" y2="-1699.521"><stop offset="0" stop-color="#465260"/><stop offset="1" stop-color="#5a708d"/></linearGradient><linearGradient id="SVGID_5_" gradientUnits="userSpaceOnUse" x1="374.878" x2="374.878" y1="340.326" y2="87.652"><stop offset="0" stop-color="#64cd89"/><stop offset=".2218" stop-color="#66cf8e"/><stop offset=".5016" stop-color="#6dd39e"/><stop offset=".8113" stop-color="#77dbb8"/><stop offset="1" stop-color="#7fe1cb"/></linearGradient><linearGradient id="lg1"><stop offset="0" stop-color="#43b36b"/><stop offset=".196" stop-color="#46b570"/><stop offset=".4433" stop-color="#4dbc80"/><stop offset=".7181" stop-color="#5ac79a"/><stop offset="1" stop-color="#6ad6bc"/></linearGradient><linearGradient id="SVGID_6_" gradientUnits="userSpaceOnUse" x1="342.715" x2="342.715" xlink:href="#lg1" y1="92.987" y2="58.252"/><linearGradient id="SVGID_7_" gradientUnits="userSpaceOnUse" x1="488.083" x2="488.083" xlink:href="#lg1" y1="252.892" y2="178.752"/><linearGradient id="SVGID_8_" gradientUnits="userSpaceOnUse" x1="261.672" x2="261.672" xlink:href="#lg1" y1="188.453" y2="115.365"/><linearGradient id="SVGID_9_" gradientUnits="userSpaceOnUse" x1="407.041" x2="407.041" xlink:href="#lg1" y1="310.233" y2="270.767"/><linearGradient id="SVGID_10_" gradientUnits="userSpaceOnUse" x1="374.878" x2="374.878" xlink:href="#lg1" y1="223.656" y2="125.339"/><g><path d="m246.479 446.65c-87.664 0-158.037-34.602-233.512-102.848-17.289-15.633-17.289-42.85 0-58.483 75.475-68.246 145.847-102.848 233.512-102.848 87.664 0 158.037 34.602 233.512 102.848 17.289 15.633 17.289 42.85 0 58.483-75.475 68.247-145.848 102.848-233.512 102.848z" fill="url(#SVGID_1_)"/><path d="m246.479 446.65c-87.664 0-158.037-34.602-233.512-102.848-17.289-15.633-17.289-42.85 0-58.483 75.475-68.246 145.847-102.848 233.512-102.848 87.664 0 158.037 34.602 233.512 102.848 17.289 15.633 17.289 42.85 0 58.483-75.475 68.247-145.848 102.848-233.512 102.848z" fill="url(#SVGID_1_)"/><path d="m479.991 285.319c-47.557-43.001-93.091-72.632-142.198-88.679l11.101 23.545-43.659 43.659 57.323 57.323c24.587 24.587 64.381 24.586 88.965 0l32.093-32.093c-1.113-1.308-2.313-2.568-3.625-3.755z" fill="#b6c6d9"/><circle cx="246.479" cy="314.561" fill="url(#SVGID_3_)" r="132.089"/><path d="m275.717 213.114c-5.858 5.858-5.858 15.355 0 21.213l86.841 86.841c4.498 4.498 9.508 8.164 14.837 11.016.769-5.766 1.173-11.647 1.173-17.623 0-7.352-.618-14.557-1.773-21.582l-79.865-79.865c-5.858-5.857-15.355-5.857-21.213 0z" fill="#04a3db"/><circle cx="246.479" cy="314.561" fill="url(#SVGID_4_)" r="54.716"/><g fill="#aae5ff"><path d="m221.045 422.683c-.829 0-1.671-.103-2.511-.32-13.111-3.393-25.379-9.104-36.462-16.978-4.502-3.198-5.56-9.441-2.361-13.943 3.198-4.502 9.441-5.559 13.943-2.361 9.089 6.457 19.146 11.14 29.889 13.919 5.347 1.384 8.56 6.84 7.176 12.186-1.165 4.506-5.225 7.497-9.674 7.497z"/><path d="m160.186 377.7c-3.354 0-6.63-1.686-8.521-4.751-1.304-2.114-2.551-4.296-3.707-6.485-2.579-4.884-.71-10.934 4.174-13.512 4.883-2.579 10.933-.711 13.512 4.174.948 1.797 1.972 3.588 3.043 5.323 2.899 4.7 1.439 10.861-3.261 13.761-1.635 1.01-3.449 1.49-5.24 1.49z"/></g><g><path d="m474.167 256.099 10.631-41.464-10.631-41.464-89.988-89.988-41.464-10.632-41.464 10.632-25.663 25.662-10.631 41.464 10.631 41.464 89.989 89.988 41.464 10.632 41.463-10.632z" fill="url(#SVGID_5_)"/><path d="m384.179 83.183-18.195-18.195c-12.851-12.851-33.687-12.851-46.539 0l-18.195 18.195z" fill="url(#SVGID_6_)"/><path d="m474.167 173.171 18.195 18.195c12.851 12.851 12.852 33.687 0 46.538l-18.195 18.195z" fill="url(#SVGID_7_)"/><path d="m275.589 191.773-18.195-18.195c-12.851-12.851-12.852-33.687 0-46.538l18.195-18.195z" fill="url(#SVGID_8_)"/><path d="m365.577 281.761 18.195 18.195c12.851 12.851 33.687 12.852 46.539 0l18.195-18.195z" fill="url(#SVGID_9_)"/><path d="m413.085 220.679c15.263-15.263 10.53-44.742-10.571-65.843s-50.58-25.834-65.843-10.571-10.53 44.742 10.571 65.843 50.58 25.834 65.843 10.571z" fill="url(#SVGID_10_)"/></g></g></svg>