<svg id="Capa_1" enable-background="new 0 0 502 502" height="512" viewBox="0 0 502 502" width="512" xmlns="http://www.w3.org/2000/svg" xmlns:xlink="http://www.w3.org/1999/xlink"><linearGradient id="SVGID_1_" gradientUnits="userSpaceOnUse" x1="214.73" x2="214.73" y1="457.034" y2="30.528"><stop offset="0" stop-color="#ec6476"/><stop offset="1" stop-color="#ec909c"/></linearGradient><linearGradient id="SVGID_2_" gradientUnits="userSpaceOnUse" x1="434.391" x2="246.209" y1="151.814" y2="151.814"><stop offset="0" stop-color="#f4c128"/><stop offset="1" stop-color="#f9dd89"/></linearGradient><linearGradient id="SVGID_3_" gradientUnits="userSpaceOnUse" x1="411.108" x2="411.108" y1="2.572" y2="198.965"><stop offset="0" stop-color="#f5e292"/><stop offset="1" stop-color="#fcf5ba"/></linearGradient><linearGradient id="SVGID_4_" gradientUnits="userSpaceOnUse" x1="187.312" x2="187.312" y1="422.532" y2="183.343"><stop offset="0" stop-color="#f4d84a"/><stop offset="1" stop-color="#f9ea9d"/></linearGradient><g><path d="m429.459 205.055c-35.419-35.419-109.36-109.36-132.515-132.514h-37.886c-29.11 0-57.029 11.564-77.613 32.148l-160.631 160.632c-27.752 27.752-27.752 72.746 0 100.498l115.367 115.367c27.752 27.752 72.746 27.752 100.498 0l160.632-160.631c20.584-20.584 32.148-48.502 32.148-77.613z" fill="url(#SVGID_1_)"/><path d="m296.944 72.541c-35.165 36.715-34.711 94.973 1.415 131.1 36.126 36.126 94.384 36.58 131.099 1.415v-61.452c0-39.247-31.816-71.063-71.063-71.063z" fill="url(#SVGID_2_)"/><path d="m426.139 13.016-92.908 92.908c-17.354 17.354-17.354 45.491 0 62.846 17.354 17.354 45.491 17.354 62.846 0l92.908-92.908c17.354-17.354 17.354-45.491 0-62.846-17.355-17.355-45.492-17.355-62.846 0z" fill="url(#SVGID_3_)"/><path d="m130.87 383.371 18.934 34.217c9.871 17.838 33.883 21.642 48.783 7.726l28.581-26.692c4.301-4.017 9.647-6.74 15.424-7.859l38.393-7.433c20.016-3.875 31.053-25.537 22.423-44.008l-16.554-35.43c-2.491-5.332-3.429-11.257-2.708-17.098l4.795-38.811c2.5-20.234-14.691-37.424-34.924-34.925l-38.811 4.795c-5.841.722-11.766-.217-17.098-2.708l-35.43-16.554c-18.471-8.63-40.132 2.407-44.008 22.423l-7.433 38.393c-1.118 5.778-3.842 11.123-7.859 15.424l-26.692 28.581c-13.915 14.9-10.112 38.912 7.726 48.783l34.217 18.934c5.149 2.85 9.392 7.093 12.241 12.242z" fill="url(#SVGID_4_)"/><g><path d="m142.873 255.962c-4.688 4.688-13.216 3.759-19.049-2.074s-6.762-14.362-2.074-19.049c4.688-4.688 13.216-3.759 19.049 2.074 5.833 5.832 6.762 14.361 2.074 19.049z" fill="#ea9cc5"/><path d="m267.162 380.25c-4.688 4.688-13.216 3.759-19.049-2.074s-6.762-14.362-2.074-19.049c4.688-4.688 13.216-3.759 19.049 2.074s6.761 14.362 2.074 19.049z" fill="#ea9cc5"/><circle cx="171.361" cy="242.564" fill="#fff" r="29.618"/><circle cx="259.436" cy="330.639" fill="#fff" r="29.618"/><g fill="#353544"><g><ellipse cx="171.361" cy="242.564" rx="17.652" ry="17.652" transform="matrix(.72 -.694 .694 .72 -120.387 187.024)"/><ellipse cx="259.436" cy="330.639" rx="17.652" ry="17.652" transform="matrix(.969 -.248 .248 .969 -73.949 74.742)"/></g><path d="m208.64 314.452c-.064 0-.128-.001-.192-.004-11.667-.441-20.455-9.229-20.896-20.896-.104-2.759 2.048-5.081 4.808-5.185 2.761-.136 5.081 2.048 5.186 4.808.242 6.399 4.88 11.039 11.281 11.281 2.759.104 4.912 2.426 4.808 5.186-.104 2.694-2.322 4.81-4.995 4.81z"/></g></g><path d="m149.803 417.588-18.934-34.217c-2.849-5.149-7.091-9.391-12.241-12.241l-34.217-18.934c-17.838-9.871-21.642-33.883-7.726-48.783l26.691-28.58c4.017-4.301 6.741-9.647 7.859-15.425l2.65-13.688c1.602-8.275-3.926-16.244-12.237-17.643-8.028-1.351-15.669 3.948-17.216 11.941l-2.651 13.69c-.136.704 1.188-1.085-27.021 29.229-27.271 29.198-19.78 76.195 15.126 95.508l34.216 18.934c.218.12.396.299.517.517l18.934 34.218c15.776 28.508 50.401 38.931 78.543 26.404 9.522-4.239 11.89-16.712 4.776-24.33-4.312-4.618-11.061-5.77-16.822-3.176-14.335 6.457-32.103 1.293-40.247-13.424z" fill="#d44c5f"/><g><path d="m399.459 218.071c-5.522 0-10-4.477-10-10v-8.371c0-5.523 4.478-10 10-10s10 4.477 10 10v8.371c0 5.523-4.478 10-10 10z" fill="#fff3aa"/><path d="m381.949 303.364c-1.902 0-3.824-.541-5.526-1.673-4.6-3.057-5.851-9.264-2.793-13.863l4.167-6.27c6.6-9.931 10.563-21.448 11.459-33.307.417-5.509 5.231-9.627 10.725-9.218 5.508.417 9.634 5.219 9.218 10.726-1.155 15.267-6.254 30.092-14.746 42.869l-4.167 6.27c-1.926 2.898-5.101 4.466-8.337 4.466z" fill="#ffb8c1"/></g></g></svg>