<svg id="Capa_1" enable-background="new 0 0 502 502" height="512" viewBox="0 0 502 502" width="512" xmlns="http://www.w3.org/2000/svg" xmlns:xlink="http://www.w3.org/1999/xlink"><linearGradient id="lg1"><stop offset="0" stop-color="#ec6476"/><stop offset="1" stop-color="#ec909c"/></linearGradient><linearGradient id="SVGID_1_" gradientUnits="userSpaceOnUse" x1="169.371" x2="111.891" xlink:href="#lg1" y1="244.037" y2="244.037"/><linearGradient id="SVGID_2_" gradientTransform="matrix(-1 0 0 1 302 0)" gradientUnits="userSpaceOnUse" x1="-30.629" x2="-88.109" xlink:href="#lg1" y1="244.037" y2="244.037"/><linearGradient id="SVGID_3_" gradientUnits="userSpaceOnUse" x1="251" x2="251" y1="260.008" y2="95.402"><stop offset="0" stop-color="#bfdbdb"/><stop offset="1" stop-color="#f3dbdb"/></linearGradient><linearGradient id="SVGID_4_" gradientUnits="userSpaceOnUse" x1="251" x2="251" xlink:href="#lg1" y1="255.312" y2="205.016"/><linearGradient id="lg2"><stop offset="0" stop-color="#4ba7e6"/><stop offset="1" stop-color="#94ccf0"/></linearGradient><linearGradient id="SVGID_5_" gradientUnits="userSpaceOnUse" x1="251" x2="251" xlink:href="#lg2" y1="296.933" y2="517.092"/><linearGradient id="lg3"><stop offset="0" stop-color="#68d0e8"/><stop offset="1" stop-color="#a7e7f5"/></linearGradient><linearGradient id="SVGID_6_" gradientUnits="userSpaceOnUse" x1="376.5" x2="376.5" xlink:href="#lg3" y1="402.865" y2="232.521"/><linearGradient id="SVGID_7_" gradientUnits="userSpaceOnUse" x1="125.5" x2="125.5" xlink:href="#lg3" y1="402.865" y2="232.521"/><linearGradient id="SVGID_8_" gradientUnits="userSpaceOnUse" x1="251" x2="251" xlink:href="#lg1" y1="87.984" y2="-1.267"/><linearGradient id="SVGID_9_" gradientUnits="userSpaceOnUse" x1="251" x2="251" xlink:href="#lg2" y1="184.748" y2="93.081"/><g><path d="m158.271 203.881c-22.858 7.413-54.017 24.711-44.132 80.312h72.726z" fill="url(#SVGID_1_)"/><path d="m343.729 203.881c22.858 7.413 54.016 24.711 44.132 80.312h-72.726z" fill="url(#SVGID_2_)"/><path d="m321.86 73.109-70.86-16.813-70.86 16.813c-17.484 33.876-26.682 77.604-26.682 114.028 0 32.306 3.252 66.745 14.572 94.645h165.94c11.32-27.9 14.572-62.339 14.572-94.645 0-36.424-9.198-80.152-26.682-114.028z" fill="url(#SVGID_3_)"/><path d="m258.633 205.199h-15.266c-9.036 0-16.362 7.325-16.362 16.362v73.58h47.989v-73.58c.001-9.037-7.325-16.362-16.361-16.362z" fill="url(#SVGID_4_)"/><path d="m376.122 484.046h-250.244c-18.211 0-32.975-14.763-32.975-32.975v-161.198l158.097-36.253 158.097 36.253v161.199c0 18.211-14.763 32.974-32.975 32.974z" fill="url(#SVGID_5_)"/><path d="m374.746 383.081c2.163-7.241-1.377-14.995-8.303-18.017-4.644-2.026-8.915-4.915-12.567-8.567l-102.876-102.877-158.097 36.253v108.619h26.261c18.954 0 36.772-7.381 50.172-20.783l81.664-81.663 81.662 81.662c6.385 6.386 13.776 11.398 21.813 14.897 8.214 3.575 17.707-.94 20.271-9.524z" fill="#04a3db"/><path d="m419.718 264.241 77.694 77.694c9.8 9.8 2.859 26.556-11 26.556h-103.576c-10.862 0-21.279-4.315-28.959-11.995l-102.877-102.876h143.076c9.618 0 18.842 3.821 25.642 10.621z" fill="url(#SVGID_6_)"/><path d="m82.282 264.241-77.694 77.695c-9.8 9.8-2.859 26.556 11 26.556h103.577c10.862 0 21.278-4.315 28.959-11.995l102.876-102.877h-143.076c-9.618 0-18.841 3.821-25.642 10.621z" fill="url(#SVGID_7_)"/><path d="m180.14 73.109h141.72c-16.497-31.963-40.37-55.155-70.86-55.155s-54.363 23.192-70.86 55.155z" fill="url(#SVGID_8_)"/><circle cx="251" cy="141.146" fill="url(#SVGID_9_)" r="28.324"/><g><ellipse cx="163.115" cy="435.727" fill="#efb1d2" rx="14.936" ry="12.003"/><ellipse cx="338.886" cy="435.727" fill="#efb1d2" rx="14.936" ry="12.003"/><circle cx="188.721" cy="406.11" fill="#fff" r="29.618"/><ellipse cx="200.687" cy="406.11" fill="#353544" rx="17.652" ry="17.652" transform="matrix(.707 -.707 .707 .707 -228.383 260.854)"/><circle cx="313.279" cy="406.11" fill="#fff" r="29.618"/><g fill="#353544"><path d="m342.834 406.11c0 9.749-7.903 17.652-17.652 17.652s-17.652-7.903-17.652-17.652 7.903-17.652 17.652-17.652c9.749-.001 17.652 7.903 17.652 17.652z"/><ellipse cx="251" cy="428.562" rx="13.252" ry="17.352"/></g></g><g fill="#fff"><path d="m321.474 192.155c-5.406 0-9.855-4.313-9.992-9.748-.284-11.293-1.555-23.112-3.776-35.132-1.004-5.431 2.584-10.646 8.016-11.65 5.427-1.006 10.647 2.583 11.65 8.016 2.413 13.049 3.793 25.923 4.104 38.263.139 5.521-4.225 10.109-9.745 10.249-.086.001-.172.002-.257.002z"/><path d="m306.748 115.815c-4.066 0-7.89-2.5-9.381-6.537-.781-2.115-1.603-4.225-2.441-6.272-2.094-5.11.353-10.95 5.464-13.044 5.113-2.092 10.951.353 13.044 5.464.926 2.261 1.832 4.59 2.693 6.921 1.914 5.181-.733 10.933-5.914 12.846-1.144.422-2.314.622-3.465.622z"/></g></g></svg>