<svg id="Capa_1" enable-background="new 0 0 502 502" height="512" viewBox="0 0 502 502" width="512" xmlns="http://www.w3.org/2000/svg" xmlns:xlink="http://www.w3.org/1999/xlink"><linearGradient id="SVGID_1_" gradientTransform="matrix(1 0 0 -1 0 504)" gradientUnits="userSpaceOnUse" x1="169.474" x2="169.474" y1="29.616" y2="308.261"><stop offset="0" stop-color="#64cd89"/><stop offset=".2218" stop-color="#66cf8e"/><stop offset=".5016" stop-color="#6dd39e"/><stop offset=".8113" stop-color="#77dbb8"/><stop offset="1" stop-color="#7fe1cb"/></linearGradient><linearGradient id="lg1"><stop offset="0" stop-color="#43b36b"/><stop offset=".196" stop-color="#46b570"/><stop offset=".4433" stop-color="#4dbc80"/><stop offset=".7181" stop-color="#5ac79a"/><stop offset="1" stop-color="#6ad6bc"/></linearGradient><linearGradient id="SVGID_2_" gradientTransform="matrix(1 0 0 -1 0 504)" gradientUnits="userSpaceOnUse" x1="92.2" x2="92.2" xlink:href="#lg1" y1="240.021" y2="364.177"/><linearGradient id="SVGID_3_" gradientTransform="matrix(1 0 0 -1 0 504)" gradientUnits="userSpaceOnUse" x1="280.737" x2="280.737" xlink:href="#lg1" y1="53.077" y2="192.519"/><linearGradient id="SVGID_4_" gradientTransform="matrix(1 0 0 -1 0 504)" gradientUnits="userSpaceOnUse" x1="233.18" x2="233.18" y1="262.183" y2="195.479"><stop offset="0" stop-color="#68d0e8"/><stop offset="1" stop-color="#a7e7f5"/></linearGradient><linearGradient id="SVGID_5_" gradientTransform="matrix(1 0 0 -1 -140.208 504)" gradientUnits="userSpaceOnUse" x1="274.348" x2="614.008" y1="363.893" y2="363.893"><stop offset="0" stop-color="#8fd5e6"/><stop offset="1" stop-color="#b0e4f0"/></linearGradient><g><path d="m316.809 448.375 6.495-6.495c20.858-20.858 20.858-54.676 0-75.534l-25.245-25.246c-20.858-20.858-54.676-20.858-75.534 0l-6.495 6.495c-11.246 11.246-43.562 6.876-69.098-18.659-25.536-25.536-29.905-57.852-18.659-69.098l6.495-6.495c20.858-20.858 20.858-54.676 0-75.534l-25.245-25.245c-20.858-20.858-54.676-20.858-75.534 0l-6.495 6.495c-57.224 57.222-18.992 153.676 58.323 230.991 77.316 77.315 173.769 115.548 230.992 58.325z" fill="url(#SVGID_1_)"/><path d="m134.767 177.808-25.245-25.245c-20.858-20.858-54.676-20.858-75.534 0l100.78 100.78c20.858-20.858 20.858-54.676-.001-75.535z" fill="url(#SVGID_2_)"/><path d="m323.304 366.345-25.245-25.245c-20.858-20.858-54.676-20.858-75.534 0l100.78 100.78c20.857-20.858 20.858-54.676-.001-75.535z" fill="url(#SVGID_3_)"/><path d="m190.193 140.53c47.481 0 85.973 38.491 85.973 85.972 0 33.819-19.527 63.078-47.922 77.115-17.528 8.665-38.051-4.354-38.051-23.907z" fill="url(#SVGID_4_)"/><ellipse cx="330.413" cy="140.107" fill="url(#SVGID_5_)" rx="171.587" ry="113.974"/><path d="m233.921 266.336c-1.431 0-2.858-.205-4.243-.609-14.523-4.239-28.141-15.765-39.485-22.319l.001-37.49c21.719 20.082 51.304 32.156 53.008 33.367 1.907 1.355 3.375 2.892 4.529 5.069 1.918 3.614 1.735 7.695.481 11.589-2.001 6.216-7.744 10.393-14.291 10.393z" fill="#15c5d9"/><g><ellipse cx="242.527" cy="163.723" fill="#ea9cc5" rx="14.936" ry="12.003"/><ellipse cx="418.298" cy="163.723" fill="#ea9cc5" rx="14.936" ry="12.003"/><ellipse cx="268.134" cy="134.106" fill="#fff" rx="29.618" ry="29.618" transform="matrix(.16 -.987 .987 .16 92.809 377.296)"/><circle cx="392.692" cy="134.106" fill="#fff" r="29.618"/><g fill="#353544"><g><circle cx="268.134" cy="134.106" r="17.652"/><circle cx="392.692" cy="134.106" r="17.652"/></g><path d="m330.413 164.665c-5.248 0-10.495-1.984-14.776-5.953-2.025-1.878-2.145-5.041-.268-7.066 1.878-2.025 5.044-2.143 7.066-.268 4.697 4.355 11.257 4.354 15.954.001 2.023-1.878 5.188-1.758 7.065.267 1.878 2.024 1.759 5.189-.267 7.065-4.279 3.97-9.527 5.954-14.774 5.954z"/></g></g><g fill="#c9f5fa"><path d="m468.371 112.448c-3.84 0-7.501-2.224-9.153-5.962-.997-2.258-2.153-4.425-3.436-6.44-2.965-4.659-1.592-10.84 3.067-13.806 4.659-2.965 10.84-1.591 13.806 3.067 1.82 2.86 3.455 5.921 4.857 9.097 2.232 5.052-.054 10.956-5.105 13.188-1.314.581-2.686.856-4.036.856z"/><path d="m432.315 79.052c-1.362 0-2.745-.28-4.069-.871-11.79-5.262-26.702-9.199-44.324-11.704-5.468-.777-9.27-5.84-8.493-11.308s5.834-9.278 11.308-8.493c19.464 2.766 36.172 7.221 49.66 13.241 5.044 2.251 7.308 8.164 5.057 13.207-1.661 3.72-5.312 5.928-9.139 5.928z"/></g></g></svg>