<svg id="Capa_1" enable-background="new 0 0 502 502" height="512" viewBox="0 0 502 502" width="512" xmlns="http://www.w3.org/2000/svg" xmlns:xlink="http://www.w3.org/1999/xlink"><linearGradient id="SVGID_1_" gradientUnits="userSpaceOnUse" x1="105.747" x2="105.747" y1="294.01" y2="506.107"><stop offset="0" stop-color="#ec6476"/><stop offset="1" stop-color="#ec909c"/></linearGradient><linearGradient id="SVGID_2_" gradientUnits="userSpaceOnUse" x1="105.747" x2="105.747" y1="351.242" y2="490.194"><stop offset="0" stop-color="#f9ea9d"/><stop offset="1" stop-color="#fffac7"/></linearGradient><linearGradient id="SVGID_3_" gradientUnits="userSpaceOnUse" x1="334.782" x2="-42.428" y1="225.986" y2="225.986"><stop offset="0" stop-color="#8b71c7"/><stop offset="1" stop-color="#a891d9"/></linearGradient><linearGradient id="SVGID_4_" gradientUnits="userSpaceOnUse" x1="367.293" x2="367.293" y1="249.978" y2="-19.012"><stop offset="0" stop-color="#a98bdb"/><stop offset="1" stop-color="#c3afe8"/></linearGradient><g><circle cx="105.747" cy="402.997" fill="url(#SVGID_1_)" r="99.003"/><path d="m73.909 309.238c-21.015 7.136-38.861 21.13-50.862 39.327 10.131 24.54 24.62 47.773 43.076 68.818 16.578 18.902 44.029 20.334 62.554 5.898z" fill="#e05467"/><path d="m105.747 343.744c-16.807 0-31.967 7.009-42.751 18.25v.004c0 15.602-6.903 27.113-15.682 31.204-.531 3.188-.821 6.457-.821 9.796 0 32.725 26.528 59.253 59.253 59.253s59.254-26.529 59.254-59.253c0-32.725-26.528-59.254-59.253-59.254z" fill="url(#SVGID_2_)"/><path d="m253.157 224.866c-66.23 0-144.197 49.241-136.967 161.374.965 14.972-17.62 22.642-27.512 11.363-125.44-143.034-9.669-348.629 164.479-348.629z" fill="url(#SVGID_3_)"/><path d="m128.176 388.365c-5.743-.692-11.188 2.207-14.229 7.129-5.119 8.286-17.721 10.716-25.269 2.11-10.094-11.509-18.617-23.426-25.682-35.606-8.066 8.413-13.683 19.194-15.682 31.204 5.718 8.328 11.989 16.406 18.809 24.182 18.251 20.81 49.682 20.449 67.871 1.048 2.056-2.193 3.865-4.549 5.419-7.039 5.859-9.394-.246-21.703-11.237-23.028z" fill="#f5c37f"/><path d="m300.103 271.279c-22.883 8.728-47.931-5.733-51.814-29.915-5.169-32.192-8.96-73.311-8.96-104.444s3.791-72.252 8.96-104.444c3.883-24.182 28.93-38.643 51.814-29.915 30.464 11.619 67.969 28.896 94.931 44.462 26.962 15.567 60.677 39.409 85.971 59.982 19 15.454 19 44.376 0 59.83-25.294 20.573-59.009 44.415-85.971 59.981-26.961 15.567-64.467 32.844-94.931 44.463z" fill="url(#SVGID_4_)"/><g><ellipse cx="272.409" cy="160.536" fill="#efb1d2" rx="14.936" ry="12.003"/><ellipse cx="448.18" cy="160.536" fill="#efb1d2" rx="14.936" ry="12.003"/><circle cx="298.016" cy="130.919" fill="#fff" r="29.618"/><ellipse cx="309.981" cy="130.919" fill="#353544" rx="17.652" ry="17.652" transform="matrix(.23 -.973 .973 .23 111.346 402.529)"/><circle cx="422.573" cy="130.919" fill="#fff" r="29.618"/><g fill="#353544"><ellipse cx="434.477" cy="130.919" rx="17.652" ry="17.652" transform="matrix(.707 -.707 .707 .707 34.682 345.567)"/><ellipse cx="360.294" cy="153.371" rx="13.252" ry="17.352"/></g></g></g></svg>