<svg id="Capa_1" enable-background="new 0 0 502 502" height="512" viewBox="0 0 502 502" width="512" xmlns="http://www.w3.org/2000/svg" xmlns:xlink="http://www.w3.org/1999/xlink"><linearGradient id="SVGID_1_" gradientUnits="userSpaceOnUse" x1="252.69" x2="520.535" y1="263.949" y2="263.949"><stop offset="0" stop-color="#8b71c7"/><stop offset="1" stop-color="#a891d9"/></linearGradient><linearGradient id="SVGID_2_" gradientUnits="userSpaceOnUse" x1="151.76" x2="521.435" y1="203.787" y2="203.787"><stop offset="0" stop-color="#a98bdb"/><stop offset="1" stop-color="#c3afe8"/></linearGradient><linearGradient id="lg1"><stop offset="0" stop-color="#f4d84a"/><stop offset="1" stop-color="#f9ea9d"/></linearGradient><linearGradient id="SVGID_3_" gradientUnits="userSpaceOnUse" x1="82.089" x2="82.089" xlink:href="#lg1" y1="388.026" y2="-30.068"/><linearGradient id="SVGID_4_" gradientUnits="userSpaceOnUse" x1="269.882" x2="269.882" xlink:href="#lg1" y1="329.678" y2="164.815"/><linearGradient id="SVGID_5_" gradientUnits="userSpaceOnUse" x1="267.361" x2="267.361" y1="263.492" y2="137.702"><stop offset="0" stop-color="#f4c128"/><stop offset="1" stop-color="#f9dd89"/></linearGradient><linearGradient id="SVGID_6_" gradientUnits="userSpaceOnUse" x1="47.435" x2="47.435" y1="490.588" y2="385.34"><stop offset="0" stop-color="#ec6476"/><stop offset="1" stop-color="#ec909c"/></linearGradient><g><path d="m410.669 397.225h-110.73c-21.169 0-37.206-19.113-33.53-39.96l39.954-226.592h127.167c42.559 0 74.801 38.425 67.411 80.338l-22.861 129.65c-5.768 32.714-34.192 56.564-67.411 56.564z" fill="url(#SVGID_1_)"/><path d="m369.744 337.063h-284.456l47-266.552h272.448c21.169 0 37.206 19.113 33.53 39.96l-34.993 198.457c-2.868 16.272-17.006 28.135-33.529 28.135z" fill="url(#SVGID_2_)"/><path d="m426.394 177.807-23.12 131.121c-2.869 16.272-17.007 28.135-33.53 28.135h-99.773l-3.562 20.202c-.588 3.334-.666 6.623-.305 9.798h103.64c31.141 0 57.667-22.259 63.075-52.927l23.12-131.12c1.48-8.395-4.325-16.335-12.773-17.471-7.975-1.072-15.375 4.338-16.772 12.262z" fill="#7f63c2"/><path d="m112.875 18.656c-20.516 0-38.07 14.73-41.633 34.934l-62.226 352.902 38.419 15.387 47.435-15.387 59.637-338.22c4.565-25.885-15.348-49.616-41.632-49.616z" fill="url(#SVGID_3_)"/><path d="m277.064 285.285 31.184 8.967c16.257 4.674 32.576-7.182 33.154-24.088l1.108-32.428c.167-4.88 1.705-9.614 4.439-13.66l18.164-26.886c9.469-14.017 3.236-33.201-12.664-38.975l-30.499-11.075c-4.59-1.667-8.617-4.593-11.62-8.443l-19.957-25.583c-10.405-13.337-30.576-13.337-40.98 0l-19.957 25.583c-3.003 3.85-7.031 6.776-11.62 8.443l-30.499 11.075c-15.9 5.774-22.133 24.958-12.664 38.975l18.164 26.886c2.734 4.046 4.272 8.78 4.439 13.66l1.108 32.428c.578 16.906 16.897 28.762 33.154 24.088l31.183-8.967c4.692-1.349 9.67-1.349 14.363 0z" fill="url(#SVGID_4_)"/><path d="m271.518 252.392 18.051 5.191c9.411 2.706 18.857-4.157 19.192-13.944l.641-18.772c.097-2.825.987-5.565 2.569-7.908l10.515-15.564c5.482-8.114 1.873-19.219-7.331-22.561l-17.655-6.411c-2.657-.965-4.988-2.658-6.727-4.887l-11.553-14.81c-6.023-7.721-17.699-7.721-23.722 0l-11.553 14.81c-1.738 2.229-4.07 3.922-6.727 4.887l-17.655 6.411c-9.204 3.342-12.812 14.447-7.331 22.561l10.515 15.564c1.582 2.342 2.473 5.083 2.569 7.908l.641 18.772c.334 9.786 9.781 16.65 19.192 13.944l18.051-5.191c2.72-.781 5.602-.781 8.318 0z" fill="url(#SVGID_5_)"/><path d="m9.016 406.492-8.65 49.056c-2.557 14.501 8.599 27.796 23.323 27.796h31.461c15.134 0 28.085-10.866 30.713-25.771l9.007-51.081z" fill="url(#SVGID_6_)"/><g fill="#fffbcc"><path d="m79.254 179.538c-.577 0-1.161-.05-1.749-.154-5.439-.959-9.07-6.145-8.111-11.584l1.84-10.436c.959-5.439 6.143-9.084 11.585-8.111 5.439.959 9.07 6.145 8.111 11.584l-1.84 10.436c-.855 4.851-5.075 8.265-9.836 8.265z"/><path d="m88.19 128.857c-.577 0-1.161-.05-1.748-.154-5.439-.959-9.071-6.146-8.112-11.584l8.524-48.345c.959-5.439 6.147-9.082 11.584-8.111 5.439.959 9.071 6.145 8.112 11.584l-8.524 48.345c-.855 4.851-5.074 8.265-9.836 8.265z"/></g></g></svg>