<svg id="Capa_1" enable-background="new 0 0 502 502" height="512" viewBox="0 0 502 502" width="512" xmlns="http://www.w3.org/2000/svg" xmlns:xlink="http://www.w3.org/1999/xlink"><linearGradient id="SVGID_1_" gradientUnits="userSpaceOnUse" x1="251" x2="251" y1="488.843" y2="38.062"><stop offset="0" stop-color="#bfdbdb"/><stop offset="1" stop-color="#f3dbdb"/></linearGradient><linearGradient id="SVGID_2_" gradientUnits="userSpaceOnUse" x1="413.38" x2="413.38" y1="249.617" y2="178.018"><stop offset="0" stop-color="#ec6476"/><stop offset="1" stop-color="#ec909c"/></linearGradient><linearGradient id="SVGID_3_" gradientUnits="userSpaceOnUse" x1="251" x2="251" y1="176.836" y2="10.821"><stop offset="0" stop-color="#8b71c7"/><stop offset="1" stop-color="#a891d9"/></linearGradient><linearGradient id="SVGID_4_" gradientUnits="userSpaceOnUse" x1="118.266" x2="118.266" y1="385.034" y2="140.126"><stop offset="0" stop-color="#64cd89"/><stop offset=".2218" stop-color="#66cf8e"/><stop offset=".5016" stop-color="#6dd39e"/><stop offset=".8113" stop-color="#77dbb8"/><stop offset="1" stop-color="#7fe1cb"/></linearGradient><g><path d="m443.669 457.814h-385.338c-32.215 0-58.331-26.116-58.331-58.331v-212.495c0-32.216 26.116-58.331 58.331-58.331h385.337c32.216 0 58.331 26.116 58.331 58.331v212.494c.001 32.216-26.115 58.332-58.33 58.332z" fill="url(#SVGID_1_)"/><path d="m436.754 179.677h-46.747c-7.605 0-13.769 6.165-13.769 13.77v46.747c0 7.605 6.165 13.77 13.769 13.77h46.747c7.605 0 13.769-6.165 13.769-13.77v-46.747c0-7.605-6.164-13.77-13.769-13.77z" fill="url(#SVGID_2_)"/><path d="m275.351 44.186h-48.703c-12.332 0-22.328 9.997-22.328 22.328v76.566c0 12.331 9.997 22.328 22.328 22.328h48.703c12.331 0 22.328-9.997 22.328-22.328v-76.566c0-12.332-9.996-22.328-22.328-22.328z" fill="url(#SVGID_3_)"/><path d="m305.565 159.276c-5.244-3.016-11.707-2.332-16.47 1.397-3.788 2.966-8.559 4.735-13.744 4.735h-48.703c-12.332 0-22.328-9.997-22.328-22.328v-14.423h-30v14.424c0 28.9 23.428 52.328 52.328 52.328h48.703c12.018 0 23.101-4.074 31.943-10.912 8.564-6.623 7.655-19.825-1.729-25.221z" fill="#b6c6d9"/><path d="m347.774 304.735h-96.442c-6.351 0-11.5-5.148-11.5-11.5s5.149-11.5 11.5-11.5h96.442c6.352 0 11.5 5.148 11.5 11.5s-5.148 11.5-11.5 11.5z" fill="#a6b4c4"/><path d="m413.381 363.548h-162.049c-6.351 0-11.5-5.148-11.5-11.5s5.149-11.5 11.5-11.5h162.048c6.352 0 11.5 5.148 11.5 11.5.001 6.351-5.148 11.5-11.499 11.5z" fill="#a6b4c4"/><path d="m168.026 179.562h-99.521c-15.431 0-27.94 12.509-27.94 27.94v164.534c0 15.431 12.509 27.94 27.94 27.94h99.521c15.431 0 27.94-12.509 27.94-27.94v-164.534c0-15.431-12.509-27.94-27.94-27.94z" fill="url(#SVGID_4_)"/><g><ellipse cx="130.824" cy="377.654" fill="#efb1d2" rx="12.003" ry="14.936"/><ellipse cx="130.824" cy="201.883" fill="#efb1d2" rx="12.003" ry="14.936"/><circle cx="101.206" cy="352.048" fill="#fff" r="29.618"/><circle cx="101.206" cy="227.49" fill="#fff" r="29.618"/><g fill="#353544"><g><circle cx="101.206" cy="352.048" r="17.652"/><circle cx="101.206" cy="227.49" r="17.652"/></g><path d="m122.144 306.146c-1.217 0-2.436-.441-3.398-1.333-2.025-1.878-2.145-5.041-.267-7.066 4.354-4.697 4.354-11.258 0-15.954-1.877-2.024-1.758-5.189.267-7.065 2.024-1.877 5.188-1.759 7.066.267 7.938 8.561 7.938 20.989 0 29.552-.985 1.06-2.325 1.599-3.668 1.599z"/></g></g><g fill="#fff"><path d="m451.039 436.823c-4.406 0-8.441-2.935-9.647-7.391-1.442-5.331 1.71-10.822 7.041-12.266 2.737-.74 5.312-2.132 7.444-4.023 4.135-3.665 10.453-3.284 14.117.846 3.664 4.132 3.286 10.452-.846 14.117-4.432 3.931-9.788 6.823-15.491 8.367-.875.237-1.754.35-2.618.35z"/><path d="m410.135 437.815h-62.493c-5.522 0-10-4.478-10-10 0-5.523 4.478-10 10-10h62.493c5.522 0 10 4.477 10 10 0 5.522-4.478 10-10 10z"/></g></g></svg>