<svg id="Capa_1" enable-background="new 0 0 502 502" height="512" viewBox="0 0 502 502" width="512" xmlns="http://www.w3.org/2000/svg" xmlns:xlink="http://www.w3.org/1999/xlink"><linearGradient id="SVGID_1_" gradientUnits="userSpaceOnUse" x1="266.717" x2="266.717" y1="448.615" y2="-11.91"><stop offset="0" stop-color="#64cd89"/><stop offset=".2218" stop-color="#66cf8e"/><stop offset=".5016" stop-color="#6dd39e"/><stop offset=".8113" stop-color="#77dbb8"/><stop offset="1" stop-color="#7fe1cb"/></linearGradient><linearGradient id="SVGID_2_" gradientUnits="userSpaceOnUse" x1="266.717" x2="266.717" y1="68.821" y2="406.842"><stop offset="0" stop-color="#f9ea9d"/><stop offset="1" stop-color="#fffac7"/></linearGradient><linearGradient id="lg1"><stop offset="0" stop-color="#465260"/><stop offset="1" stop-color="#5a708d"/></linearGradient><linearGradient id="SVGID_3_" gradientUnits="userSpaceOnUse" x1="248.07" x2="358.999" xlink:href="#lg1" y1="265.458" y2="265.458"/><linearGradient id="SVGID_4_" gradientUnits="userSpaceOnUse" x1="193.287" x2="302.459" y1="232.78" y2="232.78"><stop offset="0" stop-color="#ec6476"/><stop offset="1" stop-color="#ec909c"/></linearGradient><linearGradient id="SVGID_5_" gradientUnits="userSpaceOnUse" x1="40.175" x2="290.241" y1="378.823" y2="378.823"><stop offset="0" stop-color="#b1cccc"/><stop offset="1" stop-color="#e6cfcf"/></linearGradient><linearGradient id="SVGID_6_" gradientTransform="matrix(-1 0 0 1 102 0)" gradientUnits="userSpaceOnUse" x1="-29.431" x2="-29.431" xlink:href="#lg1" y1="434.644" y2="331.668"/><g><circle cx="266.717" cy="232.78" fill="url(#SVGID_1_)" r="232.78"/><circle cx="266.717" cy="232.78" fill="url(#SVGID_2_)" r="176.012"/><path d="m286.326 213.171 57.233 57.233c10.829 10.829 10.83 28.388 0 39.218s-28.389 10.829-39.218 0l-57.233-57.233z" fill="url(#SVGID_3_)"/><path d="m247.107 252.389 39.777 39.777c18.388-6.263 32.956-20.83 39.218-39.219l-39.777-39.777z" fill="#3b4a5e"/><path d="m294.448 232.78c0 15.316-12.416 27.732-27.732 27.732h-44.553c-15.315 0-27.732-12.415-27.732-27.732s12.416-27.732 27.732-27.732h44.553c15.316 0 27.732 12.416 27.732 27.732z" fill="url(#SVGID_4_)"/><g fill="#f5c37f"><ellipse cx="266.717" cy="86.243" rx="11.614" ry="11.614" transform="matrix(.973 -.23 .23 .973 -12.68 63.586)"/><circle cx="163.1" cy="129.163" r="11.614"/><circle cx="120.18" cy="232.78" r="11.614"/><circle cx="163.1" cy="336.397" r="11.614"/><circle cx="266.717" cy="379.317" r="11.614"/><circle cx="370.334" cy="336.397" r="11.614"/><circle cx="413.253" cy="232.78" r="11.614"/><circle cx="370.334" cy="129.163" r="11.614"/></g><path d="m165.876 297.988 36.854 26.776c3.24 2.354 7.473 2.85 11.17 1.308l18.25-7.613c6.191-2.583 13.268.669 15.341 7.049l12.302 37.862c2.073 6.38-1.741 13.171-8.268 14.72l-19.24 4.568c-3.897.925-7.03 3.814-8.268 7.624l-14.077 43.325c-1.238 3.809-.401 7.988 2.208 11.027l12.88 15.005c4.369 5.09 3.464 12.826-1.963 16.769l-32.207 23.4c-5.427 3.943-13.064 2.414-16.555-3.315l-10.29-16.887c-2.084-3.42-5.8-5.508-9.806-5.508h-45.554c-4.005 0-7.721 2.087-9.806 5.508l-10.29 16.887c-3.491 5.728-11.128 7.258-16.555 3.315l-32.207-23.4c-5.427-3.943-6.333-11.679-1.963-16.769l12.88-15.005c2.609-3.039 3.446-7.218 2.208-11.027l-14.077-43.325c-1.238-3.809-4.371-6.698-8.268-7.624l-19.24-4.568c-6.527-1.55-10.341-8.34-8.268-14.72l12.302-37.862c2.073-6.38 9.15-9.632 15.341-7.049l18.25 7.613c3.697 1.542 7.93 1.047 11.17-1.308l36.854-26.776c3.24-2.354 5.02-6.227 4.696-10.219l-1.601-19.71c-.543-6.686 4.737-12.412 11.445-12.412h39.81c6.708 0 11.988 5.726 11.445 12.412l-1.601 19.71c-.322 3.992 1.457 7.864 4.698 10.219zm-34.445 54.034c-17.742 0-32.125 14.383-32.125 32.125s14.383 32.125 32.125 32.125 32.125-14.383 32.125-32.125-14.383-32.125-32.125-32.125z" fill="url(#SVGID_5_)"/><path d="m77.341 384.147c0 29.873 24.217 54.09 54.09 54.09s54.09-24.217 54.09-54.09-24.217-54.09-54.09-54.09-54.09 24.217-54.09 54.09zm31.152 0c0-12.669 10.27-22.939 22.939-22.939s22.939 10.27 22.939 22.939-10.27 22.939-22.939 22.939-22.939-10.271-22.939-22.939z" fill="url(#SVGID_6_)"/><path d="m342.886 326.758c-3.294-6.08-9.859-9.649-16.752-9.105-7.806.616-15.822-2.06-21.793-8.031l-49.11-49.11h-33.067c-9.814 0-18.434-5.099-23.361-12.792-3.868-6.039-11.194-8.908-18.232-7.535-11.838 2.31-17.902 15.813-11.461 26.01 11.118 17.601 30.739 29.317 53.054 29.317h18.569l38.859 38.86c13.509 13.507 31.645 19.572 49.308 18.182 12.613-.992 20.012-14.671 13.986-25.796z" fill="#f5c37f"/><path d="m437.915 126.376c-3.196 0-6.337-1.529-8.272-4.37-7.816-11.469-16.876-22.149-26.929-31.745-3.995-3.813-4.143-10.142-.329-14.138 3.813-3.997 10.143-4.143 14.138-.329 11.067 10.563 21.043 22.322 29.647 34.95 3.11 4.563 1.932 10.784-2.633 13.895-1.722 1.174-3.683 1.737-5.622 1.737z" fill="#a1f5d0"/><path d="m377.241 67.738c-1.828 0-3.679-.501-5.338-1.551-3.284-2.078-6.667-4.081-10.057-5.954-4.834-2.671-6.588-8.755-3.917-13.589 2.672-4.833 8.756-6.585 13.589-3.917 3.734 2.063 7.463 4.271 11.08 6.56 4.667 2.953 6.056 9.131 3.103 13.798-1.903 3.007-5.145 4.653-8.46 4.653z" fill="#a1f5d0"/><g><ellipse cx="178.831" cy="192.649" fill="#ea9cc5" rx="14.936" ry="12.003"/><ellipse cx="354.602" cy="192.649" fill="#ea9cc5" rx="14.936" ry="12.003"/><circle cx="204.438" cy="163.031" fill="#fff" r="29.618"/><circle cx="328.995" cy="163.031" fill="#fff" r="29.618"/><g fill="#353544"><g><circle cx="204.438" cy="163.031" r="17.652"/><circle cx="328.995" cy="163.031" r="17.652"/></g><path d="m266.717 193.592c-5.247 0-10.495-1.984-14.775-5.953-2.025-1.878-2.145-5.041-.268-7.066 1.878-2.025 5.041-2.144 7.066-.268 4.697 4.355 11.256 4.355 15.953 0 2.024-1.875 5.188-1.757 7.066.268 1.877 2.025 1.758 5.188-.268 7.066-4.279 3.968-9.527 5.953-14.774 5.953z"/></g></g></g></svg>