<svg id="Capa_1" enable-background="new 0 0 502 502" height="512" viewBox="0 0 502 502" width="512" xmlns="http://www.w3.org/2000/svg" xmlns:xlink="http://www.w3.org/1999/xlink"><linearGradient id="SVGID_1_" gradientUnits="userSpaceOnUse" x1="285.941" x2="526.54" y1="352.389" y2="352.389"><stop offset="0" stop-color="#8b71c7"/><stop offset="1" stop-color="#a891d9"/></linearGradient><linearGradient id="SVGID_2_" gradientTransform="matrix(-1 0 0 -1 818.052 -488.201)" gradientUnits="userSpaceOnUse" x1="609.026" x2="609.026" y1="-887.696" y2="-488.568"><stop offset="0" stop-color="#465260"/><stop offset="1" stop-color="#5a708d"/></linearGradient><linearGradient id="SVGID_3_" gradientUnits="userSpaceOnUse" x1="209.026" x2="209.026" y1="78.391" y2="352.137"><stop offset="0" stop-color="#8fd5e6"/><stop offset="1" stop-color="#b0e4f0"/></linearGradient><linearGradient id="SVGID_4_" gradientUnits="userSpaceOnUse" x1="100.103" x2="100.103" y1="198.647" y2="11.241"><stop offset="0" stop-color="#f9ea9d"/><stop offset="1" stop-color="#fffac7"/></linearGradient><linearGradient id="SVGID_5_" gradientUnits="userSpaceOnUse" x1="45.34" x2="160.642" y1="125.721" y2="125.721"><stop offset="0" stop-color="#64cd89"/><stop offset=".2218" stop-color="#66cf8e"/><stop offset=".5016" stop-color="#6dd39e"/><stop offset=".8113" stop-color="#77dbb8"/><stop offset="1" stop-color="#7fe1cb"/></linearGradient><linearGradient id="SVGID_6_" gradientUnits="userSpaceOnUse" x1="276.169" x2="276.169" y1="333.697" y2="30.842"><stop offset="0" stop-color="#ec6476"/><stop offset="1" stop-color="#ec909c"/></linearGradient><g><path d="m292.414 202.777-89.637 89.637 160.283 182.592c30.238 34.447 83.295 36.171 115.706 3.76 32.411-32.411 30.687-85.467-3.76-115.706z" fill="url(#SVGID_1_)"/><path d="m376.067 334.655c-20.705 27.497-48.054 49.754-79.737 64.334l27.367 31.176c33.269-17.266 62.083-41.799 84.403-71.455 7.007-9.31 4.733-22.592-5.042-28.934-8.873-5.758-20.627-3.572-26.991 4.879z" fill="#7f63c2"/><circle cx="209.026" cy="209.026" fill="url(#SVGID_2_)" r="209.026"/><path d="m376.048 334.69c-20.728 27.511-48.09 49.739-79.718 64.299l27.386 31.198c22.364-11.63 43.063-26.737 61.398-45.072 8.328-8.328 15.989-17.145 22.961-26.383 7.144-9.467 4.549-23.035-5.589-29.191-8.823-5.358-20.227-3.095-26.438 5.149z" fill="#7f63c2"/><path d="m209.026 65.663c-79.177 0-143.363 64.186-143.363 143.363 0 34.996 12.546 67.057 33.376 91.948 19.207 2.723 29.813 16.148 38.415 32.296 21.062 12.159 45.503 19.119 71.571 19.119 79.177 0 143.363-64.186 143.363-143.363s-64.185-143.363-143.362-143.363z" fill="url(#SVGID_3_)"/><path d="m144.752 202.777h-89.298c-17.898 0-32.407-14.509-32.407-32.407v-89.299c0-17.898 14.509-32.407 32.407-32.407h89.299c17.898 0 32.407 14.509 32.407 32.407v89.299c0 17.898-14.51 32.407-32.408 32.407z" fill="url(#SVGID_4_)"/><path d="m144.795 178.179h-89.384c-4.289 0-7.767-3.477-7.767-7.767v-89.383c0-4.289 3.477-7.767 7.767-7.767h89.383c4.289 0 7.767 3.477 7.767 7.767v89.383c0 4.29-3.477 7.767-7.766 7.767z" fill="url(#SVGID_5_)"/><path d="m410.621 85.853-140.704 140.703-30.552-30.552c-9.763-9.764-25.592-9.764-35.355 0l-104.97 104.97c10.782 12.883 23.78 23.847 38.415 32.296l84.233-84.232 30.552 30.552c9.764 9.764 25.592 9.764 35.355 0l158.381-158.381c9.763-9.763 9.763-25.592 0-35.355-9.763-9.765-25.592-9.765-35.355-.001z" fill="url(#SVGID_6_)"/><g fill="#7490ab"><path d="m335.783 92.404c-2.922 0-5.846-1.106-8.087-3.324-2.339-2.314-4.778-4.591-7.249-6.765-4.768-4.195-5.232-11.462-1.035-16.23 4.195-4.768 11.461-5.231 16.23-1.035 2.804 2.468 5.573 5.052 8.229 7.679 4.515 4.467 4.554 11.748.087 16.264-2.248 2.273-5.211 3.411-8.175 3.411z"/><path d="m292.315 60.671c-1.794 0-3.613-.42-5.313-1.309-14.796-7.726-30.608-13.187-46.999-16.23-6.245-1.159-10.367-7.162-9.207-13.406 1.16-6.245 7.167-10.367 13.406-9.207 18.64 3.461 36.622 9.671 53.446 18.457 5.63 2.939 7.811 9.887 4.871 15.517-2.053 3.929-6.058 6.178-10.204 6.178z"/></g></g></svg>