<svg id="Capa_1" enable-background="new 0 0 502 502" height="512" viewBox="0 0 502 502" width="512" xmlns="http://www.w3.org/2000/svg" xmlns:xlink="http://www.w3.org/1999/xlink"><linearGradient id="lg1"><stop offset="0" stop-color="#465260"/><stop offset="1" stop-color="#5a708d"/></linearGradient><linearGradient id="SVGID_1_" gradientUnits="userSpaceOnUse" x1="163.25" x2="163.25" xlink:href="#lg1" y1="447.038" y2="500.793"/><linearGradient id="SVGID_2_" gradientUnits="userSpaceOnUse" x1="163.25" x2="163.25" y1="285.703" y2="499.155"><stop offset="0" stop-color="#64cd89"/><stop offset=".2218" stop-color="#66cf8e"/><stop offset=".5016" stop-color="#6dd39e"/><stop offset=".8113" stop-color="#77dbb8"/><stop offset="1" stop-color="#7fe1cb"/></linearGradient><linearGradient id="SVGID_3_" gradientUnits="userSpaceOnUse" x1="163.25" x2="163.25" y1="223.586" y2="294.047"><stop offset="0" stop-color="#b1cccc"/><stop offset="1" stop-color="#e6cfcf"/></linearGradient><linearGradient id="SVGID_4_" gradientUnits="userSpaceOnUse" x1="163.25" x2="163.25" xlink:href="#lg1" y1="235.222" y2="12.885"/><linearGradient id="SVGID_5_" gradientUnits="userSpaceOnUse" x1="306.223" x2="306.223" y1="137.707" y2="180.295"><stop offset="0" stop-color="#68d0e8"/><stop offset="1" stop-color="#a7e7f5"/></linearGradient><linearGradient id="SVGID_6_" gradientUnits="userSpaceOnUse" x1="242.99" x2="459.851" y1="72.769" y2="72.769"><stop offset="0" stop-color="#8fd5e6"/><stop offset="1" stop-color="#b0e4f0"/></linearGradient><g><path d="m196.17 395.884h-65.84v81.356c0 13.674 11.085 24.76 24.76 24.76h16.321c13.674 0 24.76-11.085 24.76-24.76v-81.356z" fill="url(#SVGID_1_)"/><path d="m186.836 460.512h-47.173c-18.37 0-33.971-13.449-36.677-31.619l-23.216-155.859h166.959l-23.215 155.859c-2.707 18.169-18.308 31.619-36.678 31.619z" fill="url(#SVGID_2_)"/><path d="m231.454 292.786h-136.409c-18.686 0-33.834-15.148-33.834-33.833v-62.624c0-18.686 15.148-33.833 33.834-33.833h136.409c18.686 0 33.833 15.148 33.833 33.833v62.624c.001 18.685-15.147 33.833-33.833 33.833z" fill="url(#SVGID_3_)"/><path d="m238.823 227.641h-151.147c-35.088 0-63.532-28.444-63.532-63.532v-70.401c0-35.088 28.444-63.532 63.532-63.532h151.147c35.088 0 63.532 28.444 63.532 63.532v70.401c0 35.088-28.444 63.532-63.532 63.532z" fill="url(#SVGID_4_)"/><path d="m278.778 73.039c30.315 0 54.89 24.575 54.89 54.89 0 21.592-12.467 40.273-30.596 49.235-11.191 5.533-24.294-2.78-24.294-15.264z" fill="url(#SVGID_5_)"/><ellipse cx="368.303" cy="72.769" fill="url(#SVGID_6_)" rx="109.552" ry="72.769"/><path d="m407.92 84.269h-79.232c-6.352 0-11.5-5.148-11.5-11.5s5.148-11.5 11.5-11.5h79.232c6.352 0 11.5 5.148 11.5 11.5 0 6.351-5.148 11.5-11.5 11.5z" fill="#15c5d9"/><g><ellipse cx="75.364" cy="161.957" fill="#ea9cc5" rx="14.936" ry="12.003"/><ellipse cx="251.135" cy="161.957" fill="#ea9cc5" rx="14.936" ry="12.003"/><circle cx="100.971" cy="132.339" fill="#fff" r="29.618"/><circle cx="225.528" cy="132.339" fill="#fff" r="29.618"/><g fill="#353544"><g><circle cx="100.971" cy="132.339" r="17.652"/><circle cx="225.528" cy="132.339" r="17.652"/></g><path d="m163.25 162.899c-5.248 0-10.495-1.984-14.776-5.953-2.025-1.878-2.145-5.041-.268-7.066 1.878-2.025 5.043-2.143 7.066-.268 4.697 4.355 11.257 4.354 15.954.001 2.024-1.877 5.188-1.759 7.065.267 1.878 2.024 1.759 5.189-.267 7.065-4.279 3.97-9.527 5.954-14.774 5.954z"/></g></g><path d="m231.454 292.786h-136.409c-4.493 0-8.778-.884-12.701-2.474l14.136 94.901c1.409 9.456 10.145 16.032 19.622 14.768 9.684-1.291 16.436-10.262 14.996-19.925l-7.786-52.271h108.142c2.423 0 4.816-.129 7.175-.375l5.526-37.099c-3.922 1.592-8.207 2.475-12.701 2.475z" fill="#36b663"/></g></svg>