<svg id="Capa_1" enable-background="new 0 0 502 502" height="512" viewBox="0 0 502 502" width="512" xmlns="http://www.w3.org/2000/svg" xmlns:xlink="http://www.w3.org/1999/xlink"><linearGradient id="lg1"><stop offset="0" stop-color="#f4c128"/><stop offset="1" stop-color="#f9dd89"/></linearGradient><linearGradient id="SVGID_1_" gradientUnits="userSpaceOnUse" x1="262.035" x2="262.035" xlink:href="#lg1" y1="102.208" y2="15.254"/><linearGradient id="SVGID_2_" gradientUnits="userSpaceOnUse" x1="378.46" x2="378.46" y1="460.472" y2="40.223"><stop offset="0" stop-color="#bfdbdb"/><stop offset="1" stop-color="#f3dbdb"/></linearGradient><linearGradient id="SVGID_3_" gradientUnits="userSpaceOnUse" x1="219.004" x2="219.004" xlink:href="#lg1" y1="475.333" y2="59.708"/><linearGradient id="SVGID_4_" gradientUnits="userSpaceOnUse" x1="145.371" x2="145.371" y1="513.34" y2="236.595"><stop offset="0" stop-color="#f4d84a"/><stop offset="1" stop-color="#f9ea9d"/></linearGradient><g><path d="m269.185 422.375-203.771-203.771c-19.896-19.896-19.896-52.154 0-72.05l117.422-117.421c19.896-19.896 52.154-19.896 72.05 0l203.771 203.771c19.896 19.896 19.896 52.154 0 72.05l-117.422 117.421c-19.896 19.896-52.154 19.896-72.05 0z" fill="url(#SVGID_1_)"/><path d="m254.92 328.76v-277.571c0-15.71 12.735-28.445 28.445-28.445h190.19c15.71 0 28.445 12.735 28.445 28.445v277.57c0 15.71-12.735 28.445-28.445 28.445h-190.19c-15.71 0-28.445-12.735-28.445-28.444z" fill="url(#SVGID_2_)"/><path d="m439.809 169.519h-122.698c-6.352 0-11.5-5.148-11.5-11.5s5.148-11.5 11.5-11.5h122.697c6.352 0 11.5 5.148 11.5 11.5.001 6.352-5.148 11.5-11.499 11.5z" fill="#a6b4c4"/><path d="m290.742 472.867 117.421-117.421c19.896-19.896 19.896-52.154 0-72.051l-67.753-67.753c-2.935-2.935-4.584-6.916-4.584-11.068v-36.538c0-6.623-2.631-12.974-7.314-17.657l-43.297-43.297c-4.683-4.683-11.035-7.314-17.658-7.314h-36.537c-4.151 0-8.132-1.649-11.068-4.584l-15.559-15.56c-19.896-19.896-52.154-19.896-72.05 0l-117.421 117.422 121.495 150.891z" fill="url(#SVGID_3_)"/><path d="m418.084 105.352h-79.247c-6.352 0-11.5-5.148-11.5-11.5s5.148-11.5 11.5-11.5h79.247c6.352 0 11.5 5.148 11.5 11.5 0 6.351-5.149 11.5-11.5 11.5z" fill="#a6b4c4"/><path d="m432.913 258.646-43.941-43.94c-6.668-6.668-17.419-6.853-24.314-.42-7.24 6.756-7.437 18.167-.435 25.169l43.94 43.94c19.896 19.896 19.896 52.154 0 72.05l-1.758 1.758h42.91c15.667-32.071 10.215-71.938-16.402-98.557z" fill="#b6c6d9"/><g><ellipse cx="147.497" cy="216.103" fill="#ff7686" rx="11.994" ry="14.925" transform="matrix(.707 -.707 .707 .707 -109.607 167.591)"/><path d="m282.24 350.846c-4.684 4.684-13.206 3.756-19.034-2.072-5.829-5.828-6.756-14.35-2.072-19.034s13.206-3.756 19.034 2.072 6.756 14.35 2.072 19.034z" fill="#ff7686"/><ellipse cx="274.494" cy="301.301" fill="#fff" rx="29.557" ry="29.557" transform="matrix(.788 -.615 .615 .788 -127.288 232.741)"/><path d="m261.045 289.899c-5.863 6.93-5.531 17.313 1.003 23.847s16.917 6.865 23.847 1.003z" fill="#353544"/><path d="m295.394 280.401c-11.543-11.543-30.257-11.543-41.8 0-.343.343-.675.694-.997 1.049l41.748 41.748c.356-.323.706-.654 1.049-.997 11.542-11.543 11.542-30.258 0-41.8z" fill="#7f63c2"/><ellipse cx="186.489" cy="213.295" fill="#fff" rx="29.557" ry="29.557" transform="matrix(.811 -.585 .585 .811 -89.515 149.303)"/><path d="m173.04 201.894c-5.863 6.93-5.531 17.313 1.003 23.847s16.917 6.865 23.847 1.003z" fill="#353544"/><path d="m207.388 192.396c-11.543-11.543-30.257-11.543-41.799 0-.343.343-.675.694-.998 1.049l41.748 41.748c.355-.323.706-.654 1.049-.997 11.543-11.544 11.543-30.258 0-41.8z" fill="#7f63c2"/><path d="m220.489 290.871c-4.012 0-7.337-3.174-7.49-7.217-.192-5.109-3.755-8.671-8.865-8.865-4.139-.156-7.367-3.639-7.21-7.778.156-4.138 3.592-7.385 7.778-7.21 13.002.492 22.796 10.286 23.287 23.287.156 4.14-3.073 7.622-7.212 7.778-.096.003-.192.005-.288.005z" fill="#353544"/></g><path d="m14.922 197.046c-19.896 19.896-19.896 52.154 0 72.05l203.77 203.77c19.896 19.896 52.154 19.896 72.05 0z" fill="url(#SVGID_4_)"/></g></svg>