<svg id="Calque_1" data-name="Calque 1" xmlns="http://www.w3.org/2000/svg" viewBox="0 0 137.49 89.65"><defs><style>.cls-1{fill:#c26570;stroke:#c26570;}.cls-1,.cls-2,.cls-3{stroke-miterlimit:10;}.cls-2{fill:#fff;stroke:#000;}.cls-3{fill:#e2b9b1;stroke:#e2b9b1;}</style></defs><path class="cls-1" d="M146.53,122.61c-.38.33-.76.64-1.15,1s-.73.56-1.1.82l-.06-3.07Z" transform="translate(-58.52 -50.38)"/><circle class="cls-2" cx="74.06" cy="45.94" r="3.38"/><path class="cls-1" d="M161,65.75a38.3,38.3,0,0,0-10.69,1.5A37.66,37.66,0,0,1,161,93.12c0,11.46-5.52,21.88-14.51,29.49-.38.33-.76.64-1.15,1s-.73.56-1.1.82l.06,2.5.09,5.57,4.78-2.88,4.76-2.87-1.32-.73a39.15,39.15,0,0,0,8.39.91c19,0,34.47-13.69,34.47-30.57S180.08,65.75,161,65.75Zm6,34.13a3.38,3.38,0,1,1,3.38-3.38A3.38,3.38,0,0,1,167.07,99.88Zm17.65,0a3.38,3.38,0,1,1,3.37-3.38A3.37,3.37,0,0,1,184.72,99.88Z" transform="translate(-58.52 -50.38)"/><circle class="cls-1" cx="108.55" cy="46.11" r="3.38"/><path class="cls-1" d="M188.09,96.5a3.38,3.38,0,1,1-3.37-3.38A3.37,3.37,0,0,1,188.09,96.5Z" transform="translate(-58.52 -50.38)"/><path class="cls-3" d="M150.35,67.25C141,57.3,126.43,50.88,110,50.88c-28.18,0-51,18.92-51,42.24a36.69,36.69,0,0,0,7.13,21.56l-2,11.26-2.33,13.32,12.7-4.63,11.55-4.21A59.38,59.38,0,0,0,110,135.35a57.08,57.08,0,0,0,34.25-11c.37-.26.74-.54,1.1-.82s.77-.63,1.15-1c9-7.61,14.51-18,14.51-29.49A37.66,37.66,0,0,0,150.35,67.25ZM80.42,99.88a3.38,3.38,0,1,1,3.4-3.38A3.38,3.38,0,0,1,80.42,99.88Zm27.05-.18a3.38,3.38,0,1,1,3.39-3.38A3.38,3.38,0,0,1,107.47,99.7Zm25.11,0A3.38,3.38,0,1,1,136,96.32,3.38,3.38,0,0,1,132.58,99.7Z" transform="translate(-58.52 -50.38)"/><path class="cls-2" d="M83.82,96.5a3.39,3.39,0,1,1-3.39-3.38A3.38,3.38,0,0,1,83.82,96.5Z" transform="translate(-58.52 -50.38)"/><path class="cls-2" d="M110.87,96.32a3.39,3.39,0,1,1-3.39-3.38A3.38,3.38,0,0,1,110.87,96.32Z" transform="translate(-58.52 -50.38)"/><circle class="cls-2" cx="74.06" cy="45.94" r="3.38"/><path class="cls-1" d="M83.82,96.5a3.39,3.39,0,1,1-3.39-3.38A3.38,3.38,0,0,1,83.82,96.5Z" transform="translate(-58.52 -50.38)"/><path class="cls-1" d="M110.87,96.32a3.39,3.39,0,1,1-3.39-3.38A3.38,3.38,0,0,1,110.87,96.32Z" transform="translate(-58.52 -50.38)"/><circle class="cls-1" cx="74.06" cy="45.94" r="3.38"/><path class="cls-3" d="M188.09,96.5a3.38,3.38,0,1,1-3.37-3.38A3.37,3.37,0,0,1,188.09,96.5Z" transform="translate(-58.52 -50.38)"/><circle class="cls-3" cx="108.55" cy="46.11" r="3.38"/></svg>