<svg xmlns="http://www.w3.org/2000/svg" xmlns:xlink="http://www.w3.org/1999/xlink" viewBox="0 0 245.26 117.41"><defs><style>.cls-1{fill:url(#Dégradé_sans_nom_37);}.cls-2{fill:url(#Dégradé_sans_nom_20);}.cls-3{fill:#546270;}</style><linearGradient id="Dégradé_sans_nom_37" x1="314.04" y1="277.86" x2="431.43" y2="277.86" gradientTransform="translate(-263.74 -276.21) rotate(9.38)" gradientUnits="userSpaceOnUse"><stop offset="0" stop-color="#d4bddd"/><stop offset="1" stop-color="#eaffe9"/></linearGradient><linearGradient id="Dégradé_sans_nom_20" x1="154.59" y1="63.62" x2="245.26" y2="63.62" gradientUnits="userSpaceOnUse"><stop offset="0" stop-color="#ffa394"/><stop offset="1" stop-color="#eaffe9"/></linearGradient></defs><g id="Cercle_violet" data-name="Cercle violet"><circle class="cls-1" cx="58.7" cy="58.7" r="58.7"/></g><g id="Cercle_orange" data-name="Cercle orange"><circle class="cls-2" cx="199.92" cy="63.62" r="45.33"/></g><g id="M"><path class="cls-3" d="M435.72,239.48l-3.21,14.3-1.5-.32.2-1a11.59,11.59,0,0,0,.29-2.29c0-1.88-1.13-2.83-3.38-2.83q-4.42,0-8.43,6t-6.2,16q-1.26,5.71-3.13,19.42T408.49,306c0,1.85.63,2.77,1.87,2.77a8.23,8.23,0,0,0,3.78-1.52l.73,1.69c-1.19.65-3.27,1.74-6.26,3.26-2.27,1.16-4.28,2.27-6,3.32a169.85,169.85,0,0,1,1.73-18.14q1.73-13.24,4-25.81L406.87,274q-1.8,3-5.53,9.24L392.48,298l-9,14.91-.9,1.52-1-1a20.48,20.48,0,0,0,1.42-7.34q0-6-2.12-18.55l-1.25-7.34a11.79,11.79,0,0,1-.21-1.2q-9.67,17.36-20,26.6t-20.2,9.25A21.84,21.84,0,0,1,327,311.06a26.07,26.07,0,0,1-9-10.17,36.41,36.41,0,0,1-3.78-17.08q0-12.78,6.56-20.72a21.17,21.17,0,0,1,17.13-7.95,20.42,20.42,0,0,1,11.06,3.11q4.95,3.09,12.84,11.8,3,3.31,4.43,3.32c1.17,0,3.06-1,5.69-2.94l.81,1.63-10.28,7.56-1-1.3A71.49,71.49,0,0,0,346.79,264q-7.16-5-13.12-5a14.66,14.66,0,0,0-12.26,6q-4.61,6-4.61,16,0,12.51,6.93,20.31t18,7.81q9.76,0,19.21-8.4T379,276.2a77.15,77.15,0,0,1-.78-9.85A60.19,60.19,0,0,1,381.46,247q3.21-9.53,6.55-9.52t3.29,7.5a38.16,38.16,0,0,1-1.95,11.13,134.66,134.66,0,0,1-6.46,16q.44,2.88,1.79,9.9a189,189,0,0,1,3,20.78l1.3-2.23,2.69-4.4,19-31.45q6.74-11.15,9.73-15.2a31.82,31.82,0,0,1,6.4-6.61A15,15,0,0,1,435.72,239.48ZM382.6,268.69a75,75,0,0,0,3.92-11.53,41.62,41.62,0,0,0,1.49-9.85q0-4.19-2.16-4.19c-1.08,0-2,1.54-2.76,4.6A46.52,46.52,0,0,0,382,258.79,90.08,90.08,0,0,0,382.6,268.69Z" transform="translate(-314.03 -219.15)"/></g><g id="A"><path class="cls-3" d="M447.23,306.66l.73,1.41a28.86,28.86,0,0,1-11.67,6.75q.21-5.51,4.84-18.93a76.41,76.41,0,0,1-10.79,13.71q-5.55,5.43-8.8,5.43-2.85,0-2.85-4.84,0-8.2,5.49-17.76A50.71,50.71,0,0,1,438,276.74q9.35-7,18.62-7a1.16,1.16,0,0,1,1.3,1.31,14.3,14.3,0,0,1-1.22,4.13,23.64,23.64,0,0,0-5.37-.65q-12.39,0-21.34,12.89-6.58,9.47-6.58,18.77,0,4.35,2.4,4.35,2,0,5.85-4.71a55.92,55.92,0,0,0,6.83-10.9,64.91,64.91,0,0,0,5.65-17.84c1.16.94,1.75,2.68,1.75,5.22q0,5.28-4,12.13a17.07,17.07,0,0,0,4.84-1.52l-.33.92q-3.86,11.58-3.86,13.55c0,1.05.37,1.54,1.1,1.46S445.49,308,447.23,306.66Z" transform="translate(-314.03 -219.15)"/></g><g id="N"><path class="cls-3" d="M478.65,307.09l.65,1.47a26.72,26.72,0,0,1-11.55,6.53q.86-9,7.89-27.25l2.64-6.75a17.79,17.79,0,0,0,1.34-4.46c0-1-.3-1.47-.89-1.47-.84,0-2.44,1.27-4.78,3.81a71.63,71.63,0,0,0-6.85,8.81,99.47,99.47,0,0,0-11.58,24.81,30,30,0,0,0-5.41,2.61q3.75-10.23,7.54-23t3.8-15.09c0-1.3-.39-2-1.18-2a10.14,10.14,0,0,0-2.64.82l-.45.16-.24-1.74a67.68,67.68,0,0,0,10.28-4.89l.53-.33a8.46,8.46,0,0,1,.08,1q0,4.84-5.32,20.61l-.57,1.64.69-1a111.79,111.79,0,0,1,12.3-16q5.63-5.85,8.8-5.84c1.32,0,2,.9,2,2.71s-1.78,7.46-5.33,16.7Q474,305.46,474,307.53c0,1.05.37,1.58,1.1,1.58s1.92-.6,3.33-1.8Z" transform="translate(-314.03 -219.15)"/></g><g id="O"><path class="cls-3" d="M513.4,274.84a30.12,30.12,0,0,0-3.58-.28q-10.69,0-16.38,11a52,52,0,0,0-3.78,10,36.91,36.91,0,0,0-1.54,9.44,7.67,7.67,0,0,0,1.15,4.38,3.47,3.47,0,0,0,3,1.71q4.23,0,9.35-9.08t5.12-16.65a5.62,5.62,0,0,0-.67-2.85,1.91,1.91,0,0,0-1.61-1.17c-2.16,0-4.24,2.9-6.21,8.7a10.17,10.17,0,0,1-.21-1.9c0-2.25,1.05-4.61,3.13-7.07s4.07-3.7,5.94-3.7a3.75,3.75,0,0,1,3.17,2,9.14,9.14,0,0,1,1.3,5q0,9.84-9.39,20.88-8.06,9.58-13.37,9.58a4.52,4.52,0,0,1-3.84-2.23A9.71,9.71,0,0,1,483.4,307a36.14,36.14,0,0,1,3.88-15.58,46,46,0,0,1,10.22-14,33.33,33.33,0,0,1,7.63-5.27,16.29,16.29,0,0,1,7-2.07c1.19,0,1.79.71,1.79,2.12A11.46,11.46,0,0,1,513.4,274.84Z" transform="translate(-314.03 -219.15)"/></g><g id="N-2" data-name="N"><path class="cls-3" d="M538.64,307.09l.65,1.47a26.66,26.66,0,0,1-11.55,6.53q.85-9,7.89-27.25l2.64-6.75a17.34,17.34,0,0,0,1.34-4.46c0-1-.3-1.47-.89-1.47q-1.26,0-4.78,3.81a71.63,71.63,0,0,0-6.85,8.81,99.82,99.82,0,0,0-11.58,24.81,30.33,30.33,0,0,0-5.41,2.61q3.75-10.23,7.54-23t3.8-15.09c0-1.3-.39-2-1.17-2a10.06,10.06,0,0,0-2.65.82l-.44.16-.25-1.74a67.81,67.81,0,0,0,10.29-4.89l.52-.33a9.23,9.23,0,0,1,.09,1q0,4.84-5.33,20.61l-.57,1.64.69-1a111.79,111.79,0,0,1,12.3-16q5.63-5.85,8.8-5.84c1.32,0,2,.9,2,2.71s-1.78,7.46-5.33,16.7Q534,305.46,534,307.53c0,1.05.37,1.58,1.1,1.58s1.92-.6,3.33-1.8Z" transform="translate(-314.03 -219.15)"/></g></svg>