<svg id="Calque_1" data-name="Calque 1" xmlns="http://www.w3.org/2000/svg" viewBox="0 0 185.9 132.56"><defs><style>.cls-1{fill:#b2c8bc;stroke:#b2c8bc;}.cls-1,.cls-2,.cls-3,.cls-4,.cls-5,.cls-6{stroke-linecap:round;stroke-linejoin:round;}.cls-2{fill:#e2b9b1;stroke:#e2b9b1;}.cls-10,.cls-3{fill:#c26570;stroke:#c26570;}.cls-4,.cls-9{fill:#0c4852;stroke:#0c4852;}.cls-5{fill:#b5bc53;stroke:#b5bc53;}.cls-6{fill:#bf5c4f;stroke:#bf5c4f;}.cls-7{fill:#351805;stroke:#351805;}.cls-10,.cls-7,.cls-8,.cls-9{stroke-miterlimit:10;}.cls-8{fill:none;stroke:#000;}</style></defs><path class="cls-1" d="M450.15,145.52a70.8,70.8,0,0,1,34.79,9c8.53-10.52,13.5-23.05,13.5-36.52,0-37.14-37.67-67.25-84.14-67.25S330.15,80.83,330.15,118c0,30.28,25,55.88,59.47,64.31C399,160.78,422.56,145.52,450.15,145.52Z" transform="translate(-329.65 -50.22)"/><path class="cls-2" d="M454.8,75.59l4.45,2.72c2,1.25,4.2,2.66,5.05,4.89,1,2.71-.22,5.71-1.45,8.34-.51,1.09-1.34,2.37-2.54,2.2-1.41-.2-1.85-2.28-3.22-2.67-1.59-.46-3.36,1.62-4.73.7s-.31-2.85-.86-4.25-2.09-1.76-2.7-3-.1-2.45.37-3.61c.58-1.46,1.23-2.92,1.73-4.41.3-.88.56-1.54,1.58-1.69A3.53,3.53,0,0,1,454.8,75.59Z" transform="translate(-329.65 -50.22)"/><path class="cls-3" d="M403.91,63.87a4.21,4.21,0,0,1,3.68-1.21c1.8.4,2.85,2.23,3.67,3.87,1,2,2,4.08,2,6.3a32.11,32.11,0,0,0-.24,3.23,28,28,0,0,0,1.15,4.07c.32,1.38.07,3.1-1.19,3.74s-2.67-.08-3.76-.88-2.25-1.76-3.61-1.71-2.45,1.15-3.55,2-2.74,1.4-3.78.49-.73-2.37-.21-3.52,1.28-2.28,1.21-3.53c-.1-1.89-2-3.17-2.55-5a3.74,3.74,0,0,1,1-3.7,3.78,3.78,0,0,1,3-1c.4,0,.77.17,1.07-.16a11.49,11.49,0,0,0,.89-1.47A8.36,8.36,0,0,1,403.91,63.87Z" transform="translate(-329.65 -50.22)"/><path class="cls-4" d="M434.5,99.14c1.47-1.11,3.68-1.46,5.12-.32,1.09.86,1.52,2.35,2.58,3.23,1.5,1.24,3.85,1,5.28,2.33,1.24,1.15,1.34,3.09,1,4.76s-.89,3.33-.71,5,1,3,1.35,4.55c.66,2.93-.82,6.41-3.66,7.37s-5.71-.58-8.23-2l-4.31-2.5a5.82,5.82,0,0,1-2.57-2.3c-.71-1.56.07-3.46-.52-5.06a5.12,5.12,0,0,0-2.69-2.59,21,21,0,0,1-3.39-1.78,3.48,3.48,0,0,1-1.51-3.3c.4-1.79,2.59-2.5,4.42-2.5.88,0,1.77.07,2.65,0a3.27,3.27,0,0,0,1.74-.36,2.38,2.38,0,0,0,.74-1,13.13,13.13,0,0,1,.94-1.68A8.08,8.08,0,0,1,434.5,99.14Z" transform="translate(-329.65 -50.22)"/><path class="cls-5" d="M354.41,93.29a5.34,5.34,0,0,0-4.71,4.09,6.5,6.5,0,0,0,2,6.07,27.47,27.47,0,0,1,3.13,2.64,9.65,9.65,0,0,1,1.55,4.28A9,9,0,0,0,358,114.6c1,1.16,2.88,1.71,4.09.78,1.71-1.33.89-4.3,2.31-5.93,1.05-1.19,2.93-1.2,4.44-.73s2.92,1.32,4.49,1.55,3.47-.45,3.86-2a3.72,3.72,0,0,0-1-3.1,14.12,14.12,0,0,1-2-2.68c-.8-1.72-.34-3.74-.62-5.61A7,7,0,0,0,361,93.71a10.11,10.11,0,0,0-1.16,2.05c-.09.21-.24.92-.42,1s-.39-.23-.46-.43a4.7,4.7,0,0,0-2.48-2.68A4.36,4.36,0,0,0,354.41,93.29Z" transform="translate(-329.65 -50.22)"/><path class="cls-6" d="M379.88,122.15a3.48,3.48,0,0,1,3-1.77c2.4.14,3.5,3.19,5.69,4.17,2.49,1.12,5.68-.73,8,.64,2,1.13,2.27,3.82,2.33,6.1l.09,3.41a19.51,19.51,0,0,1-.33,5.29,7.74,7.74,0,0,1-4,5.25,5.44,5.44,0,0,1-6.28-1.11c-1-1.18-1.64-3-3.18-3.3-1.23-.23-2.35.71-3.3,1.54s-2.2,1.67-3.38,1.21c-1.55-.6-1.52-2.59-1.08-3.9s1.27-2.75,1.62-4.24a8.77,8.77,0,0,0,.08-3c-.17-1.52-.36-3-.38-4.58a21.28,21.28,0,0,1,.19-3.09,9.34,9.34,0,0,1,.31-1.37c.07-.22.15-.44.24-.65S379.88,122.3,379.88,122.15Z" transform="translate(-329.65 -50.22)"/><path class="cls-7" d="M466.24,146.17A25.84,25.84,0,0,1,449.61,166s-3.4.87-7.38,1.64c1-2.83-3.72-1-4.07-.91.18-.13,1.75-1.35.86-2.55s-3.65-.28-3.65-.28a2.3,2.3,0,0,0-.8-3c-1.15-.88-2.29,2.42-2.29,2.42-.25-4,2.92-8.76,2.92-8.76,10.35-17.3,25.89-12.08,25.89-12.08a3.23,3.23,0,0,0,5.15,3.65Z" transform="translate(-329.65 -50.22)"/><path class="cls-8" d="M438.14,166.74h0" transform="translate(-329.65 -50.22)"/><path class="cls-9" d="M514,103.18l-47.74,43a3.23,3.23,0,0,1-5.15-3.65,3.17,3.17,0,0,1,.81-1.16l47.74-43a3.2,3.2,0,0,1,2.16-.83,3.24,3.24,0,0,1,2.18,5.64Z" transform="translate(-329.65 -50.22)"/><path class="cls-10" d="M443.71,167.45c-5.6,1.09-12.35,2-12.35-.08a20.59,20.59,0,0,1,1.13-6.87s2.41-.63,3.56.25a2.3,2.3,0,0,1,.8,3s2.71-1,3.65.28-.68,2.42-.86,2.55C440,166.41,444.73,164.61,443.71,167.45Z" transform="translate(-329.65 -50.22)"/></svg>